<svg width="18" height="20" viewBox="0 0 18 20" fill="none" xmlns="http://www.w3.org/2000/svg">
<path d="M17 13C17.2652 13 17.5196 13.1054 17.7071 13.2929C17.8946 13.4804 18 13.7348 18 14V18C18 18.5304 17.7893 19.0391 17.4142 19.4142C17.0391 19.7893 16.5304 20 16 20H2C1.46957 20 0.960859 19.7893 0.585786 19.4142C0.210714 19.0391 0 18.5304 0 18V14C0 13.7348 0.105357 13.4804 0.292893 13.2929C0.48043 13.1054 0.734784 13 1 13C1.26522 13 1.51957 13.1054 1.70711 13.2929C1.89464 13.4804 2 13.7348 2 14V18H16V14C16 13.7348 16.1054 13.4804 16.2929 13.2929C16.4804 13.1054 16.7348 13 17 13ZM9 0C9.26522 0 9.51957 0.105357 9.70711 0.292893C9.89464 0.48043 10 0.734784 10 1V11.243L12.536 8.707C12.6282 8.61149 12.7386 8.53531 12.8606 8.4829C12.9826 8.43049 13.1138 8.4029 13.2466 8.40175C13.3794 8.4006 13.5111 8.4259 13.634 8.47618C13.7568 8.52646 13.8685 8.60071 13.9624 8.6946C14.0563 8.7885 14.1305 8.90015 14.1808 9.02305C14.2311 9.14594 14.2564 9.27762 14.2553 9.4104C14.2541 9.54318 14.2265 9.6744 14.1741 9.7964C14.1217 9.91841 14.0455 10.0288 13.95 10.121L9.884 14.187C9.76792 14.3031 9.63011 14.3952 9.47843 14.4581C9.32675 14.5209 9.16418 14.5532 9 14.5532C8.83582 14.5532 8.67325 14.5209 8.52157 14.4581C8.36989 14.3952 8.23208 14.3031 8.116 14.187L4.05 10.121C3.95449 10.0288 3.87831 9.91841 3.8259 9.7964C3.77349 9.6744 3.7459 9.54318 3.74475 9.4104C3.7436 9.27762 3.7689 9.14594 3.81918 9.02305C3.86946 8.90015 3.94371 8.7885 4.0376 8.6946C4.1315 8.60071 4.24315 8.52646 4.36605 8.47618C4.48894 8.4259 4.62062 8.4006 4.7534 8.40175C4.88618 8.4029 5.0174 8.43049 5.1394 8.4829C5.26141 8.53531 5.37175 8.61149 5.464 8.707L8 11.243V1C8 0.734784 8.10536 0.48043 8.29289 0.292893C8.48043 0.105357 8.73478 0 9 0Z" fill="white"/>
</svg>
