<svg width="19" height="17" viewBox="0 0 19 17" fill="none" xmlns="http://www.w3.org/2000/svg">
<path d="M5.96838 16.1122C13.1385 16.1122 17.0608 10.1711 17.0608 5.02803C17.0608 4.86178 17.0608 4.69315 17.0537 4.5269C17.8173 3.9741 18.4764 3.28971 19 2.50578C18.2867 2.82029 17.5308 3.02757 16.7568 3.1209C17.5721 2.6336 18.1827 1.86686 18.4751 0.963214C17.7092 1.41699 16.8708 1.73553 15.9968 1.9049C15.4092 1.27912 14.6317 0.864553 13.7846 0.725426C12.9375 0.586298 12.0682 0.73037 11.3113 1.13533C10.5544 1.54028 9.95221 2.18352 9.59791 2.96541C9.24361 3.7473 9.15702 4.6242 9.35156 5.46028C7.80157 5.38256 6.28522 4.97989 4.90086 4.27841C3.51651 3.57692 2.29506 2.59228 1.31575 1.38834C0.818591 2.247 0.666869 3.26269 0.891392 4.22915C1.11592 5.19562 1.69985 6.04041 2.52462 6.59196C1.90658 6.57096 1.30212 6.405 0.76 6.10746V6.1609C0.761066 7.06041 1.07268 7.93196 1.64216 8.62824C2.21165 9.32452 3.00408 9.80281 3.8855 9.98228C3.55094 10.0744 3.20533 10.1204 2.85831 10.1188C2.61367 10.1196 2.36951 10.0969 2.12919 10.0512C2.37831 10.8255 2.86339 11.5025 3.51648 11.9873C4.16957 12.4722 4.95797 12.7407 5.77125 12.7551C4.38966 13.8402 2.68304 14.4288 0.92625 14.4259C0.616693 14.4272 0.307352 14.4094 0 14.3725C1.78305 15.5092 3.85379 16.1128 5.96838 16.1122Z" fill="#10CD00"/>
</svg>
