<svg width="45" height="45" viewBox="0 0 45 45" fill="none" xmlns="http://www.w3.org/2000/svg">
<circle cx="22.5" cy="22.5" r="22.5" fill="#F3FFA9"/>
<path d="M22.1027 11C17.3099 11 13.4108 14.8992 13.4108 19.6919C13.4108 25.6397 21.1892 34.3716 21.5203 34.7404C21.8314 35.0868 22.3745 35.0862 22.685 34.7404C23.0162 34.3716 30.7946 25.6397 30.7946 19.6919C30.7945 14.8992 26.8954 11 22.1027 11ZM22.1027 24.065C19.6913 24.065 17.7296 22.1032 17.7296 19.6919C17.7296 17.2805 19.6914 15.3188 22.1027 15.3188C24.514 15.3188 26.4757 17.2806 26.4757 19.6919C26.4757 22.1032 24.514 24.065 22.1027 24.065Z" fill="black"/>
</svg>
