<svg width="16" height="16" viewBox="0 0 16 16" fill="none" xmlns="http://www.w3.org/2000/svg">
<path d="M8 16C12.4183 16 16 12.4183 16 8C16 3.58172 12.4183 0 8 0C3.58172 0 0 3.58172 0 8C0 12.4183 3.58172 16 8 16Z" fill="#4793FF"/>
<path d="M8 0C12.4112 0 16 3.58878 16 8C16 12.4112 12.4112 16 8 16V0Z" fill="#5E69E2"/>
<path d="M7.99996 13.9917C11.3091 13.9917 13.9916 11.3091 13.9916 8C13.9916 4.6909 11.3091 2.00835 7.99996 2.00835C4.69086 2.00835 2.0083 4.6909 2.0083 8C2.0083 11.3091 4.69086 13.9917 7.99996 13.9917Z" fill="#2EBEEF"/>
<path d="M8 2.00835C11.3038 2.00835 13.9917 4.69619 13.9917 8C13.9917 11.3038 11.3038 13.9917 8 13.9917V2.00835Z" fill="#4793FF"/>
<path d="M7.60988 3.97434L5.09948 7.73997C4.99451 7.89741 4.99451 8.10256 5.09948 8.26L7.60988 12.0256C7.79542 12.3039 8.20438 12.3039 8.38995 12.0256L10.9004 8.26C11.0053 8.10256 11.0053 7.89741 10.9004 7.73997L8.38995 3.97434C8.20438 3.69603 7.79545 3.69603 7.60988 3.97434Z" fill="#76E5F6"/>
<path d="M8 8.60546V12.2344C8.14863 12.2344 8.29725 12.1648 8.39003 12.0257L10.9004 8.26003C10.9492 8.18681 10.9751 8.10331 10.9785 8.01906L8.09191 8.59637C8.06159 8.60243 8.03078 8.60546 8 8.60546Z" fill="#2EBEEF"/>
<path d="M7.99998 3.76562C7.85135 3.76562 7.70273 3.83519 7.60995 3.97434L5.09954 7.73997C5.04338 7.82422 5.01757 7.92209 5.02151 8.01906L7.90804 8.59638C7.93838 8.60244 7.9692 8.60547 7.99998 8.60547V3.76562Z" fill="#C2F4FB"/>
</svg>
