<svg width="45" height="45" viewBox="0 0 45 45" fill="none" xmlns="http://www.w3.org/2000/svg">
<circle cx="22.5" cy="22.5" r="22.5" fill="#FFD8D8"/>
<path d="M22.7891 12C19.8813 12 17.5156 14.3657 17.5156 17.2734C17.5156 20.1812 19.8813 22.5469 22.7891 22.5469C25.6968 22.5469 28.0625 20.1812 28.0625 17.2734C28.0625 14.3657 25.6968 12 22.7891 12Z" fill="black"/>
<path d="M29.3502 25.992C27.9065 24.5261 25.9925 23.7188 23.9609 23.7188H21.6172C19.5856 23.7188 17.6716 24.5261 16.2279 25.992C14.7912 27.4507 14 29.3763 14 31.4141C14 31.7377 14.2623 32 14.5859 32H30.9922C31.3158 32 31.5781 31.7377 31.5781 31.4141C31.5781 29.3763 30.7869 27.4507 29.3502 25.992Z" fill="black"/>
</svg>
