<svg width="45" height="45" viewBox="0 0 45 45" fill="none" xmlns="http://www.w3.org/2000/svg">
<circle cx="22.5" cy="22.5" r="22.5" fill="#C2F4FB"/>
<path d="M29.8021 20.8689C29.8275 17.8891 27.2896 15.1575 24.1448 14.7798C24.0823 14.7724 24.0142 14.7611 23.942 14.7491C23.7863 14.7233 23.6253 14.6968 23.4629 14.6968C22.8183 14.6968 22.646 15.1496 22.6007 15.4196C22.5566 15.6822 22.5987 15.9026 22.7255 16.0752C22.939 16.3654 23.3145 16.4169 23.6162 16.4582C23.7046 16.4704 23.788 16.4818 23.8579 16.4975C26.6834 17.1288 27.6347 18.1214 28.0997 20.9229C28.1111 20.9913 28.1162 21.0757 28.1216 21.1651C28.1419 21.5 28.1842 22.1967 28.9332 22.1967H28.9333C28.9956 22.1967 29.0626 22.1914 29.1324 22.1807C29.8299 22.0747 29.8081 21.4379 29.7976 21.1319C29.7946 21.0457 29.7918 20.9642 29.7991 20.91C29.801 20.8963 29.802 20.8826 29.8021 20.8689Z" fill="black"/>
<path d="M23.2798 13.686C23.3635 13.6921 23.4427 13.6979 23.5087 13.708C28.1484 14.4215 30.2821 16.6198 30.8734 21.2958C30.8835 21.3752 30.8851 21.4722 30.8867 21.5748C30.8926 21.9402 30.9047 22.7002 31.7209 22.7159L31.7463 22.7162C32.0022 22.7162 32.2058 22.639 32.3515 22.4866C32.6056 22.2208 32.5878 21.826 32.5735 21.5087C32.57 21.4309 32.5667 21.3576 32.5676 21.2934C32.6266 16.5111 28.4869 12.1745 23.7089 12.0132C23.689 12.0125 23.6701 12.0136 23.651 12.0163C23.6417 12.0177 23.6243 12.0194 23.5945 12.0194C23.5468 12.0194 23.4882 12.0152 23.426 12.011C23.3509 12.0059 23.2657 12 23.1793 12C22.4184 12 22.2737 12.5408 22.2552 12.8632C22.2126 13.6083 22.9334 13.6608 23.2798 13.686Z" fill="black"/>
<path d="M30.6497 27.3392C30.5511 27.2639 30.4491 27.1859 30.3536 27.109C29.847 26.7013 29.3081 26.3255 28.7869 25.9621C28.6787 25.8868 28.5705 25.8113 28.4628 25.7357C27.7951 25.2668 27.1949 25.0389 26.6278 25.0389C25.864 25.0389 25.1981 25.4609 24.6484 26.2931C24.4049 26.6621 24.1095 26.8414 23.7454 26.8414C23.5301 26.8414 23.2855 26.78 23.0184 26.6588C20.8634 25.6815 19.3246 24.1832 18.4446 22.2054C18.0192 21.2495 18.1571 20.6246 18.9058 20.1161C19.3309 19.8276 20.1222 19.2904 20.0662 18.2618C20.0027 17.0936 17.4253 13.5789 16.3394 13.1797C15.8796 13.0107 15.3965 13.0091 14.901 13.1758C13.6526 13.5955 12.7567 14.3325 12.31 15.307C11.8783 16.2487 11.8978 17.3544 12.3664 18.5046C13.721 21.8301 15.6255 24.7295 18.0271 27.1221C20.3779 29.4642 23.2673 31.3828 26.6148 32.8242C26.9165 32.954 27.233 33.0248 27.4641 33.0765C27.5429 33.0942 27.6109 33.1093 27.6604 33.1229C27.6877 33.1303 27.7158 33.1343 27.7439 33.1346L27.7704 33.1347C27.7704 33.1347 27.7704 33.1347 27.7705 33.1347C29.345 33.1347 31.2355 31.696 31.8161 30.0557C32.3248 28.6195 31.396 27.9096 30.6497 27.3392Z" fill="black"/>
<path d="M23.9763 17.4848C23.7067 17.4916 23.1458 17.5055 22.9489 18.0769C22.8568 18.3439 22.8678 18.5757 22.9817 18.7659C23.1488 19.045 23.469 19.1305 23.7602 19.1774C24.8164 19.3469 25.3588 19.9309 25.4673 21.0152C25.5177 21.5208 25.8581 21.8739 26.2953 21.8739C26.3276 21.8739 26.3606 21.872 26.3935 21.868C26.9193 21.8054 27.1741 21.4192 27.1511 20.72C27.1595 19.9903 26.7776 19.162 26.1282 18.5021C25.4765 17.8402 24.6909 17.4675 23.9763 17.4848Z" fill="black"/>
</svg>
