<svg width="38" height="38" viewBox="0 0 38 38" fill="none" xmlns="http://www.w3.org/2000/svg">
<path d="M3.19058 15.6772L1.25704 16.2054C1.15629 16.2366 1.06268 16.2873 0.981574 16.3547C0.900471 16.4221 0.833468 16.5049 0.784405 16.5982C0.735343 16.6916 0.705184 16.7937 0.695659 16.8987C0.686134 17.0038 0.697428 17.1097 0.728896 17.2103L0.861006 17.6345C0.891788 17.7354 0.942172 17.8292 1.00927 17.9106C1.07637 17.9919 1.15886 18.0592 1.25202 18.1087C1.34518 18.1581 1.44718 18.1886 1.55217 18.1986C1.65716 18.2085 1.76307 18.1976 1.86385 18.1665L3.76563 17.5369L3.19058 15.6772Z" fill="#10CD00"/>
<path d="M10.5574 37.7748C10.4393 37.7748 10.326 37.7279 10.2425 37.6444C10.159 37.5609 10.1121 37.4476 10.1121 37.3295V26.6919C10.1121 26.5738 10.159 26.4605 10.2425 26.377C10.326 26.2935 10.4393 26.2466 10.5574 26.2466C10.6755 26.2466 10.7887 26.2935 10.8723 26.377C10.9558 26.4605 11.0027 26.5738 11.0027 26.6919V37.3295C11.0027 37.388 10.9912 37.4459 10.9688 37.4999C10.9464 37.554 10.9136 37.6031 10.8723 37.6444C10.8309 37.6858 10.7818 37.7186 10.7278 37.7409C10.6738 37.7633 10.6159 37.7748 10.5574 37.7748Z" fill="#10CD00"/>
<path d="M16.1331 37.7753C16.0358 37.7752 15.9411 37.7432 15.8637 37.6842C15.7863 37.6253 15.7303 37.5425 15.7044 37.4487L12.6994 26.7262C12.6689 26.6129 12.6843 26.4921 12.7424 26.3901C12.8004 26.2881 12.8964 26.2131 13.0095 26.1815C13.1225 26.1499 13.2434 26.1642 13.346 26.2213C13.4485 26.2783 13.5244 26.3736 13.5571 26.4863L16.5621 37.2101C16.5803 37.2762 16.5831 37.3456 16.5702 37.413C16.5572 37.4803 16.5288 37.5438 16.4873 37.5984C16.4458 37.653 16.3922 37.6972 16.3308 37.7277C16.2693 37.7582 16.2017 37.7741 16.1331 37.7741V37.7753Z" fill="#10CD00"/>
<path d="M4.98149 37.7753C4.91289 37.7753 4.84523 37.7594 4.78378 37.7289C4.72234 37.6984 4.66876 37.6542 4.62724 37.5996C4.58571 37.545 4.55737 37.4815 4.5444 37.4142C4.53144 37.3468 4.53421 37.2774 4.5525 37.2112L7.55747 26.4863C7.59016 26.3736 7.66603 26.2783 7.76858 26.2213C7.87113 26.1642 7.99208 26.1499 8.10511 26.1815C8.21814 26.2131 8.31412 26.2881 8.37218 26.3901C8.43024 26.4921 8.44568 26.6129 8.41514 26.7262L5.41017 37.4499C5.384 37.5435 5.32794 37.626 5.25054 37.6847C5.17314 37.7434 5.07866 37.7753 4.98149 37.7753Z" fill="#10CD00"/>
<path d="M35.8825 5.29555L36.2758 6.01458C36.3069 6.07182 36.3539 6.11884 36.4112 6.14995L37.1302 6.54331C37.1839 6.57263 37.2286 6.61584 37.2598 6.66842C37.291 6.72099 37.3074 6.78099 37.3074 6.84212C37.3074 6.90324 37.291 6.96324 37.2598 7.01582C37.2286 7.0684 37.1839 7.11161 37.1302 7.14092L36.4112 7.53428C36.3539 7.5654 36.3069 7.61241 36.2758 7.66966L35.8825 8.38869C35.8531 8.44233 35.8099 8.48709 35.7574 8.51827C35.7048 8.54945 35.6448 8.5659 35.5836 8.5659C35.5225 8.5659 35.4625 8.54945 35.4099 8.51827C35.3574 8.48709 35.3142 8.44233 35.2848 8.38869L34.8915 7.66966C34.8604 7.61241 34.8134 7.5654 34.7561 7.53428L34.0371 7.14092C33.9834 7.11161 33.9387 7.0684 33.9075 7.01582C33.8763 6.96324 33.8599 6.90324 33.8599 6.84212C33.8599 6.78099 33.8763 6.72099 33.9075 6.66842C33.9387 6.61584 33.9834 6.57263 34.0371 6.54331L34.7561 6.14995C34.8134 6.11884 34.8604 6.07182 34.8915 6.01458L35.2848 5.29555C35.3142 5.24199 35.3575 5.19731 35.41 5.16619C35.4626 5.13507 35.5226 5.11865 35.5836 5.11865C35.6447 5.11865 35.7047 5.13507 35.7573 5.16619C35.8098 5.19731 35.8531 5.24199 35.8825 5.29555Z" fill="#10CD00"/>
<path d="M32.6127 1.77806L32.8399 2.19369C32.8578 2.22667 32.8849 2.25378 32.9179 2.27177L33.3336 2.49917C33.3645 2.51609 33.3904 2.54103 33.4084 2.57138C33.4264 2.60173 33.4359 2.63637 33.4359 2.67166C33.4359 2.70695 33.4264 2.74158 33.4084 2.77193C33.3904 2.80228 33.3645 2.82723 33.3336 2.84414L32.9179 3.07125C32.8849 3.08936 32.8578 3.11656 32.8399 3.14962L32.6127 3.56525C32.5958 3.59621 32.5708 3.62205 32.5404 3.64004C32.5101 3.65804 32.4754 3.66753 32.4401 3.66753C32.4048 3.66753 32.3702 3.65804 32.3398 3.64004C32.3094 3.62205 32.2844 3.59621 32.2675 3.56525L32.0404 3.14962C32.0224 3.11656 31.9953 3.08936 31.9623 3.07125L31.5467 2.84414C31.5157 2.82723 31.4899 2.80228 31.4718 2.77193C31.4538 2.74158 31.4443 2.70695 31.4443 2.67166C31.4443 2.63637 31.4538 2.60173 31.4718 2.57138C31.4899 2.54103 31.5157 2.51609 31.5467 2.49917L31.9623 2.27177C31.9953 2.25378 32.0224 2.22667 32.0404 2.19369L32.2675 1.77806C32.2844 1.7471 32.3094 1.72127 32.3398 1.70327C32.3702 1.68528 32.4048 1.67578 32.4401 1.67578C32.4754 1.67578 32.5101 1.68528 32.5404 1.70327C32.5708 1.72127 32.5958 1.7471 32.6127 1.77806Z" fill="#10CD00"/>
<path d="M30.8901 8.01588C30.2073 5.81901 28.5896 3.6349 28.0401 3.37929C27.9753 3.34778 27.9044 3.33069 27.8324 3.32921C27.7603 3.32772 27.6888 3.34187 27.6227 3.37068L3.0949 14.6029C2.91508 14.7016 2.77741 14.8625 2.70768 15.0554C2.63795 15.2483 2.64094 15.46 2.71608 15.6509L3.35852 17.729C3.40233 17.9088 3.50238 18.0698 3.6441 18.1888C3.78582 18.3077 3.96181 18.3782 4.14643 18.3902C4.18494 18.3903 4.22338 18.387 4.26132 18.3804L8.89821 17.5868V23.4534H8.36116C7.98269 23.4539 7.61986 23.6044 7.35227 23.8721C7.08468 24.1397 6.93418 24.5026 6.93379 24.8811V25.6995C6.93426 26.078 7.08479 26.4407 7.35238 26.7083C7.61996 26.9759 7.98274 27.1264 8.36116 27.1269H12.7549C13.1333 27.1264 13.4961 26.9759 13.7637 26.7083C14.0313 26.4407 14.1818 26.078 14.1823 25.6995V24.8802C14.1817 24.5017 14.0309 24.1389 13.7632 23.8714C13.4954 23.604 13.1325 23.4536 12.754 23.4534H12.2033V17.0219L30.8515 13.8305L30.8652 13.8278C30.9339 13.8132 30.9987 13.784 31.0553 13.7423C31.1118 13.7007 31.1589 13.6474 31.1932 13.5861C31.5055 13.0589 31.5934 10.2807 30.8901 8.01588ZM24.4981 14.0142L7.30488 16.9569L6.41277 14.0638L21.8598 6.9881C21.8078 8.3748 22.4832 9.33965 23.1411 10.2757C23.8488 11.2815 24.5788 12.3206 24.4981 14.0142Z" fill="#10CD00"/>
<path d="M10.5574 37.7748C10.4393 37.7748 10.326 37.7279 10.2425 37.6444C10.159 37.5609 10.1121 37.4476 10.1121 37.3295V26.6919C10.1121 26.5738 10.159 26.4605 10.2425 26.377C10.326 26.2935 10.4393 26.2466 10.5574 26.2466C10.6755 26.2466 10.7887 26.2935 10.8723 26.377C10.9558 26.4605 11.0027 26.5738 11.0027 26.6919V37.3295C11.0027 37.388 10.9912 37.4459 10.9688 37.4999C10.9464 37.554 10.9136 37.6031 10.8723 37.6444C10.8309 37.6858 10.7818 37.7186 10.7278 37.7409C10.6738 37.7633 10.6159 37.7748 10.5574 37.7748Z" fill="#10CD00"/>
<path d="M16.1331 37.7753C16.0358 37.7752 15.9411 37.7432 15.8637 37.6842C15.7863 37.6253 15.7303 37.5425 15.7044 37.4487L12.6994 26.7262C12.6689 26.6129 12.6843 26.4921 12.7424 26.3901C12.8004 26.2881 12.8964 26.2131 13.0095 26.1815C13.1225 26.1499 13.2434 26.1642 13.346 26.2213C13.4485 26.2783 13.5244 26.3736 13.5571 26.4863L16.5621 37.2101C16.5803 37.2762 16.5831 37.3456 16.5702 37.413C16.5572 37.4803 16.5288 37.5438 16.4873 37.5984C16.4458 37.653 16.3922 37.6972 16.3308 37.7277C16.2693 37.7582 16.2017 37.7741 16.1331 37.7741V37.7753Z" fill="#10CD00"/>
<path d="M4.98149 37.7753C4.91289 37.7753 4.84523 37.7594 4.78378 37.7289C4.72234 37.6984 4.66876 37.6542 4.62724 37.5996C4.58571 37.545 4.55737 37.4815 4.5444 37.4142C4.53144 37.3468 4.53421 37.2774 4.5525 37.2112L7.55747 26.4863C7.59016 26.3736 7.66603 26.2783 7.76858 26.2213C7.87113 26.1642 7.99208 26.1499 8.10511 26.1815C8.21814 26.2131 8.31412 26.2881 8.37218 26.3901C8.43024 26.4921 8.44568 26.6129 8.41514 26.7262L5.41017 37.4499C5.384 37.5435 5.32794 37.626 5.25054 37.6847C5.17314 37.7434 5.07866 37.7753 4.98149 37.7753Z" fill="#10CD00"/>
</svg>
