<svg width="38" height="38" viewBox="0 0 38 38" fill="none" xmlns="http://www.w3.org/2000/svg">
<g clip-path="url(#clip0_1284_779)">
<path d="M19.0001 11.2165C20.1093 11.2165 21.0085 10.3173 21.0085 9.20811C21.0085 8.0989 20.1093 7.19971 19.0001 7.19971C17.8909 7.19971 16.9917 8.0989 16.9917 9.20811C16.9917 10.3173 17.8909 11.2165 19.0001 11.2165Z" fill="#10CD00"/>
<path d="M30.0406 26.9068C30.8844 26.6146 31.9027 26.8611 31.7941 28.2507C31.7866 28.3974 31.7493 28.5411 31.6845 28.673C31.5775 28.8471 31.4321 28.9944 31.2594 29.1037C31.0868 29.2131 30.8914 29.2815 30.6883 29.3038C30.4852 29.3261 30.2796 29.3017 30.0874 29.2325C29.8951 29.1632 29.7212 29.0509 29.579 28.9042C29.4381 28.7612 29.3369 28.5838 29.2853 28.3898C29.2338 28.1957 29.2337 27.9915 29.285 27.7974C29.413 27.4145 29.6836 27.0955 30.0406 26.9068V26.9068Z" fill="#10CD00"/>
<path d="M12.5304 27.1246C12.3495 27.6296 12.0954 28.0962 11.5586 28.0962C11.3012 28.0958 11.0544 27.9932 10.8725 27.8111C10.6906 27.6289 10.5885 27.382 10.5885 27.1246C10.5847 26.855 10.6826 26.5939 10.8626 26.3932C11.0426 26.1925 11.2916 26.067 11.56 26.0415C12.0954 26.0415 12.7339 26.5557 12.5304 27.1246Z" fill="#10CD00"/>
<path d="M8.29455 29.6871C8.58535 30.0051 8.82122 30.3612 8.61946 30.7425C8.57153 30.8331 8.50621 30.9134 8.42725 30.9788C8.34828 31.0442 8.2572 31.0933 8.15923 31.1235C8.06125 31.1537 7.95828 31.1643 7.85622 31.1546C7.75415 31.145 7.65498 31.1154 7.56438 31.0674C7.371 30.9689 7.2219 30.8011 7.14688 30.5974C7.07186 30.3938 7.07643 30.1694 7.15969 29.969C7.36174 29.5891 7.96704 29.329 8.29455 29.6871Z" fill="#10CD00"/>
<path d="M32.6439 32.2147C32.9394 32.5379 33.1787 32.8992 32.974 33.2863C32.8757 33.4721 32.7075 33.6112 32.5066 33.673C32.3056 33.7349 32.0883 33.7144 31.9025 33.6161C31.7067 33.516 31.5557 33.3458 31.4797 33.1394C31.4037 32.933 31.4082 32.7055 31.4923 32.5023C31.6975 32.1153 32.3121 31.8508 32.6439 32.2147Z" fill="#10CD00"/>
<path d="M26.2016 25.9582C26.497 26.2817 26.7363 26.6427 26.5317 27.0298C26.4334 27.2156 26.2652 27.3548 26.0643 27.4167C25.8633 27.4786 25.646 27.4582 25.4601 27.3599C25.2643 27.2597 25.1133 27.0895 25.0373 26.883C24.9613 26.6766 24.9658 26.4491 25.0499 26.2458C25.2546 25.8588 25.8692 25.5946 26.2016 25.9582Z" fill="#10CD00"/>
<path d="M31.1726 35.9939C30.9882 34.6232 29.6782 33.127 28.4132 32.5205C28.3673 32.4984 28.3285 32.464 28.3011 32.4211C28.0046 31.9614 27.5693 31.6083 27.0584 31.4128C26.5476 31.2174 25.9877 31.1898 25.4602 31.3342C25.3976 31.3528 25.3307 31.3494 25.2703 31.3247C25.21 31.3 25.1599 31.2554 25.1283 31.1983C24.7945 30.6338 23.5694 30.136 22.6395 30.5913C22.58 30.6206 22.5122 30.6284 22.4476 30.6134C22.383 30.5983 22.3256 30.5614 22.2851 30.5089C21.5541 29.5565 21.2922 27.5429 21.0927 26.1689C21.072 26.0322 21.0031 25.9074 20.8983 25.8172C20.7935 25.727 20.6598 25.6774 20.5215 25.6772H17.4988C17.3596 25.6773 17.2251 25.7276 17.12 25.8189C17.0149 25.9102 16.9463 26.0363 16.9267 26.1741C16.7308 27.5562 16.4854 29.5796 15.7537 30.5335C15.7132 30.5861 15.6558 30.623 15.5911 30.638C15.5265 30.6531 15.4586 30.6452 15.3991 30.6159C14.4665 30.1577 13.2109 30.6416 12.8721 31.2035C12.8398 31.2597 12.7894 31.3033 12.7291 31.3271C12.6688 31.351 12.6022 31.3537 12.5402 31.3348C11.977 31.1821 11.3787 31.2247 10.8429 31.4557C10.307 31.6867 9.86519 32.0924 9.58948 32.6067C9.55759 32.668 9.50478 32.7159 9.44061 32.7416C8.74999 32.9962 8.14167 33.4339 7.68087 34.0079C7.22007 34.5818 6.92416 35.2704 6.82488 35.9997C6.76996 36.4246 6.95207 36.809 7.43191 36.809H30.5685C31.0512 36.809 31.2333 36.4188 31.1726 35.9939Z" fill="#10CD00"/>
<path d="M26.6292 19.0338C26.0571 17.997 24.256 15.3153 23.8455 14.7063C23.9091 13.4879 23.9611 12.3779 23.9837 11.6827C24.0686 8.9629 23.6278 6.69578 22.6011 4.70299C22.5885 4.66643 22.5711 4.63172 22.5493 4.59979C21.8351 3.27433 20.9 2.08035 19.7845 1.06918C19.5681 0.877389 19.289 0.771484 18.9999 0.771484C18.7108 0.771484 18.4317 0.877389 18.2154 1.06918C17.0782 2.09946 16.1294 3.32014 15.4115 4.67639L15.4098 4.67986C14.3749 6.67815 13.9309 8.9525 14.0162 11.6827C14.0379 12.3785 14.0908 13.4896 14.1547 14.7089C13.7439 15.3159 11.9431 17.997 11.3707 19.0335C11.062 19.5929 11.0386 21.7007 11.0386 22.3335C11.0385 22.3472 11.0392 22.3609 11.0406 22.3745C11.0525 22.5259 11.0963 22.6731 11.1691 22.8064C11.2419 22.9397 11.342 23.0561 11.4629 23.1481C11.5899 23.2408 11.7428 23.2913 11.9 23.2926C11.995 23.2828 12.0884 23.2609 12.1778 23.2273L14.6715 21.7889C14.8118 22.1149 15.0417 22.3944 15.3345 22.5949C15.6272 22.7955 15.9709 22.9089 16.3255 22.922L15.4893 24.8845C15.4261 25.0249 15.3988 25.1789 15.4097 25.3325C15.4207 25.4861 15.4696 25.6346 15.552 25.7647C15.6194 25.8731 15.7129 25.9628 15.8241 26.0255C15.9352 26.0883 16.0603 26.1222 16.1879 26.124H21.8108C21.9384 26.1222 22.0634 26.0883 22.1746 26.0256C22.2857 25.9629 22.3793 25.8733 22.4467 25.7649C22.5287 25.6363 22.5776 25.4894 22.5892 25.3374C22.6008 25.1853 22.5747 25.0327 22.5132 24.8931L21.6735 22.922C22.0281 22.9089 22.3717 22.7954 22.6645 22.5949C22.9573 22.3943 23.1871 22.1148 23.3275 21.7889L25.8218 23.2284C25.9113 23.262 26.0048 23.284 26.0999 23.2938C26.257 23.2924 26.4098 23.2419 26.5367 23.1492C26.6576 23.0573 26.7577 22.9409 26.8305 22.8076C26.9032 22.6743 26.947 22.5271 26.959 22.3757C26.9604 22.3621 26.9611 22.3484 26.961 22.3346C26.9613 21.7007 26.9379 19.5929 26.6292 19.0338ZM23.1168 11.6555C23.0439 13.9885 22.6176 21.0295 22.6132 21.1035C22.5994 21.3624 22.4868 21.6062 22.2985 21.7844C22.1103 21.9627 21.8608 22.0618 21.6015 22.0615H16.3984C16.1386 22.0618 15.8886 21.9622 15.7003 21.7833C15.5119 21.6043 15.3996 21.3598 15.3867 21.1003C15.3823 21.0295 14.956 13.9894 14.8831 11.6555C14.7964 8.92185 15.3063 6.87153 16.0764 5.28169H21.9235C22.6936 6.87153 23.2023 8.92185 23.1168 11.6555Z" fill="#10CD00"/>
</g>
<defs>
<clipPath id="clip0_1284_779">
<rect width="37" height="37" fill="white" transform="translate(0.5 0.5)"/>
</clipPath>
</defs>
</svg>
