<svg width="39" height="40" viewBox="0 0 39 40" fill="none" xmlns="http://www.w3.org/2000/svg">
<g clip-path="url(#clip0_1146_836)">
<path d="M5.36979 7.47168L5.65345 7.98965C5.67589 8.03086 5.70975 8.06471 5.75095 8.08715L6.26892 8.37051C6.30757 8.39167 6.33981 8.42283 6.36227 8.46073C6.38473 8.49863 6.39658 8.54187 6.39658 8.58593C6.39658 8.62998 6.38473 8.67322 6.36227 8.71112C6.33981 8.74902 6.30757 8.78018 6.26892 8.80134L5.75095 9.0847C5.70975 9.10714 5.67589 9.14099 5.65345 9.1822L5.36979 9.70017C5.34861 9.73874 5.31746 9.77091 5.27959 9.79332C5.24172 9.81572 5.19853 9.82755 5.15453 9.82755C5.11053 9.82755 5.06733 9.81572 5.02946 9.79332C4.9916 9.77091 4.96044 9.73874 4.93927 9.70017L4.6556 9.1822C4.63305 9.14107 4.59922 9.10725 4.5581 9.0847L4.04013 8.80134C4.00149 8.78018 3.96925 8.74902 3.94679 8.71112C3.92433 8.67322 3.91248 8.62998 3.91248 8.58593C3.91248 8.54187 3.92433 8.49863 3.94679 8.46073C3.96925 8.42283 4.00149 8.39167 4.04013 8.37051L4.5581 8.08715C4.59922 8.0646 4.63305 8.03078 4.6556 7.98965L4.93927 7.47168C4.96002 7.43261 4.99103 7.39992 5.02895 7.37712C5.06687 7.35433 5.11028 7.34229 5.15453 7.34229C5.19877 7.34229 5.24219 7.35433 5.28011 7.37712C5.31803 7.39992 5.34903 7.43261 5.36979 7.47168V7.47168Z" fill="#10CD00"/>
<path d="M31.7119 29.6624L31.9836 30.1597C32.0053 30.1991 32.0378 30.2315 32.0772 30.2532L32.5744 30.525C32.6115 30.5453 32.6424 30.5752 32.6639 30.6115C32.6855 30.6479 32.6968 30.6893 32.6968 30.7316C32.6968 30.7738 32.6855 30.8153 32.6639 30.8516C32.6424 30.888 32.6115 30.9179 32.5744 30.9382L32.0772 31.2099C32.0377 31.2316 32.0053 31.264 31.9836 31.3035L31.7119 31.8004C31.6916 31.8375 31.6617 31.8684 31.6253 31.8899C31.589 31.9115 31.5475 31.9228 31.5053 31.9228C31.463 31.9228 31.4216 31.9115 31.3852 31.8899C31.3489 31.8684 31.319 31.8375 31.2987 31.8004L31.0269 31.3035C31.0054 31.264 30.9729 31.2315 30.9334 31.2099L30.4364 30.9382C30.3994 30.9179 30.3685 30.888 30.3469 30.8516C30.3254 30.8153 30.314 30.7738 30.314 30.7316C30.314 30.6893 30.3254 30.6479 30.3469 30.6115C30.3685 30.5752 30.3994 30.5453 30.4364 30.525L30.9334 30.2532C30.9728 30.2316 31.0053 30.1991 31.0269 30.1597L31.2987 29.6624C31.319 29.6254 31.3489 29.5945 31.3852 29.5729C31.4216 29.5514 31.463 29.54 31.5053 29.54C31.5475 29.54 31.589 29.5514 31.6253 29.5729C31.6617 29.5945 31.6916 29.6254 31.7119 29.6624Z" fill="#10CD00"/>
<path d="M27.409 32.9165L27.8435 33.7111C27.8782 33.7741 27.9301 33.826 27.9931 33.8607L28.7878 34.2952C28.847 34.3275 28.8965 34.3753 28.9309 34.4333C28.9653 34.4914 28.9835 34.5576 28.9835 34.6252C28.9835 34.6927 28.9653 34.7589 28.9309 34.817C28.8965 34.8751 28.847 34.9228 28.7878 34.9551L27.9931 35.3896C27.9301 35.4243 27.8782 35.4762 27.8435 35.5392L27.409 36.3338C27.3767 36.3931 27.329 36.4425 27.2709 36.477C27.2128 36.5114 27.1466 36.5296 27.0791 36.5296C27.0116 36.5296 26.9453 36.5114 26.8872 36.477C26.8292 36.4425 26.7815 36.3931 26.7491 36.3338L26.3146 35.5392C26.2799 35.4762 26.228 35.4243 26.165 35.3896L25.3704 34.9551C25.3111 34.9228 25.2617 34.8751 25.2272 34.817C25.1928 34.7589 25.1746 34.6927 25.1746 34.6252C25.1746 34.5576 25.1928 34.4914 25.2272 34.4333C25.2617 34.3753 25.3111 34.3275 25.3704 34.2952L26.165 33.8607C26.228 33.826 26.2799 33.7741 26.3146 33.7111L26.7491 32.9165C26.7815 32.8572 26.8292 32.8078 26.8872 32.7733C26.9453 32.7389 27.0116 32.7207 27.0791 32.7207C27.1466 32.7207 27.2128 32.7389 27.2709 32.7733C27.329 32.8078 27.3767 32.8572 27.409 32.9165V32.9165Z" fill="#10CD00"/>
<path d="M27.8106 11.2128L21.8796 16.7819C21.8537 16.8062 21.8217 16.8231 21.787 16.8308C21.7523 16.8386 21.7162 16.8368 21.6824 16.8258C21.6486 16.8148 21.6184 16.7949 21.5949 16.7682C21.5715 16.7415 21.5556 16.709 21.549 16.674L20.7949 12.6936C20.7861 12.6471 20.761 12.6052 20.7241 12.5756C20.6871 12.546 20.6408 12.5305 20.5935 12.5321C20.5462 12.5336 20.501 12.552 20.466 12.584C20.4311 12.616 20.4088 12.6594 20.4031 12.7064L19.8519 17.1969C19.8477 17.2312 19.8347 17.2638 19.814 17.2915C19.7934 17.3192 19.7658 17.341 19.7342 17.3548C19.7025 17.3686 19.6678 17.3739 19.6334 17.3701C19.5991 17.3664 19.5663 17.3537 19.5384 17.3334L16.2572 14.9538C16.2194 14.9263 16.1731 14.9131 16.1265 14.9165C16.0799 14.9198 16.0359 14.9395 16.0024 14.9721C15.9689 15.0046 15.948 15.048 15.9433 15.0945C15.9386 15.1409 15.9505 15.1876 15.9769 15.2262L18.3342 18.6899C18.3523 18.7165 18.3637 18.7472 18.3673 18.7792C18.3709 18.8112 18.3666 18.8436 18.3549 18.8736C18.3432 18.9036 18.3243 18.9303 18.3 18.9514C18.2756 18.9724 18.2465 18.9873 18.2151 18.9945L16.1432 19.4772C16.0987 19.4874 16.0591 19.5128 16.0311 19.5489C16.0031 19.585 15.9884 19.6296 15.9896 19.6753C15.9907 19.7209 16.0075 19.7648 16.0372 19.7995C16.0669 19.8342 16.1077 19.8576 16.1527 19.8656L18.0533 20.2099C18.0884 20.2163 18.1212 20.232 18.1481 20.2554C18.175 20.2788 18.1952 20.309 18.2064 20.3429C18.2176 20.3768 18.2194 20.413 18.2117 20.4479C18.204 20.4827 18.1871 20.5148 18.1627 20.5408L11.9035 27.2245C11.8705 27.2618 11.8527 27.3102 11.8538 27.36C11.8549 27.4099 11.8746 27.4575 11.9092 27.4934C11.9438 27.5293 11.9906 27.5509 12.0403 27.5538C12.0901 27.5568 12.1391 27.5409 12.1777 27.5093L19.1788 21.4037C19.2064 21.3796 19.2401 21.3636 19.2763 21.3575C19.3124 21.3514 19.3495 21.3554 19.3835 21.3691C19.4175 21.3828 19.447 21.4056 19.4688 21.4351C19.4906 21.4645 19.5038 21.4994 19.507 21.5359L19.8519 25.5085C19.856 25.5563 19.8774 25.6011 19.912 25.6344C19.9466 25.6677 19.9921 25.6873 20.0401 25.6895C20.0881 25.6918 20.1353 25.6766 20.1729 25.6467C20.2105 25.6168 20.236 25.5743 20.2446 25.527L20.897 21.954C20.9034 21.9184 20.9195 21.8852 20.9434 21.8581C20.9674 21.831 20.9983 21.8109 21.0328 21.8001C21.0673 21.7893 21.1041 21.7881 21.1392 21.7967C21.1744 21.8053 21.2065 21.8233 21.2321 21.8489L22.9816 23.5819C23.013 23.6131 23.0538 23.6329 23.0977 23.6382C23.1415 23.6436 23.1859 23.6341 23.2238 23.6113C23.2617 23.5885 23.2909 23.5537 23.3067 23.5125C23.3226 23.4712 23.3242 23.4259 23.3113 23.3836L22.5191 20.7569C22.5086 20.722 22.5079 20.685 22.517 20.6498C22.5261 20.6146 22.5447 20.5826 22.5708 20.5572C22.5968 20.5319 22.6293 20.5142 22.6648 20.506C22.7002 20.4978 22.7372 20.4996 22.7717 20.511L25.2138 21.3214C25.2576 21.336 25.3052 21.3348 25.3483 21.3181C25.3914 21.3013 25.4272 21.2701 25.4497 21.2297C25.4722 21.1893 25.4798 21.1423 25.4714 21.0969C25.4629 21.0514 25.4388 21.0104 25.4033 20.9808L23.4329 19.3355C23.4069 19.3134 23.3871 19.285 23.3752 19.253C23.3634 19.2211 23.36 19.1866 23.3654 19.1529C23.3707 19.1193 23.3847 19.0875 23.4058 19.0608C23.427 19.0341 23.4547 19.0133 23.4862 19.0003L25.3804 18.2417C25.4225 18.2249 25.4576 18.1943 25.4798 18.1549C25.5021 18.1155 25.5102 18.0696 25.5028 18.025C25.4954 17.9803 25.4729 17.9395 25.4391 17.9094C25.4053 17.8792 25.3623 17.8616 25.3171 17.8593L23.2336 17.7536C23.1967 17.7517 23.161 17.7396 23.1306 17.7185C23.1003 17.6975 23.0763 17.6684 23.0616 17.6345C23.0469 17.6006 23.0419 17.5633 23.0473 17.5267C23.0526 17.4901 23.0681 17.4558 23.0919 17.4275L28.0989 11.4861C28.1351 11.4479 28.1547 11.3969 28.1533 11.3442C28.1519 11.2915 28.1296 11.2416 28.0914 11.2054C28.0532 11.1691 28.0021 11.1495 27.9495 11.1509C27.8968 11.1523 27.8469 11.1746 27.8106 11.2128V11.2128Z" fill="#10CD00"/>
<path d="M1.64896 39.0898C1.5569 39.0897 1.46701 39.0619 1.39106 39.0098C1.31511 38.9578 1.25664 38.884 1.22332 38.7982C1.18999 38.7124 1.18336 38.6185 1.20429 38.5289C1.22522 38.4392 1.27274 38.358 1.34062 38.2958L17.6981 23.3356C17.8163 23.2269 17.966 23.1585 18.1256 23.1405C18.2852 23.1225 18.4465 23.1557 18.5859 23.2354C18.6975 23.3028 18.791 23.3962 18.8586 23.5076C18.9262 23.6191 18.9658 23.7452 18.9741 23.8752L19.8199 33.1377C19.8265 33.1981 19.821 33.2591 19.8038 33.3173C19.7865 33.3755 19.7579 33.4297 19.7195 33.4767C19.6811 33.5237 19.6337 33.5625 19.5801 33.591C19.5265 33.6195 19.4678 33.637 19.4073 33.6426C19.3469 33.6481 19.286 33.6416 19.2281 33.6233C19.1702 33.605 19.1165 33.5754 19.0702 33.5362C19.0239 33.497 18.9859 33.4489 18.9583 33.3949C18.9308 33.3408 18.9143 33.2818 18.9098 33.2212L18.0984 24.3405C18.0974 24.3292 18.0932 24.3185 18.0863 24.3094C18.0795 24.3004 18.0703 24.2934 18.0597 24.2893C18.0491 24.2853 18.0376 24.2842 18.0265 24.2863C18.0154 24.2884 18.005 24.2936 17.9967 24.3012L1.9573 38.9701C1.87308 39.0471 1.76309 39.0898 1.64896 39.0898V39.0898Z" fill="#10CD00"/>
<path d="M0.685548 38.3574C0.612926 38.354 0.541861 38.3352 0.477086 38.3022C0.41231 38.2691 0.35531 38.2227 0.309879 38.166C0.264448 38.1092 0.231629 38.0434 0.213608 37.973C0.195586 37.9025 0.192775 37.8291 0.205361 37.7575C0.205769 37.7412 0.212425 37.7257 0.223947 37.7142C2.20442 35.7819 12.3243 24.5779 14.9404 21.6785C14.9471 21.6702 14.9516 21.6603 14.9533 21.6498C14.9551 21.6392 14.954 21.6284 14.9502 21.6184C14.9465 21.6084 14.9401 21.5996 14.9319 21.5928C14.9236 21.586 14.9137 21.5815 14.9032 21.5798L8.10164 20.461C7.98201 20.4413 7.87509 20.3749 7.8044 20.2764C7.73372 20.1779 7.70507 20.0553 7.72474 19.9357C7.74442 19.8161 7.81082 19.7091 7.90933 19.6385C8.00784 19.5678 8.13039 19.5391 8.25002 19.5588L15.4355 20.7413C15.5551 20.7625 15.6681 20.8113 15.7657 20.8837C15.8632 20.9561 15.9426 21.0502 15.9976 21.1586C16.0525 21.2669 16.0815 21.3866 16.0822 21.5081C16.083 21.6295 16.0555 21.7495 16.0019 21.8586C15.999 21.8658 15.9947 21.8724 15.9894 21.8781C14.2201 23.8412 3.42987 35.8023 1.00882 38.223C0.966412 38.2656 0.916031 38.2993 0.860561 38.3224C0.80509 38.3455 0.745619 38.3574 0.685548 38.3574V38.3574Z" fill="#10CD00"/>
<path d="M8.20068 19.5432C8.08232 19.5432 7.96854 19.4974 7.8833 19.4153C7.79805 19.3332 7.74799 19.2212 7.74365 19.1029C7.74457 18.9845 7.78923 18.8706 7.86904 18.7831C7.94886 18.6957 8.05818 18.6408 8.176 18.6291L15.4477 17.7041C15.458 17.7028 15.4679 17.6989 15.4763 17.6927C15.4847 17.6865 15.4914 17.6783 15.4958 17.6687C15.5001 17.6592 15.5019 17.6488 15.501 17.6384C15.5001 17.6279 15.4965 17.6179 15.4906 17.6093L8.35577 7.0531C8.32099 7.00342 8.29645 6.94732 8.28358 6.88806C8.2707 6.8288 8.26974 6.76757 8.28077 6.70793C8.29179 6.6483 8.31457 6.59146 8.34779 6.54072C8.381 6.48998 8.42397 6.44636 8.47421 6.41239C8.52445 6.37843 8.58095 6.3548 8.64041 6.34289C8.69987 6.33098 8.76111 6.33102 8.82056 6.34301C8.88 6.355 8.93647 6.3787 8.98666 6.41273C9.03685 6.44676 9.07977 6.49044 9.11292 6.54123L16.4416 17.3851C16.5253 17.508 16.571 17.6529 16.5731 17.8017C16.5751 17.9504 16.5334 18.0965 16.4531 18.2217C16.3874 18.3194 16.3011 18.4014 16.2001 18.462C16.0992 18.5225 15.9862 18.5601 15.8691 18.5721L8.25857 19.5395C8.23937 19.5419 8.22004 19.5432 8.20068 19.5432V19.5432Z" fill="#10CD00"/>
<path d="M18.6621 15.5295C18.4693 15.5289 18.2839 15.4546 18.1442 15.3217L9.4368 7.13016C9.34848 7.04709 9.29678 6.93234 9.29306 6.81114C9.28935 6.68995 9.33393 6.57224 9.417 6.48392C9.50007 6.3956 9.61483 6.34389 9.73602 6.34018C9.85721 6.33646 9.97492 6.38105 10.0632 6.46412L18.44 14.3464C18.4484 14.3543 18.459 14.3597 18.4703 14.3619C18.4817 14.3641 18.4935 14.363 18.5042 14.3588C18.515 14.3545 18.5244 14.3473 18.5312 14.3379C18.538 14.3285 18.542 14.3174 18.5427 14.3059L19.1039 5.78923C19.1071 5.72873 19.1222 5.66946 19.1485 5.61486C19.1748 5.56027 19.2116 5.51144 19.2569 5.47121C19.3022 5.43099 19.3551 5.40018 19.4124 5.38057C19.4697 5.36095 19.5304 5.35293 19.5908 5.35697C19.6513 5.36101 19.7103 5.37703 19.7645 5.4041C19.8187 5.43116 19.867 5.46873 19.9065 5.51463C19.9461 5.56052 19.9761 5.61382 19.9949 5.67142C20.0137 5.72903 20.0208 5.78979 20.0159 5.85017L19.4269 14.7873C19.4214 14.9084 19.388 15.0266 19.3294 15.1328C19.2708 15.2389 19.1886 15.3302 19.089 15.3994C18.9625 15.4836 18.8141 15.5289 18.6621 15.5295V15.5295Z" fill="#10CD00"/>
<path d="M22.617 14.7433C22.4376 14.7432 22.264 14.6798 22.1267 14.5642C21.9895 14.4487 21.8975 14.2884 21.8668 14.1117L20.433 5.83208C20.4227 5.77294 20.4242 5.71237 20.4374 5.65381C20.4506 5.59526 20.4751 5.53987 20.5097 5.49081C20.5795 5.39173 20.6859 5.32444 20.8053 5.30375C20.9247 5.28307 21.0475 5.31067 21.1466 5.3805C21.2457 5.45032 21.3129 5.55665 21.3336 5.67608L22.7026 13.5809C22.7044 13.5916 22.7091 13.6015 22.7161 13.6098C22.7231 13.6181 22.7322 13.6243 22.7424 13.6279C22.7526 13.6315 22.7636 13.6323 22.7742 13.6303C22.7848 13.6282 22.7947 13.6234 22.8028 13.6162L37.0229 1.1466C37.1141 1.06668 37.2332 1.02624 37.3542 1.03419C37.4752 1.04213 37.588 1.0978 37.6679 1.18895C37.7478 1.2801 37.7883 1.39927 37.7803 1.52023C37.7724 1.6412 37.7167 1.75405 37.6256 1.83397L23.1194 14.5544C22.9804 14.6762 22.8018 14.7434 22.617 14.7433V14.7433Z" fill="#10CD00"/>
<path d="M20.5591 33.3567C20.5284 33.3566 20.4978 33.3537 20.4677 33.3478C20.3553 33.3252 20.2555 33.2612 20.1881 33.1684C20.1207 33.0756 20.0906 32.9609 20.1039 32.8469C20.2605 31.3985 20.8882 25.5978 21.0384 24.2087C21.0509 24.058 21.1064 23.914 21.1981 23.7937C21.2899 23.6735 21.4142 23.5821 21.5563 23.5302C21.7129 23.4768 21.8826 23.4762 22.0395 23.5286C22.1964 23.5809 22.3319 23.6833 22.425 23.82L25.5215 28.3047C25.5857 28.4045 25.6085 28.5254 25.5851 28.6418C25.5617 28.7582 25.4939 28.8609 25.3961 28.9282C25.2984 28.9955 25.1782 29.0221 25.0612 29.0024C24.9441 28.9827 24.8393 28.9182 24.769 28.8226L22.0009 24.8114C21.9938 24.8011 21.9838 24.7932 21.9721 24.7888C21.9605 24.7844 21.9477 24.7837 21.9356 24.7867C21.9236 24.7898 21.9127 24.7965 21.9045 24.8059C21.8964 24.8153 21.8913 24.827 21.89 24.8395L21.0128 32.9493C21.0006 33.0612 20.9475 33.1646 20.8638 33.2397C20.7801 33.3149 20.6716 33.3565 20.5591 33.3567V33.3567Z" fill="#10CD00"/>
<path d="M26.0986 28.6777C26.0009 28.6777 25.9058 28.6463 25.8272 28.5882C25.7487 28.5302 25.6908 28.4484 25.662 28.3551L23.971 22.846C23.9241 22.7053 23.9172 22.5543 23.9512 22.41C23.9851 22.2656 24.0586 22.1335 24.1633 22.0285C24.282 21.9163 24.4336 21.8452 24.5957 21.8257C24.7579 21.8063 24.922 21.8394 25.0639 21.9204L34.0903 27.0635C34.1424 27.0932 34.1882 27.1329 34.225 27.1803C34.2619 27.2278 34.289 27.282 34.3048 27.3399C34.3207 27.3978 34.325 27.4582 34.3175 27.5178C34.31 27.5774 34.2908 27.6349 34.2611 27.687C34.2313 27.7392 34.1916 27.785 34.1442 27.8218C34.0968 27.8586 34.0426 27.8857 33.9847 27.9016C33.9268 27.9174 33.8663 27.9217 33.8067 27.9142C33.7472 27.9067 33.6897 27.8875 33.6375 27.8578L25.0789 22.981C25.0683 22.975 25.0561 22.9723 25.044 22.9732C25.0318 22.9742 25.0203 22.9788 25.0107 22.9864C25.0012 22.994 24.9942 23.0043 24.9906 23.0159C24.987 23.0276 24.987 23.04 24.9905 23.0517L26.5359 28.0866C26.5568 28.155 26.5615 28.2273 26.5494 28.2978C26.5373 28.3683 26.5089 28.435 26.4664 28.4925C26.4238 28.55 26.3684 28.5967 26.3046 28.6289C26.2407 28.661 26.1702 28.6778 26.0986 28.6777V28.6777Z" fill="#10CD00"/>
<path d="M34.6716 27.1092C34.5693 27.1093 34.4699 27.075 34.3895 27.0117L25.5739 20.0855C25.4646 20.0038 25.378 19.8955 25.3221 19.771C25.2663 19.6465 25.2432 19.5097 25.2549 19.3738C25.2721 19.2211 25.3353 19.0772 25.4361 18.9612C25.5368 18.8452 25.6704 18.7626 25.8192 18.7242L33.1287 16.811C33.1875 16.7933 33.2493 16.7875 33.3104 16.7942C33.3714 16.8009 33.4306 16.8198 33.4842 16.8498C33.5378 16.8798 33.5848 16.9203 33.6224 16.9689C33.66 17.0175 33.6874 17.0732 33.703 17.1327C33.7185 17.1921 33.722 17.2541 33.713 17.3149C33.7041 17.3757 33.683 17.434 33.651 17.4865C33.619 17.539 33.5768 17.5844 33.5268 17.6202C33.4769 17.656 33.4202 17.6813 33.3602 17.6946L26.4661 19.4999C26.4551 19.5028 26.4451 19.5086 26.4373 19.5169C26.4294 19.5251 26.424 19.5354 26.4217 19.5465C26.4194 19.5576 26.4203 19.5691 26.4242 19.5798C26.4281 19.5905 26.4349 19.5998 26.4438 19.6069L34.9364 26.2795C35.0239 26.3454 35.0859 26.4396 35.1117 26.546C35.1376 26.6525 35.1257 26.7646 35.078 26.8633C35.0393 26.9376 34.981 26.9998 34.9093 27.0432C34.8376 27.0865 34.7554 27.1094 34.6716 27.1092V27.1092Z" fill="#10CD00"/>
<path d="M25.6937 16.853C25.5455 16.8531 25.4004 16.8099 25.2763 16.7288C25.1522 16.6476 25.0545 16.5321 24.9951 16.3962C24.9357 16.2603 24.9173 16.1101 24.9421 15.9639C24.9669 15.8177 25.0338 15.682 25.1346 15.5733L38.0555 1.58628C38.1392 1.50369 38.2515 1.45654 38.3691 1.45465C38.4867 1.45276 38.6005 1.49626 38.6868 1.57611C38.7731 1.65597 38.8254 1.76603 38.8326 1.8834C38.8399 2.00077 38.8016 2.11643 38.7258 2.20632L26.1514 15.8204C26.1431 15.8292 26.1377 15.8403 26.1358 15.8522C26.1339 15.8641 26.1356 15.8763 26.1406 15.8872C26.1456 15.8982 26.1538 15.9074 26.1641 15.9137C26.1743 15.9201 26.1862 15.9232 26.1983 15.9227L33.0007 15.7058C33.1219 15.7018 33.2398 15.746 33.3284 15.8289C33.4169 15.9117 33.469 16.0264 33.473 16.1476C33.477 16.2688 33.4328 16.3867 33.3499 16.4752C33.2671 16.5638 33.1524 16.6158 33.0312 16.6199L25.7187 16.853H25.6937Z" fill="#10CD00"/>
<path d="M34.2914 10.0743C34.2 10.0743 34.1107 10.0469 34.035 9.99568C33.9594 9.94445 33.9008 9.87171 33.8669 9.78685C33.833 9.702 33.8253 9.60893 33.8448 9.51965C33.8643 9.43038 33.9101 9.34901 33.9763 9.28603L34.3569 8.92376C34.4447 8.84021 34.5621 8.79497 34.6833 8.79799C34.8045 8.80102 34.9196 8.85207 35.0031 8.93991C35.0867 9.02775 35.1319 9.14518 35.1289 9.26638C35.1259 9.38757 35.0748 9.5026 34.987 9.58615L34.6064 9.94843C34.5214 10.0292 34.4086 10.0743 34.2914 10.0743V10.0743Z" fill="#10CD00"/>
<path d="M31.0172 13.1919C30.9259 13.1919 30.8367 13.1645 30.7611 13.1132C30.6855 13.062 30.6269 12.9893 30.593 12.9045C30.5591 12.8198 30.5514 12.7268 30.5708 12.6375C30.5903 12.5483 30.636 12.467 30.7021 12.404L33.2173 10.0091C33.2604 9.96597 33.3117 9.93187 33.3682 9.90883C33.4247 9.8858 33.4852 9.87431 33.5462 9.87503C33.6072 9.87575 33.6674 9.88868 33.7233 9.91304C33.7792 9.9374 33.8297 9.97271 33.8718 10.0169C33.9138 10.0611 33.9466 10.1132 33.9682 10.1702C33.9898 10.2273 33.9998 10.2881 33.9975 10.349C33.9952 10.41 33.9808 10.4699 33.955 10.5251C33.9292 10.5804 33.8927 10.63 33.8474 10.6709L31.3322 13.0658C31.2474 13.1469 31.1345 13.1921 31.0172 13.1919V13.1919Z" fill="#10CD00"/>
<path d="M24.17 11.0821C24.0807 11.0821 23.9934 11.0559 23.9188 11.0068C23.8443 10.9577 23.7857 10.8879 23.7504 10.8059C23.715 10.7239 23.7045 10.6334 23.7201 10.5455C23.7356 10.4576 23.7766 10.3761 23.8379 10.3113L27.6925 6.23301C27.7337 6.18937 27.7831 6.15429 27.8379 6.12976C27.8927 6.10522 27.9518 6.09172 28.0118 6.09003C28.0718 6.08833 28.1316 6.09847 28.1876 6.11986C28.2437 6.14126 28.2951 6.17349 28.3387 6.21473C28.3823 6.25596 28.4174 6.30538 28.442 6.36017C28.4665 6.41497 28.48 6.47405 28.4817 6.53406C28.4834 6.59407 28.4732 6.65383 28.4518 6.70992C28.4304 6.76601 28.3982 6.81734 28.357 6.86097L24.5024 10.9392C24.4596 10.9844 24.4081 11.0204 24.3509 11.045C24.2938 11.0695 24.2322 11.0822 24.17 11.0821V11.0821Z" fill="#10CD00"/>
<path d="M10.7762 34.2397C10.6869 34.2397 10.5996 34.2135 10.525 34.1645C10.4505 34.1154 10.3919 34.0455 10.3566 33.9635C10.3213 33.8816 10.3107 33.791 10.3263 33.7031C10.3418 33.6152 10.3828 33.5338 10.4441 33.4689L16.7578 26.7877C16.8411 26.6996 16.9559 26.6481 17.0771 26.6447C17.1983 26.6413 17.3159 26.6861 17.404 26.7694C17.4922 26.8527 17.5436 26.9676 17.547 27.0888C17.5504 27.2099 17.5056 27.3275 17.4223 27.4157L11.1086 34.0968C11.0658 34.142 11.0143 34.178 10.9571 34.2026C10.9 34.2272 10.8384 34.2398 10.7762 34.2397V34.2397Z" fill="#10CD00"/>
<path d="M4.87224 31.1863C4.78296 31.1863 4.69566 31.1601 4.62109 31.111C4.54652 31.0619 4.48796 30.9921 4.45264 30.9101C4.41732 30.8281 4.40678 30.7376 4.42233 30.6497C4.43788 30.5618 4.47883 30.4803 4.54013 30.4154L9.18143 25.5045C9.22266 25.4609 9.27209 25.4258 9.32688 25.4012C9.38167 25.3767 9.44076 25.3632 9.50077 25.3615C9.56078 25.3598 9.62053 25.37 9.67662 25.3913C9.73271 25.4127 9.78404 25.445 9.82767 25.4862C9.87131 25.5274 9.90639 25.5769 9.93092 25.6317C9.95546 25.6865 9.96896 25.7455 9.97066 25.8055C9.97235 25.8656 9.96221 25.9253 9.94082 25.9814C9.91942 26.0375 9.88719 26.0888 9.84595 26.1325L5.20465 31.0431C5.16191 31.0883 5.11038 31.1244 5.05322 31.149C4.99606 31.1736 4.93448 31.1863 4.87224 31.1863V31.1863Z" fill="#10CD00"/>
<path d="M3.1992 32.9562C3.10993 32.9562 3.02262 32.93 2.94806 32.8809C2.87349 32.8318 2.81493 32.762 2.77961 32.68C2.74429 32.598 2.73375 32.5075 2.74929 32.4196C2.76484 32.3316 2.80579 32.2502 2.86709 32.1853L3.41309 31.6064C3.49701 31.5213 3.61095 31.4724 3.73047 31.4703C3.85 31.4682 3.96559 31.513 4.05248 31.5951C4.13937 31.6772 4.19063 31.79 4.19527 31.9095C4.19991 32.029 4.15757 32.1455 4.07731 32.2341L3.53131 32.813C3.48861 32.8582 3.43713 32.8942 3.38002 32.9188C3.32292 32.9435 3.26139 32.9562 3.1992 32.9562V32.9562Z" fill="#10CD00"/>
<path d="M24.1824 4.40965C23.9445 4.374 23.6507 4.13878 23.6861 3.90052C23.7214 3.66225 23.6867 3.28261 24.1617 3.24239C24.4015 3.22259 24.9195 3.45232 24.8095 3.92672C24.8035 4.00103 24.782 4.07327 24.7465 4.13879C24.7109 4.20431 24.662 4.26166 24.603 4.30715C24.5439 4.35263 24.476 4.38525 24.4035 4.40291C24.3311 4.42056 24.2558 4.42286 24.1824 4.40965V4.40965Z" fill="#10CD00"/>
<path d="M6.56755 14.9041C6.32959 14.8684 6.03617 14.6332 6.07152 14.3952C6.10686 14.1573 6.07152 13.7776 6.54713 13.738C6.78662 13.7179 7.30459 13.9477 7.19429 14.4217C7.18828 14.496 7.16681 14.5682 7.13124 14.6336C7.09568 14.6991 7.04681 14.7563 6.98777 14.8018C6.92874 14.8472 6.86086 14.8798 6.78849 14.8974C6.71611 14.915 6.64085 14.9173 6.56755 14.9041V14.9041Z" fill="#10CD00"/>
<path d="M17.0015 34.8811C16.7072 34.8372 16.344 34.5459 16.3879 34.2519C16.4318 33.9579 16.3879 33.4881 16.9759 33.439C17.2724 33.414 17.9129 33.6983 17.7764 34.2845C17.769 34.3763 17.7425 34.4656 17.6985 34.5465C17.6545 34.6275 17.5941 34.6983 17.5212 34.7545C17.4482 34.8107 17.3642 34.851 17.2747 34.8728C17.1853 34.8946 17.0922 34.8974 17.0015 34.8811V34.8811Z" fill="#10CD00"/>
</g>
<defs>
<clipPath id="clip0_1146_836">
<rect width="39" height="39" fill="white" transform="translate(0 0.5)"/>
</clipPath>
</defs>
</svg>
