<svg width="47" height="46" viewBox="0 0 47 46" fill="none" xmlns="http://www.w3.org/2000/svg">
<path d="M36.3466 20.2654C35.9137 17.82 34.7924 15.5487 33.1143 13.7181C31.4361 11.8875 29.2707 10.5734 26.872 9.9301C24.4734 9.28676 21.941 9.34083 19.572 10.086C17.203 10.8311 15.0956 12.2364 13.4971 14.137C12.0464 13.9616 10.6674 13.843 9.40027 13.797C4.67449 13.6263 2.05716 14.3652 1.62016 15.9971C1.03654 18.1767 4.91707 20.8896 10.4755 23.3237C10.4755 23.3646 10.4755 23.4056 10.4798 23.4466C10.67 26.165 11.7067 28.7557 13.4446 30.8547C15.1825 32.9538 17.5341 34.4558 20.1693 35.1499C22.8046 35.844 25.591 35.6953 28.1374 34.7246C30.6838 33.754 32.8622 32.0102 34.3668 29.7382C35.6246 29.8783 36.8195 29.9707 37.9336 30.0113C38.3799 30.0278 38.8073 30.036 39.2158 30.0357C43.133 30.0357 45.3176 29.2893 45.7137 27.8116C46.3153 25.5658 42.1767 22.7537 36.3466 20.2654ZM36.3656 24.7098C37.1777 25.0281 37.9548 25.4293 38.6847 25.9069C37.8325 25.9571 36.9774 25.9187 36.1331 25.7922C36.2263 25.4326 36.3038 25.0718 36.3656 24.7098ZM19.5149 11.2444C21.0221 12.8443 26.3624 14.1021 30.1333 14.1021C30.7224 14.1059 31.3109 14.0669 31.8943 13.9853C32.9803 15.0579 33.8514 16.3281 34.4609 17.7275C30.2509 18.5961 25.7145 17.7861 20.6167 15.2503C19.0316 14.4443 17.3387 13.8705 15.5901 13.5465C16.7406 12.5372 18.0725 11.756 19.5149 11.2444V11.2444ZM20.4025 34.0927C18.7291 33.6436 17.1731 32.8367 15.8418 31.7278C14.5105 30.6189 13.4356 29.2343 12.6914 27.6696C14.709 29.3425 18.3483 31.4204 23.6861 31.9523C24.8635 32.0694 25.8952 32.1122 26.8048 32.1122C27.986 32.1059 29.1662 32.0395 30.3407 31.9131C30.5746 31.8905 30.7913 31.8703 30.9976 31.8531C29.5322 33.0334 27.809 33.8514 25.9681 34.2406C24.1271 34.6297 22.2203 34.5791 20.4025 34.0927V34.0927ZM44.6722 27.5327C44.4609 28.3204 42.5904 29.1024 37.9724 28.9342C33.6958 28.7786 28.1974 27.85 22.4833 26.3194C16.7693 24.7888 11.5443 22.8428 7.76332 20.8393C3.6801 18.6762 2.45104 17.0637 2.66199 16.276C2.87294 15.4882 4.74169 14.7059 9.36146 14.8744C10.4159 14.9129 11.5504 15.0023 12.7396 15.1332C12.3439 15.7111 11.9959 16.3204 11.6992 16.9548C7.99763 16.492 7.51355 16.9947 7.3734 17.5173C7.21886 18.0923 7.43521 18.857 11.9878 20.6341C15.6158 22.0007 19.313 23.1763 23.0641 24.156C26.8023 25.1833 30.5917 26.0144 34.4167 26.6457C35.6156 26.8506 36.8277 26.9689 38.0435 26.9997C39.5889 26.9997 39.8702 26.6317 39.9716 26.2533C40.1117 25.7304 39.941 25.0519 36.5033 23.6018C36.5607 22.9017 36.5615 22.198 36.5054 21.4977C37.6051 21.9814 38.6344 22.4738 39.5712 22.9711C43.6541 25.1324 44.8828 26.7449 44.6722 27.5327ZM11.2654 17.9852C11.1382 18.3292 11.0252 18.6802 10.9265 19.0381C10.1344 18.726 9.37652 18.3331 8.66499 17.8655C9.5336 17.8147 10.4052 17.8548 11.2654 17.9852V17.9852Z" fill="#10CD00"/>
</svg>
