<svg width="47" height="46" viewBox="0 0 47 46" fill="none" xmlns="http://www.w3.org/2000/svg">
<path d="M25.4524 44.008C25.8589 43.6717 26.3716 43.4906 26.8992 43.497C28.8531 43.5228 31.2304 42.2481 31.7993 38.318C32.2694 35.0707 31.5305 30.8268 29.2578 28.9186C27.4401 27.3926 24.2115 27.4451 22.5458 29.6247C22.269 29.9863 21.8929 30.2595 21.4636 30.4111C21.0342 30.5628 20.57 30.5862 20.1275 30.4786C17.4624 29.8281 14.9173 31.8155 14.4613 34.1449C13.8909 37.0559 15.9814 40.8236 18.3863 43.0553C21.2973 45.7563 23.948 45.2554 25.4524 44.008Z" fill="#10CD00"/>
<path d="M18.2124 28.5499C18.7303 28.4985 19.2047 28.0109 18.5646 27.5171C17.4959 26.6905 16.4839 25.6483 15.5559 26.1874C15.4055 26.2708 15.2769 26.3886 15.1809 26.5313C15.0848 26.674 15.024 26.8374 15.0034 27.0082C14.9828 27.179 15.0031 27.3522 15.0624 27.5136C15.1218 27.6751 15.2187 27.8201 15.345 27.9368C16.0073 28.4935 17.2145 28.6506 18.2124 28.5499Z" fill="#10CD00"/>
<path d="M21.7089 23.469C21.5818 23.3485 21.4174 23.2749 21.2428 23.2606C21.0683 23.2463 20.894 23.2921 20.749 23.3903C19.5451 24.0372 18.9421 27.4513 20.4748 29.3146C21.1282 30.1092 21.8135 29.4828 21.5228 28.8532C20.0659 25.6979 22.6354 24.3143 21.7089 23.469Z" fill="#10CD00"/>
<path d="M27.6328 22.5023C27.4898 22.5023 27.3527 22.4455 27.2516 22.3444C27.1505 22.2433 27.0938 22.1062 27.0938 21.9632V4.3125C27.0938 4.16953 27.1505 4.03242 27.2516 3.93133C27.3527 3.83023 27.4898 3.77344 27.6328 3.77344C27.7758 3.77344 27.9129 3.83023 28.014 3.93133C28.1151 4.03242 28.1719 4.16953 28.1719 4.3125V21.9632C28.1719 22.1062 28.1151 22.2433 28.014 22.3444C27.9129 22.4455 27.7758 22.5023 27.6328 22.5023V22.5023Z" fill="#10CD00"/>
<path d="M27.6328 2.69531C27.4898 2.69531 27.3527 2.63852 27.2516 2.53742C27.1505 2.43633 27.0938 2.29922 27.0938 2.15625V1.39258C27.0938 1.24961 27.1505 1.1125 27.2516 1.0114C27.3527 0.91031 27.4898 0.853516 27.6328 0.853516C27.7758 0.853516 27.9129 0.91031 28.014 1.0114C28.1151 1.1125 28.1719 1.24961 28.1719 1.39258V2.15625C28.1719 2.29922 28.1151 2.43633 28.014 2.53742C27.9129 2.63852 27.7758 2.69531 27.6328 2.69531Z" fill="#10CD00"/>
<path d="M16.3125 22.0688C16.1695 22.0688 16.0324 22.012 15.9313 21.9109C15.8302 21.8098 15.7734 21.6727 15.7734 21.5298V4.25244C15.7734 4.10947 15.8302 3.97236 15.9313 3.87127C16.0324 3.77017 16.1695 3.71338 16.3125 3.71338C16.4555 3.71338 16.5926 3.77017 16.6937 3.87127C16.7948 3.97236 16.8516 4.10947 16.8516 4.25244V21.5298C16.8516 21.6727 16.7948 21.8098 16.6937 21.9109C16.5926 22.012 16.4555 22.0688 16.3125 22.0688V22.0688Z" fill="#10CD00"/>
<path d="M16.3125 2.27586C16.1695 2.27586 16.0324 2.21907 15.9313 2.11798C15.8302 2.01688 15.7734 1.87977 15.7734 1.7368V0.959473C15.7734 0.816504 15.8302 0.679392 15.9313 0.578298C16.0324 0.477204 16.1695 0.42041 16.3125 0.42041C16.4555 0.42041 16.5926 0.477204 16.6937 0.578298C16.7948 0.679392 16.8516 0.816504 16.8516 0.959473V1.7368C16.8516 1.87977 16.7948 2.01688 16.6937 2.11798C16.5926 2.21907 16.4555 2.27586 16.3125 2.27586V2.27586Z" fill="#10CD00"/>
<path d="M11.0415 29.9155C10.8985 29.9155 10.7614 29.8587 10.6603 29.7576C10.5592 29.6565 10.5024 29.5194 10.5024 29.3764V10.916C10.5024 10.773 10.5592 10.6359 10.6603 10.5348C10.7614 10.4337 10.8985 10.377 11.0415 10.377C11.1845 10.377 11.3216 10.4337 11.4227 10.5348C11.5238 10.6359 11.5806 10.773 11.5806 10.916V29.3764C11.5806 29.5194 11.5238 29.6565 11.4227 29.7576C11.3216 29.8587 11.1845 29.9155 11.0415 29.9155V29.9155Z" fill="#10CD00"/>
<path d="M11.0415 9.88281C10.8985 9.88281 10.7614 9.82602 10.6603 9.72492C10.5592 9.62383 10.5024 9.48672 10.5024 9.34375V8.80469C10.5024 8.66172 10.5592 8.52461 10.6603 8.42351C10.7614 8.32242 10.8985 8.26562 11.0415 8.26562C11.1845 8.26562 11.3216 8.32242 11.4227 8.42351C11.5238 8.52461 11.5806 8.66172 11.5806 8.80469V9.34375C11.5806 9.48672 11.5238 9.62383 11.4227 9.72492C11.3216 9.82602 11.1845 9.88281 11.0415 9.88281V9.88281Z" fill="#10CD00"/>
<path d="M32.125 28.3579C31.982 28.3579 31.8449 28.3011 31.7438 28.2C31.6427 28.0989 31.5859 27.9618 31.5859 27.8189V10.4219C31.5859 10.2789 31.6427 10.1418 31.7438 10.0407C31.8449 9.93961 31.982 9.88281 32.125 9.88281C32.268 9.88281 32.4051 9.93961 32.5062 10.0407C32.6073 10.1418 32.6641 10.2789 32.6641 10.4219V27.8189C32.6641 27.9618 32.6073 28.0989 32.5062 28.2C32.4051 28.3011 32.268 28.3579 32.125 28.3579Z" fill="#10CD00"/>
<path d="M32.125 8.66986C31.982 8.66986 31.8449 8.61307 31.7438 8.51198C31.6427 8.41088 31.5859 8.27377 31.5859 8.1308V7.24854C31.5859 7.10557 31.6427 6.96845 31.7438 6.86736C31.8449 6.76627 31.982 6.70947 32.125 6.70947C32.268 6.70947 32.4051 6.76627 32.5062 6.86736C32.6073 6.96845 32.6641 7.10557 32.6641 7.24854V8.1308C32.6641 8.27377 32.6073 8.41088 32.5062 8.51198C32.4051 8.61307 32.268 8.66986 32.125 8.66986Z" fill="#10CD00"/>
<path d="M21.9651 18.3177C21.8221 18.3177 21.685 18.2609 21.5839 18.1598C21.4828 18.0587 21.426 17.9216 21.426 17.7786V4.88135C21.426 4.73838 21.4828 4.60127 21.5839 4.50017C21.685 4.39908 21.8221 4.34229 21.9651 4.34229C22.1081 4.34229 22.2452 4.39908 22.3463 4.50017C22.4474 4.60127 22.5042 4.73838 22.5042 4.88135V17.7786C22.5042 17.9216 22.4474 18.0587 22.3463 18.1598C22.2452 18.2609 22.1081 18.3177 21.9651 18.3177Z" fill="#10CD00"/>
<path d="M21.9651 3.38423C21.8221 3.38423 21.685 3.32744 21.5839 3.22635C21.4828 3.12525 21.426 2.98814 21.426 2.84517V1.70703C21.426 1.56406 21.4828 1.42695 21.5839 1.32586C21.685 1.22476 21.8221 1.16797 21.9651 1.16797C22.1081 1.16797 22.2452 1.22476 22.3463 1.32586C22.4474 1.42695 22.5042 1.56406 22.5042 1.70703V2.84517C22.5042 2.98814 22.4474 3.12525 22.3463 3.22635C22.2452 3.32744 22.1081 3.38423 21.9651 3.38423V3.38423Z" fill="#10CD00"/>
<path d="M34.4288 38.7525C34.3935 38.7525 34.3582 38.7491 34.3235 38.7424C34.1833 38.7147 34.0598 38.6324 33.9802 38.5137C33.9006 38.3949 33.8714 38.2494 33.8991 38.1092C33.9038 38.0862 34.3447 35.7668 33.4391 34.1259C33.4049 34.0639 33.3833 33.9958 33.3754 33.9254C33.3675 33.8551 33.3736 33.7838 33.3933 33.7158C33.4129 33.6478 33.4458 33.5843 33.49 33.529C33.5342 33.4737 33.5888 33.4277 33.6508 33.3935C33.7128 33.3593 33.7809 33.3376 33.8512 33.3298C33.9216 33.3219 33.9928 33.328 34.0608 33.3476C34.1288 33.3673 34.1923 33.4001 34.2476 33.4443C34.3029 33.4885 34.349 33.5431 34.3832 33.6051C35.4814 35.5954 34.9787 38.2084 34.9582 38.3191C34.9337 38.4414 34.8676 38.5515 34.7711 38.6305C34.6745 38.7095 34.5536 38.7526 34.4288 38.7525V38.7525Z" fill="#10CD00"/>
<path d="M14.8031 44.8475C14.7093 44.8472 14.6171 44.8224 14.5357 44.7756C13.3807 44.1143 12.0323 43.1088 11.8544 41.1818C11.8458 41.1103 11.8517 41.0378 11.8715 40.9686C11.8914 40.8994 11.925 40.8349 11.9702 40.7788C12.0154 40.7228 12.0714 40.6764 12.1349 40.6424C12.1983 40.6083 12.268 40.5874 12.3397 40.5807C12.4114 40.574 12.4837 40.5818 12.5523 40.6035C12.621 40.6252 12.6846 40.6605 12.7394 40.7072C12.7942 40.754 12.8391 40.8112 12.8714 40.8755C12.9037 40.9399 12.9228 41.0101 12.9275 41.0819C13.0591 42.5015 14.0355 43.2457 15.0712 43.8383C15.174 43.8975 15.2545 43.989 15.3 44.0986C15.3456 44.2081 15.3537 44.3296 15.3232 44.4443C15.2926 44.559 15.2251 44.6603 15.1311 44.7327C15.0371 44.8051 14.9218 44.8444 14.8031 44.8446V44.8475Z" fill="#10CD00"/>
<path d="M11.3755 45.0616C11.2998 45.0615 11.2249 45.0454 11.1558 45.0144C11.0867 44.9835 11.0249 44.9383 10.9744 44.8819C10.3225 44.0772 9.91226 43.1041 9.79135 42.0755C9.78234 42.0041 9.78772 41.9317 9.80715 41.8624C9.82659 41.7932 9.85969 41.7285 9.9045 41.6722C9.94932 41.616 10.0049 41.5692 10.0681 41.5348C10.1313 41.5003 10.2007 41.4789 10.2722 41.4717C10.3438 41.4645 10.4161 41.4717 10.4849 41.4929C10.5536 41.5141 10.6174 41.5488 10.6726 41.595C10.7277 41.6412 10.773 41.698 10.8058 41.762C10.8386 41.826 10.8583 41.896 10.8637 41.9677C10.9661 42.7669 11.2811 43.524 11.7758 44.1599C11.8451 44.2374 11.8905 44.3332 11.9066 44.4359C11.9227 44.5386 11.9087 44.6437 11.8664 44.7387C11.8241 44.8336 11.7553 44.9143 11.6682 44.971C11.5811 45.0277 11.4794 45.058 11.3755 45.0583V45.0616Z" fill="#10CD00"/>
</svg>
