<svg width="32" height="32" viewBox="0 0 32 32" fill="none" xmlns="http://www.w3.org/2000/svg">
<g clip-path="url(#clip0_1146_993)">
<path d="M31.2578 15.5397C31.1865 12.9963 30.4779 10.5115 29.1969 8.31301C27.916 6.11456 26.1038 4.2728 23.9263 2.95657H23.9248L23.9144 2.95003C20.5581 0.909307 16.5423 0.246255 12.7081 1.09971C12.5355 1.13798 11.7624 1.34045 11.6222 1.38235C10.9149 1.59245 10.2239 1.85406 9.55486 2.1651C9.45508 2.2116 8.86947 2.50004 8.77792 2.54921C6.43572 3.80123 4.46219 5.64474 3.0537 7.89632C1.6452 10.1479 0.850839 12.7291 0.749648 15.383C0.749648 15.3856 0.749648 15.3883 0.749648 15.3912C0.742141 15.5934 0.736328 15.7961 0.736328 15.9998C0.736949 16.7696 0.79597 17.5383 0.912883 18.2991C0.924508 18.3745 0.983602 18.7193 0.99232 18.7666C1.42778 21.1292 2.4174 23.3549 3.87992 25.2608C3.91334 25.3044 4.13349 25.5841 4.15674 25.6127C5.02739 26.6831 6.03806 27.6316 7.16156 28.4325C7.1807 28.4461 7.39866 28.5999 7.42361 28.6168C10.3521 30.614 13.8858 31.5267 17.4152 31.1977C20.9446 30.8686 24.2486 29.3183 26.7574 26.8142C26.8003 26.7716 27.0643 26.4982 27.0965 26.4643C28.8994 24.5575 30.1797 22.2178 30.8136 19.6714C30.8175 19.6549 30.8862 19.3565 30.8993 19.3018C31.1409 18.2177 31.263 17.1105 31.2636 15.9998C31.2636 15.846 31.2633 15.6922 31.2578 15.5397ZM24.3368 5.95703C25.1006 6.14957 25.3741 7.01563 24.7928 7.39804C24.2116 7.78046 23.709 7.04832 23.5669 6.74414C23.5348 6.63649 23.5321 6.52222 23.559 6.41318C23.586 6.30415 23.6416 6.2043 23.7202 6.124C23.7987 6.04371 23.8973 5.98588 24.0057 5.95652C24.1141 5.92716 24.2284 5.92734 24.3368 5.95703V5.95703ZM21.8125 14.2035C20.9389 14.4963 20.6928 14.1793 19.431 14.002C18.8289 13.9177 18.4543 14.1715 18.1065 14.4082C17.9591 14.5076 17.7913 14.5728 17.6154 14.599C17.4395 14.6252 17.2599 14.6117 17.0899 14.5595C16.9199 14.5073 16.7637 14.4177 16.6328 14.2973C16.5019 14.1769 16.3996 14.0288 16.3334 13.8637C15.7658 12.474 15.0859 11.8151 15.3744 10.7928C15.6628 9.77051 16.9673 9.37381 18.1796 9.23867C19.0479 9.14179 19.9316 8.33942 20.5611 8.72789C21.4659 9.28614 21.3886 10.1268 21.106 11.0955C20.8234 12.0643 23.3256 13.6966 21.8125 14.2035ZM21.4177 17.0596C21.5516 16.6455 22.4949 15.5397 23.7257 15.9998C24.5099 16.2938 25.476 16.8777 25.0689 18.2752C24.8691 18.9613 23.1246 19.5496 22.3731 19.2228C21.6216 18.8961 21.238 17.615 21.4177 17.0596ZM12.4737 1.89312C16.1401 0.981529 20.0172 1.53018 23.2866 3.42326C23.0503 3.86356 22.3971 3.96431 21.4148 4.06239C20.9781 4.09407 20.5446 4.16023 20.1184 4.26026C19.8436 4.34641 19.5769 4.45646 19.3213 4.58915C18.5635 4.95243 17.7047 5.36415 16.6698 4.9178C16.2402 4.73277 16.121 4.44335 15.983 4.10817C15.7064 3.43634 15.3579 2.90256 13.8927 3.17284C13.4621 3.25276 12.8881 3.26221 12.6011 2.858C12.5113 2.71598 12.4533 2.55615 12.4313 2.38956C12.4094 2.22297 12.4238 2.05358 12.4737 1.89312V1.89312ZM12.9467 6.33242C13.6137 6.25661 14.4795 6.90495 14.4277 7.70998C14.3771 8.49733 12.7808 9.26894 12.0598 8.21349C11.4953 7.38666 12.1804 6.41985 12.9467 6.33242ZM9.38654 3.05053L9.41076 3.03939C9.5365 3.05993 9.65594 3.10875 9.76006 3.18217C9.86419 3.25558 9.95029 3.35168 10.0119 3.46322C10.0562 3.59653 10.0714 3.7378 10.0564 3.87749C10.0414 4.01717 9.99656 4.15201 9.92492 4.27285C9.6125 4.78314 8.7118 5.04785 7.98742 5.26171C7.44807 5.42058 6.98259 5.55766 6.71134 5.79089L6.55464 5.92482C5.80265 6.55789 4.40305 7.73614 4.95475 8.76083C5.10444 8.98861 5.298 9.1843 5.52411 9.33648C5.75023 9.48867 6.00439 9.59431 6.27177 9.64724C6.45856 9.69794 6.65415 9.70741 6.84497 9.675C7.03579 9.64259 7.21729 9.56907 7.37687 9.45954C7.6342 9.28876 7.93604 9.19735 8.24489 9.19666C8.55374 9.19597 8.85598 9.28604 9.11408 9.45567C9.59191 9.78625 10.1235 10.4772 10.1199 10.9069C10.1216 10.9656 10.1073 11.0238 10.0784 11.075C10.0495 11.1262 10.0071 11.1686 9.95592 11.1975C9.4815 11.4594 8.96714 11.6412 8.43353 11.7356C7.92833 11.8567 7.49215 11.9599 7.23252 12.1793C6.8803 12.5107 6.65896 12.9577 6.60889 13.4387C6.50959 14.0178 5.62222 14.1749 4.76827 14.2527C4.12945 14.3021 3.52101 14.5457 3.02452 14.9507C2.60529 15.2561 2.33719 15.4486 1.49292 15.1444C1.63602 12.6143 2.44022 10.1661 3.82524 8.04392C5.21026 5.92179 7.12766 4.20004 9.38605 3.05053H9.38654ZM4.99931 22.9557C4.63364 23.3717 4.33366 23.8412 4.10976 24.3478C2.96658 22.7288 2.16844 20.8922 1.7649 18.9518C4.96904 19.4728 5.09377 19.9976 5.39771 21.2962C5.44615 21.5033 5.49822 21.7266 5.56458 21.9683C5.62101 22.1778 5.30471 22.5733 4.99931 22.9557ZM6.32335 25.983C5.57887 25.7251 5.38148 24.8387 5.99373 24.5081C6.60598 24.1775 7.04313 24.9501 7.15841 25.2661C7.18075 25.3761 7.17332 25.4899 7.1369 25.596C7.10049 25.7021 7.0364 25.7965 6.95126 25.8695C6.86612 25.9425 6.76303 25.9915 6.65264 26.0113C6.54225 26.0311 6.42857 26.0211 6.32335 25.9823V25.983ZM6.55464 18.2703C6.09448 17.6053 6.74088 15.9657 7.82637 16.1909C9.25527 16.6658 9.29451 17.334 8.605 18.3057C7.88667 19.3178 6.94045 18.8278 6.55464 18.2703ZM16 30.5369C13.1107 30.5404 10.2867 29.6779 7.89248 28.0608C8.06686 27.3119 8.65901 26.9171 9.2388 26.5388C9.51391 26.373 9.77175 26.1801 10.0085 25.9629C10.0518 25.9198 10.1821 25.7692 10.1821 25.7692C10.7811 25.0496 11.5265 24.1543 10.4231 22.6023C10.3186 22.4772 10.247 22.3279 10.2148 22.1681C10.1825 22.0083 10.1906 21.843 10.2383 21.6871C10.4345 21.0923 11.2555 20.4815 12.3284 20.1308C12.8324 19.9664 13.2838 19.5583 13.7617 19.1265C14.4802 18.4772 15.2233 17.8056 16.2593 17.7569C17.6773 17.6871 18.5466 18.9843 19.1787 19.9295C19.3266 20.1624 19.4884 20.3863 19.663 20.5999C19.6997 20.6367 19.7281 20.6808 19.7463 20.7295C19.7645 20.7781 19.772 20.83 19.7684 20.8818C19.7384 21.2705 19.1782 21.7406 18.9934 21.8951L18.9609 21.9225C18.0997 22.6491 17.9256 23.7578 18.47 25.0433C18.7626 25.7343 19.812 25.4621 20.8268 25.1995C21.115 25.125 21.3872 25.0542 21.6017 25.0174C22.4615 24.8692 22.6119 24.2068 22.7112 23.7682C22.7351 23.6336 22.7747 23.5024 22.8294 23.3771C23.0798 22.906 23.6129 22.3328 24.0113 22.5323C24.6289 22.8409 26.3745 24.611 26.3276 26.2201C24.9783 27.5884 23.3704 28.6747 21.5973 29.4158C19.8243 30.1569 17.9216 30.538 16 30.5369V30.5369ZM26.7565 22.9487C25.8478 22.4539 26.4562 21.2817 26.7565 20.8818C26.8752 20.7643 27.0232 20.6807 27.1852 20.6397C27.3472 20.5987 27.5172 20.6019 27.6775 20.6488C27.8379 20.6958 27.9827 20.7849 28.097 20.9068C28.2112 21.0287 28.2908 21.1789 28.3273 21.342C28.6099 22.4778 27.6654 23.4432 26.7565 22.9487V22.9487ZM30.2406 18.9337L30.0902 18.8554C29.3183 18.4541 28.1527 17.8477 27.623 17.1187C27.2549 16.6101 27.144 15.9134 27.0268 15.1749C26.9579 14.5516 26.8018 13.9411 26.5632 13.3612C26.3695 12.9495 25.8328 12.5782 25.2125 12.1483C24.4177 11.5978 23.4288 10.9132 23.6158 10.3404C23.762 10.0085 24.0062 9.7293 24.3156 9.54018C24.6251 9.35105 24.9849 9.26106 25.3469 9.28226C25.6662 9.34024 25.9772 9.43703 26.2731 9.57046C26.8829 9.80853 27.4094 10.0137 27.7942 9.81265C28.1914 9.64707 28.5247 9.35789 28.7446 8.988C29.8545 11.0054 30.4678 13.2583 30.5336 15.56V15.56C30.5382 15.7065 30.5382 15.8528 30.5382 15.9991C30.5387 16.9848 30.4389 17.9681 30.2406 18.9337V18.9337Z" fill="#10CD00"/>
</g>
<defs>
<clipPath id="clip0_1146_993">
<rect width="31" height="31" fill="white" transform="translate(0.5 0.5)"/>
</clipPath>
</defs>
</svg>
