<svg width="42" height="42" viewBox="0 0 42 42" fill="none" xmlns="http://www.w3.org/2000/svg">
<path d="M27.6371 23.7581C29.7505 23.7581 31.4637 22.0856 31.4637 20.0226C31.4637 17.9595 29.7505 16.2871 27.6371 16.2871C25.5238 16.2871 23.8105 17.9595 23.8105 20.0226C23.8105 22.0856 25.5238 23.7581 27.6371 23.7581Z" fill="#10CD00"/>
<path d="M36.1342 27.5839L36.4131 28.1355C36.4581 28.2245 36.5245 28.3015 36.6068 28.3598C36.6891 28.4181 36.7847 28.456 36.8853 28.4702L37.5087 28.5586C37.6246 28.575 37.7334 28.6228 37.8229 28.6964C37.9124 28.77 37.979 28.8667 38.0152 28.9753C38.0513 29.084 38.0557 29.2004 38.0276 29.3113C37.9996 29.4223 37.9403 29.5233 37.8565 29.6031L37.4067 30.033C37.3338 30.1023 37.2793 30.1879 37.2479 30.2824C37.2164 30.3769 37.209 30.4774 37.2262 30.5753L37.3325 31.1813C37.3524 31.2939 37.3395 31.4098 37.2955 31.5156C37.2514 31.6215 37.1778 31.7133 37.0831 31.7804C36.9884 31.8476 36.8762 31.8875 36.7595 31.8957C36.6427 31.9039 36.5259 31.88 36.4223 31.8267L35.8645 31.5407C35.7745 31.4945 35.6743 31.4703 35.5726 31.4703C35.4709 31.4703 35.3707 31.4945 35.2808 31.5407L34.7229 31.8267C34.6194 31.8799 34.5026 31.9037 34.3859 31.8955C34.2691 31.8873 34.1571 31.8473 34.0624 31.7802C33.9678 31.713 33.8942 31.6213 33.8501 31.5155C33.8061 31.4097 33.7932 31.2939 33.813 31.1813L33.9194 30.5753C33.9366 30.4774 33.9292 30.3768 33.8978 30.2824C33.8663 30.1879 33.8118 30.1023 33.7389 30.033L33.288 29.6038C33.2044 29.5241 33.1452 29.4233 33.1171 29.3126C33.089 29.2019 33.0931 29.0857 33.129 28.9772C33.1648 28.8686 33.2311 28.772 33.3201 28.6982C33.4092 28.6244 33.5177 28.5764 33.6332 28.5595L34.2567 28.4711C34.3573 28.4569 34.4529 28.419 34.5352 28.3607C34.6175 28.3024 34.6841 28.2254 34.7292 28.1364L35.0078 27.5848C35.0593 27.482 35.1394 27.3953 35.2389 27.3347C35.3384 27.274 35.4534 27.2418 35.5707 27.2417C35.688 27.2416 35.803 27.2736 35.9026 27.3341C36.0022 27.3946 36.0824 27.4811 36.1342 27.5839V27.5839Z" fill="#10CD00"/>
<path d="M6.48285 15.688L6.81327 16.3415C6.86645 16.4467 6.94499 16.5378 7.04214 16.6069C7.13929 16.6761 7.25216 16.7211 7.37108 16.7383L8.11002 16.8431C8.24729 16.8625 8.37624 16.9191 8.48229 17.0064C8.58834 17.0937 8.66725 17.2082 8.7101 17.337C8.75294 17.4657 8.75802 17.6037 8.72474 17.7351C8.69147 17.8666 8.62118 17.9863 8.52182 18.0808L7.9873 18.5894C7.90126 18.6714 7.83687 18.7725 7.79966 18.8841C7.76246 18.9956 7.75354 19.1144 7.77369 19.2301L7.89969 19.9482C7.92307 20.0813 7.90792 20.2181 7.85596 20.3433C7.80399 20.4685 7.71727 20.577 7.60556 20.6566C7.49384 20.7363 7.36157 20.7839 7.22362 20.7942C7.08568 20.8045 6.94754 20.7769 6.82475 20.7147L6.16391 20.3755C6.05726 20.3207 5.93857 20.2921 5.81807 20.2921C5.69756 20.2921 5.57887 20.3207 5.47222 20.3755L4.80974 20.7147C4.68699 20.7777 4.54864 20.8059 4.41033 20.7961C4.27203 20.7863 4.13928 20.739 4.02711 20.6594C3.91493 20.5798 3.8278 20.4712 3.77557 20.3458C3.72333 20.2204 3.70807 20.0832 3.73152 19.9498L3.85752 19.2317C3.87767 19.116 3.86875 18.9972 3.83155 18.8857C3.79434 18.7741 3.72995 18.673 3.64391 18.591L3.10939 18.0808C3.01003 17.9863 2.93974 17.8666 2.90647 17.7351C2.87319 17.6037 2.87827 17.4657 2.92111 17.337C2.96396 17.2082 3.04287 17.0937 3.14892 17.0064C3.25497 16.9191 3.38392 16.8625 3.52119 16.8431L4.2598 16.7383C4.37907 16.7214 4.49234 16.6765 4.58986 16.6073C4.68737 16.5382 4.76621 16.447 4.81958 16.3415L5.15 15.688C5.21138 15.5667 5.30633 15.4645 5.42409 15.393C5.54186 15.3216 5.67776 15.2837 5.81642 15.2837C5.95509 15.2837 6.09099 15.3216 6.20876 15.393C6.32652 15.4645 6.42147 15.5667 6.48285 15.688V15.688Z" fill="#10CD00"/>
<path d="M15.5757 22.9723L15.8054 23.4246C15.8423 23.4976 15.8969 23.5607 15.9643 23.6086C16.0317 23.6565 16.1101 23.6877 16.1926 23.6994L16.7042 23.7718C16.7991 23.7854 16.8883 23.8246 16.9617 23.885C17.035 23.9455 17.0896 24.0247 17.1192 24.1138C17.1489 24.2029 17.1524 24.2984 17.1295 24.3893C17.1065 24.4803 17.058 24.5632 16.9893 24.6287L16.6192 24.981C16.5595 25.0379 16.5148 25.108 16.489 25.1855C16.4633 25.2629 16.4571 25.3453 16.4712 25.4256L16.5585 25.9227C16.5747 26.0151 16.5641 26.11 16.528 26.1968C16.4918 26.2837 16.4315 26.3589 16.3538 26.4139C16.2761 26.469 16.1842 26.5018 16.0885 26.5086C15.9927 26.5153 15.897 26.4958 15.812 26.4522L15.3546 26.2174C15.2808 26.1795 15.1986 26.1597 15.1152 26.1597C15.0318 26.1597 14.9497 26.1795 14.8758 26.2174L14.4184 26.4522C14.3335 26.4958 14.2377 26.5153 14.1419 26.5086C14.0462 26.5018 13.9543 26.469 13.8766 26.4139C13.799 26.3589 13.7386 26.2837 13.7025 26.1968C13.6663 26.11 13.6557 26.0151 13.6719 25.9227L13.7592 25.4256C13.7734 25.3453 13.7673 25.2629 13.7415 25.1855C13.7157 25.108 13.671 25.0378 13.6112 24.981L13.2414 24.6287C13.1727 24.5632 13.124 24.4803 13.101 24.3893C13.0779 24.2983 13.0814 24.2028 13.1111 24.1137C13.1408 24.0245 13.1954 23.9453 13.2688 23.8848C13.3423 23.8244 13.4316 23.7853 13.5266 23.7718L14.0378 23.6994C14.1204 23.6877 14.1988 23.6565 14.2663 23.6086C14.3337 23.5607 14.3883 23.4976 14.4253 23.4246L14.655 22.9723C14.6977 22.8888 14.7634 22.8186 14.8447 22.7694C14.926 22.7203 15.0198 22.6943 15.1154 22.6943C15.211 22.6943 15.3047 22.7203 15.386 22.7694C15.4673 22.8186 15.533 22.8888 15.5757 22.9723V22.9723Z" fill="#10CD00"/>
<path d="M36.2608 8.07174L36.7956 9.02627C36.8381 9.10197 36.9018 9.16422 36.9794 9.20565L37.9572 9.72776C38.03 9.7667 38.0908 9.82404 38.1331 9.89378C38.1754 9.96352 38.1978 10.0431 38.1978 10.1241C38.1978 10.2052 38.1754 10.2848 38.1331 10.3545C38.0908 10.4242 38.03 10.4816 37.9572 10.5205L36.9794 11.0426C36.9018 11.0841 36.8381 11.1463 36.7956 11.222L36.2608 12.1765C36.2209 12.2476 36.1622 12.3069 36.0907 12.3483C36.0193 12.3896 35.9378 12.4114 35.8547 12.4114C35.7717 12.4114 35.6902 12.3896 35.6188 12.3483C35.5473 12.3069 35.4886 12.2476 35.4487 12.1765L34.9138 11.222C34.8714 11.1463 34.8076 11.0841 34.7301 11.0426L33.7523 10.5205C33.6795 10.4816 33.6187 10.4242 33.5764 10.3545C33.534 10.2848 33.5117 10.2052 33.5117 10.1241C33.5117 10.0431 33.534 9.96352 33.5764 9.89378C33.6187 9.82404 33.6795 9.7667 33.7523 9.72776L34.7301 9.20565C34.8076 9.16422 34.8714 9.10197 34.9138 9.02627L35.4487 8.07174C35.4886 8.00065 35.5473 7.94134 35.6188 7.90003C35.6902 7.85871 35.7717 7.83691 35.8547 7.83691C35.9378 7.83691 36.0193 7.85871 36.0907 7.90003C36.1622 7.94134 36.2209 8.00065 36.2608 8.07174V8.07174Z" fill="#10CD00"/>
<path d="M22.849 3.44704L23.2034 4.07966C23.2314 4.12999 23.2736 4.17136 23.3251 4.19882L23.9731 4.54475C24.0215 4.57053 24.0618 4.60854 24.0899 4.65479C24.118 4.70103 24.1328 4.7538 24.1328 4.80757C24.1328 4.86134 24.118 4.91411 24.0899 4.96035C24.0618 5.0066 24.0215 5.0446 23.9731 5.07039L23.3251 5.41632C23.2737 5.44375 23.2315 5.485 23.2034 5.53516L22.849 6.1697C22.8226 6.21688 22.7836 6.25625 22.7363 6.28368C22.6889 6.31111 22.6348 6.32558 22.5798 6.32558C22.5247 6.32558 22.4706 6.31111 22.4233 6.28368C22.3759 6.25625 22.3369 6.21688 22.3105 6.1697L21.9562 5.53708C21.9278 5.48697 21.8855 5.44576 21.8341 5.41825L21.1861 5.07231C21.1377 5.04653 21.0974 5.00852 21.0693 4.96228C21.0412 4.91603 21.0264 4.86326 21.0264 4.80949C21.0264 4.75573 21.0412 4.70295 21.0693 4.65671C21.0974 4.61046 21.1377 4.57246 21.1861 4.54668L21.8341 4.20074C21.8856 4.1732 21.928 4.13185 21.9562 4.08158L22.3105 3.44704C22.337 3.39995 22.376 3.36066 22.4233 3.3333C22.4707 3.30594 22.5247 3.2915 22.5798 3.2915C22.6348 3.2915 22.6888 3.30594 22.7362 3.3333C22.7835 3.36066 22.8225 3.39995 22.849 3.44704V3.44704Z" fill="#10CD00"/>
<path d="M10.1636 34.2096L10.5114 34.83C10.539 34.8792 10.5804 34.9197 10.6308 34.9466L11.2664 35.2858C11.3137 35.3112 11.3531 35.3485 11.3806 35.3938C11.408 35.4392 11.4225 35.4909 11.4225 35.5435C11.4225 35.5962 11.408 35.6479 11.3806 35.6932C11.3531 35.7386 11.3137 35.7759 11.2664 35.8012L10.6311 36.1404C10.5807 36.1674 10.5392 36.208 10.5117 36.2574L10.1639 36.8775C10.138 36.9237 10.0998 36.9623 10.0534 36.9892C10.0069 37.0161 9.95391 37.0302 9.89992 37.0302C9.84593 37.0302 9.79293 37.0161 9.74648 36.9892C9.70004 36.9623 9.66186 36.9237 9.63594 36.8775L9.28846 36.2574C9.26098 36.208 9.21951 36.1674 9.16902 36.1404L8.53344 35.8012C8.48607 35.7759 8.44655 35.7387 8.41902 35.6933C8.39148 35.648 8.37695 35.5963 8.37695 35.5435C8.37695 35.4908 8.39148 35.4391 8.41902 35.3938C8.44655 35.3484 8.48607 35.3111 8.53344 35.2858L9.16902 34.9466C9.21942 34.9197 9.26087 34.8792 9.28846 34.83L9.63594 34.2096C9.66188 34.1634 9.70005 34.1249 9.74646 34.0981C9.79288 34.0713 9.84582 34.0571 9.89976 34.0571C9.95369 34.0571 10.0066 34.0713 10.053 34.0981C10.0995 34.1249 10.1376 34.1634 10.1636 34.2096V34.2096Z" fill="#10CD00"/>
<path d="M12.5056 13.1426C13.281 13.1426 13.9097 12.529 13.9097 11.772C13.9097 11.015 13.281 10.4014 12.5056 10.4014C11.7302 10.4014 11.1016 11.015 11.1016 11.772C11.1016 12.529 11.7302 13.1426 12.5056 13.1426Z" fill="#10CD00"/>
<path d="M24.6882 36.9146C25.4637 36.9146 26.0923 36.3009 26.0923 35.544C26.0923 34.787 25.4637 34.1733 24.6882 34.1733C23.9128 34.1733 23.2842 34.787 23.2842 35.544C23.2842 36.3009 23.9128 36.9146 24.6882 36.9146Z" fill="#10CD00"/>
<path d="M18.8355 17.9549C19.5073 17.9549 20.0519 17.4233 20.0519 16.7675C20.0519 16.1117 19.5073 15.5801 18.8355 15.5801C18.1637 15.5801 17.6191 16.1117 17.6191 16.7675C17.6191 17.4233 18.1637 17.9549 18.8355 17.9549Z" fill="#10CD00"/>
<path d="M5.53873 8.54871C5.85513 8.54871 6.11163 8.29832 6.11163 7.98944C6.11163 7.68057 5.85513 7.43018 5.53873 7.43018C5.22232 7.43018 4.96582 7.68057 4.96582 7.98944C4.96582 8.29832 5.22232 8.54871 5.53873 8.54871Z" fill="#10CD00"/>
<path d="M35.5044 21.9814C36.0597 21.9814 36.5098 21.542 36.5098 21C36.5098 20.458 36.0597 20.0186 35.5044 20.0186C34.9491 20.0186 34.499 20.458 34.499 21C34.499 21.542 34.9491 21.9814 35.5044 21.9814Z" fill="#10CD00"/>
<path d="M32.3081 6.30891C32.8208 6.30891 33.2364 5.90321 33.2364 5.40275C33.2364 4.90229 32.8208 4.49658 32.3081 4.49658C31.7955 4.49658 31.3799 4.90229 31.3799 5.40275C31.3799 5.90321 31.7955 6.30891 32.3081 6.30891Z" fill="#10CD00"/>
<path d="M15.1147 6.2585C15.5302 6.2585 15.8671 5.92967 15.8671 5.52403C15.8671 5.11839 15.5302 4.78955 15.1147 4.78955C14.6992 4.78955 14.3623 5.11839 14.3623 5.52403C14.3623 5.92967 14.6992 6.2585 15.1147 6.2585Z" fill="#10CD00"/>
<path d="M5.81701 26.0708C6.31192 26.0708 6.71312 25.6792 6.71312 25.1961C6.71312 24.7129 6.31192 24.3213 5.81701 24.3213C5.3221 24.3213 4.9209 24.7129 4.9209 25.1961C4.9209 25.6792 5.3221 26.0708 5.81701 26.0708Z" fill="#10CD00"/>
<path d="M27.2472 28.9584C27.7327 28.9584 28.1263 28.5742 28.1263 28.1003C28.1263 27.6264 27.7327 27.2422 27.2472 27.2422C26.7617 27.2422 26.3682 27.6264 26.3682 28.1003C26.3682 28.5742 26.7617 28.9584 27.2472 28.9584Z" fill="#10CD00"/>
<path d="M16.2275 33.4062C16.6811 33.4062 17.0488 33.0473 17.0488 32.6045C17.0488 32.1617 16.6811 31.8027 16.2275 31.8027C15.774 31.8027 15.4062 32.1617 15.4062 32.6045C15.4062 33.0473 15.774 33.4062 16.2275 33.4062Z" fill="#10CD00"/>
<path d="M31.464 36.3952C31.9456 36.3952 32.3361 36.014 32.3361 35.5438C32.3361 35.0736 31.9456 34.6924 31.464 34.6924C30.9823 34.6924 30.5918 35.0736 30.5918 35.5438C30.5918 36.014 30.9823 36.3952 31.464 36.3952Z" fill="#10CD00"/>
<path d="M28.2659 13.1567C28.7811 13.1567 29.1987 12.749 29.1987 12.2461C29.1987 11.7432 28.7811 11.3354 28.2659 11.3354C27.7507 11.3354 27.333 11.7432 27.333 12.2461C27.333 12.749 27.7507 13.1567 28.2659 13.1567Z" fill="#10CD00"/>
</svg>
