<svg width="40" height="40" viewBox="0 0 40 40" fill="none" xmlns="http://www.w3.org/2000/svg">
<g clip-path="url(#clip0_1160_454)">
<path d="M5.86991 7.47144L6.15357 7.98941C6.17601 8.03061 6.20987 8.06447 6.25107 8.08691L6.76904 8.37027C6.80769 8.39142 6.83993 8.42258 6.86239 8.46048C6.88485 8.49838 6.8967 8.54163 6.8967 8.58568C6.8967 8.62974 6.88485 8.67298 6.86239 8.71088C6.83993 8.74878 6.80769 8.77994 6.76904 8.8011L6.25107 9.08445C6.20987 9.10689 6.17601 9.14075 6.15357 9.18195L5.86991 9.69992C5.84873 9.73849 5.81758 9.77066 5.77971 9.79307C5.74184 9.81548 5.69865 9.8273 5.65465 9.8273C5.61065 9.8273 5.56745 9.81548 5.52959 9.79307C5.49172 9.77066 5.46057 9.73849 5.43939 9.69992L5.15572 9.18195C5.13317 9.14083 5.09935 9.107 5.05822 9.08445L4.54025 8.8011C4.50161 8.77994 4.46937 8.74878 4.44691 8.71088C4.42445 8.67298 4.4126 8.62974 4.4126 8.58568C4.4126 8.54163 4.42445 8.49838 4.44691 8.46048C4.46937 8.42258 4.50161 8.39142 4.54025 8.37027L5.05822 8.08691C5.09935 8.06436 5.13317 8.03053 5.15572 7.98941L5.43939 7.47144C5.46015 7.43236 5.49115 7.39968 5.52907 7.37688C5.56699 7.35408 5.6104 7.34204 5.65465 7.34204C5.6989 7.34204 5.74231 7.35408 5.78023 7.37688C5.81815 7.39968 5.84915 7.43236 5.86991 7.47144Z" fill="#10CD00"/>
<path d="M32.2118 29.6624L32.4836 30.1597C32.5053 30.1991 32.5377 30.2315 32.5771 30.2532L33.0744 30.525C33.1114 30.5453 33.1423 30.5752 33.1639 30.6115C33.1854 30.6479 33.1968 30.6893 33.1968 30.7316C33.1968 30.7738 33.1854 30.8153 33.1639 30.8516C33.1423 30.888 33.1114 30.9179 33.0744 30.9382L32.5771 31.2099C32.5377 31.2316 32.5052 31.264 32.4836 31.3035L32.2118 31.8004C32.1915 31.8375 32.1616 31.8684 32.1253 31.8899C32.0889 31.9115 32.0475 31.9228 32.0052 31.9228C31.963 31.9228 31.9215 31.9115 31.8852 31.8899C31.8488 31.8684 31.8189 31.8375 31.7986 31.8004L31.5269 31.3035C31.5053 31.264 31.4728 31.2315 31.4333 31.2099L30.9364 30.9382C30.8993 30.9179 30.8684 30.888 30.8469 30.8516C30.8253 30.8153 30.814 30.7738 30.814 30.7316C30.814 30.6893 30.8253 30.6479 30.8469 30.6115C30.8684 30.5752 30.8993 30.5453 30.9364 30.525L31.4333 30.2532C31.4728 30.2316 31.5052 30.1991 31.5269 30.1597L31.7986 29.6624C31.8189 29.6254 31.8488 29.5945 31.8852 29.5729C31.9215 29.5514 31.963 29.54 32.0052 29.54C32.0475 29.54 32.0889 29.5514 32.1253 29.5729C32.1616 29.5945 32.1915 29.6254 32.2118 29.6624Z" fill="#10CD00"/>
<path d="M27.909 32.9162L28.3435 33.7108C28.3782 33.7739 28.43 33.8258 28.4931 33.8604L29.2877 34.2949C29.3469 34.3273 29.3964 34.375 29.4308 34.4331C29.4653 34.4911 29.4835 34.5574 29.4835 34.6249C29.4835 34.6924 29.4653 34.7587 29.4308 34.8167C29.3964 34.8748 29.3469 34.9225 29.2877 34.9549L28.4931 35.3894C28.43 35.4241 28.3782 35.4759 28.3435 35.539L27.909 36.3336C27.8766 36.3928 27.8289 36.4423 27.7708 36.4767C27.7128 36.5112 27.6465 36.5294 27.579 36.5294C27.5115 36.5294 27.4452 36.5112 27.3872 36.4767C27.3291 36.4423 27.2814 36.3928 27.249 36.3336L26.8145 35.539C26.7799 35.4759 26.728 35.4241 26.6649 35.3894L25.8703 34.9549C25.8111 34.9225 25.7616 34.8748 25.7272 34.8167C25.6927 34.7587 25.6746 34.6924 25.6746 34.6249C25.6746 34.5574 25.6927 34.4911 25.7272 34.4331C25.7616 34.375 25.8111 34.3273 25.8703 34.2949L26.6649 33.8604C26.728 33.8258 26.7799 33.7739 26.8145 33.7108L27.249 32.9162C27.2814 32.857 27.3291 32.8075 27.3872 32.7731C27.4452 32.7386 27.5115 32.7205 27.579 32.7205C27.6465 32.7205 27.7128 32.7386 27.7708 32.7731C27.8289 32.8075 27.8766 32.857 27.909 32.9162Z" fill="#10CD00"/>
<path d="M28.3106 11.2128L22.3796 16.7819C22.3537 16.8062 22.3217 16.8231 22.287 16.8308C22.2523 16.8386 22.2162 16.8368 22.1824 16.8258C22.1486 16.8148 22.1184 16.7949 22.0949 16.7682C22.0715 16.7415 22.0556 16.709 22.049 16.674L21.2949 12.6936C21.2861 12.6471 21.261 12.6052 21.2241 12.5756C21.1871 12.546 21.1408 12.5305 21.0935 12.5321C21.0462 12.5336 21.001 12.552 20.966 12.584C20.9311 12.616 20.9088 12.6594 20.9031 12.7064L20.3519 17.1969C20.3477 17.2312 20.3347 17.2638 20.314 17.2915C20.2934 17.3192 20.2658 17.341 20.2342 17.3548C20.2025 17.3686 20.1678 17.3739 20.1334 17.3701C20.0991 17.3664 20.0663 17.3537 20.0384 17.3334L16.7572 14.9538C16.7194 14.9263 16.6731 14.9131 16.6265 14.9165C16.5799 14.9198 16.5359 14.9395 16.5024 14.9721C16.4689 15.0046 16.448 15.048 16.4433 15.0945C16.4386 15.1409 16.4505 15.1876 16.4769 15.2262L18.8342 18.6899C18.8523 18.7165 18.8637 18.7472 18.8673 18.7792C18.8709 18.8112 18.8666 18.8436 18.8549 18.8736C18.8432 18.9036 18.8243 18.9303 18.8 18.9514C18.7756 18.9724 18.7465 18.9873 18.7151 18.9945L16.6432 19.4772C16.5987 19.4874 16.5591 19.5128 16.5311 19.5489C16.5031 19.585 16.4884 19.6296 16.4896 19.6753C16.4907 19.7209 16.5075 19.7648 16.5372 19.7995C16.5669 19.8342 16.6077 19.8575 16.6527 19.8656L18.5533 20.2099C18.5884 20.2163 18.6212 20.232 18.6481 20.2554C18.675 20.2788 18.6952 20.309 18.7064 20.3429C18.7176 20.3768 18.7194 20.413 18.7117 20.4479C18.704 20.4827 18.6871 20.5148 18.6627 20.5408L12.4035 27.2245C12.3705 27.2618 12.3527 27.3102 12.3538 27.36C12.3549 27.4099 12.3746 27.4575 12.4092 27.4934C12.4438 27.5293 12.4906 27.5509 12.5403 27.5538C12.5901 27.5568 12.6391 27.5409 12.6777 27.5093L19.6788 21.4037C19.7064 21.3796 19.7401 21.3636 19.7763 21.3575C19.8124 21.3514 19.8495 21.3554 19.8835 21.3691C19.9175 21.3828 19.947 21.4056 19.9688 21.4351C19.9906 21.4645 20.0038 21.4994 20.007 21.5359L20.3519 25.5085C20.356 25.5563 20.3774 25.6011 20.412 25.6344C20.4466 25.6677 20.4921 25.6873 20.5401 25.6895C20.5881 25.6918 20.6353 25.6766 20.6729 25.6467C20.7105 25.6168 20.736 25.5743 20.7446 25.527L21.397 21.954C21.4034 21.9184 21.4195 21.8852 21.4434 21.8581C21.4674 21.831 21.4983 21.8109 21.5328 21.8001C21.5673 21.7893 21.6041 21.7881 21.6392 21.7967C21.6744 21.8053 21.7065 21.8233 21.7321 21.8489L23.4816 23.5819C23.513 23.6131 23.5538 23.6329 23.5977 23.6382C23.6415 23.6436 23.6859 23.6341 23.7238 23.6113C23.7617 23.5885 23.7909 23.5537 23.8067 23.5125C23.8226 23.4712 23.8242 23.4259 23.8113 23.3836L23.0191 20.7569C23.0086 20.722 23.0079 20.685 23.017 20.6498C23.0261 20.6146 23.0447 20.5826 23.0708 20.5572C23.0968 20.5319 23.1293 20.5142 23.1648 20.506C23.2002 20.4978 23.2372 20.4996 23.2717 20.511L25.7138 21.3214C25.7576 21.336 25.8052 21.3348 25.8483 21.3181C25.8914 21.3013 25.9272 21.2701 25.9497 21.2297C25.9722 21.1893 25.9798 21.1423 25.9714 21.0969C25.9629 21.0514 25.9388 21.0104 25.9033 20.9808L23.9329 19.3355C23.9069 19.3134 23.8871 19.285 23.8752 19.253C23.8634 19.2211 23.86 19.1866 23.8654 19.1529C23.8707 19.1193 23.8847 19.0875 23.9058 19.0608C23.927 19.0341 23.9547 19.0133 23.9862 19.0003L25.8804 18.2417C25.9225 18.2249 25.9576 18.1943 25.9798 18.1549C26.0021 18.1155 26.0102 18.0696 26.0028 18.025C25.9954 17.9803 25.9729 17.9395 25.9391 17.9094C25.9053 17.8792 25.8623 17.8616 25.8171 17.8593L23.7336 17.7536C23.6967 17.7517 23.661 17.7396 23.6306 17.7185C23.6003 17.6975 23.5763 17.6684 23.5616 17.6345C23.5469 17.6006 23.5419 17.5633 23.5473 17.5267C23.5526 17.4901 23.5681 17.4558 23.5919 17.4275L28.5989 11.4861C28.6351 11.4479 28.6547 11.3969 28.6533 11.3442C28.6519 11.2915 28.6296 11.2416 28.5914 11.2054C28.5532 11.1691 28.5021 11.1495 28.4495 11.1509C28.3968 11.1523 28.3469 11.1746 28.3106 11.2128Z" fill="#10CD00"/>
<path d="M2.14902 39.0896C2.05696 39.0895 1.96707 39.0616 1.89112 39.0096C1.81517 38.9576 1.75671 38.8838 1.72338 38.798C1.69005 38.7122 1.68342 38.6183 1.70435 38.5286C1.72528 38.439 1.7728 38.3577 1.84068 38.2956L18.1981 23.3354C18.3163 23.2266 18.4661 23.1583 18.6257 23.1403C18.7853 23.1223 18.9465 23.1555 19.086 23.2352C19.1975 23.3026 19.2911 23.396 19.3587 23.5074C19.4263 23.6188 19.4659 23.7449 19.4742 23.875L20.32 33.1375C20.3266 33.1978 20.3211 33.2589 20.3038 33.3171C20.2866 33.3753 20.2579 33.4294 20.2195 33.4764C20.1811 33.5234 20.1338 33.5623 20.0802 33.5908C20.0266 33.6193 19.9678 33.6368 19.9074 33.6423C19.847 33.6479 19.786 33.6413 19.7281 33.6231C19.6703 33.6048 19.6166 33.5752 19.5703 33.536C19.524 33.4968 19.4859 33.4487 19.4584 33.3946C19.4309 33.3405 19.4144 33.2815 19.4099 33.221L18.5985 24.3403C18.5974 24.329 18.5932 24.3182 18.5864 24.3092C18.5796 24.3001 18.5703 24.2932 18.5598 24.2891C18.5492 24.285 18.5377 24.284 18.5266 24.2861C18.5154 24.2882 18.5051 24.2933 18.4967 24.301L2.45736 38.9698C2.37314 39.0468 2.26315 39.0896 2.14902 39.0896Z" fill="#10CD00"/>
<path d="M1.18543 38.3574C1.1128 38.354 1.04174 38.3352 0.976964 38.3022C0.912188 38.2691 0.855188 38.2227 0.809757 38.166C0.764326 38.1092 0.731507 38.0434 0.713486 37.973C0.695464 37.9025 0.692653 37.8291 0.705239 37.7575C0.705647 37.7412 0.712303 37.7257 0.723825 37.7142C2.70429 35.7819 12.8242 24.5779 15.4402 21.6785C15.447 21.6702 15.4515 21.6603 15.4532 21.6498C15.4549 21.6392 15.4539 21.6284 15.4501 21.6184C15.4463 21.6084 15.44 21.5996 15.4318 21.5928C15.4235 21.586 15.4136 21.5815 15.4031 21.5798L8.60152 20.461C8.48188 20.4413 8.37496 20.3749 8.30428 20.2764C8.2336 20.1779 8.20494 20.0553 8.22462 19.9357C8.2443 19.8161 8.31069 19.7091 8.4092 19.6385C8.50771 19.5678 8.63027 19.5391 8.7499 19.5588L15.9353 20.7413C16.055 20.7625 16.168 20.8113 16.2656 20.8837C16.3631 20.9561 16.4425 21.0502 16.4974 21.1586C16.5524 21.2669 16.5814 21.3866 16.5821 21.5081C16.5829 21.6295 16.5554 21.7495 16.5018 21.8586C16.4988 21.8658 16.4946 21.8724 16.4893 21.8781C14.7199 23.8412 3.92975 35.8023 1.5087 38.223C1.46629 38.2656 1.41591 38.2993 1.36044 38.3224C1.30497 38.3455 1.2455 38.3574 1.18543 38.3574Z" fill="#10CD00"/>
<path d="M8.70068 19.5429C8.58232 19.543 8.46854 19.4971 8.3833 19.415C8.29805 19.3329 8.24799 19.2209 8.24365 19.1026C8.24457 18.9842 8.28923 18.8704 8.36904 18.7829C8.44886 18.6954 8.55818 18.6406 8.676 18.6289L15.9477 17.7038C15.958 17.7025 15.9679 17.6986 15.9763 17.6924C15.9847 17.6863 15.9914 17.678 15.9958 17.6685C16.0001 17.659 16.0019 17.6485 16.001 17.6381C16.0001 17.6277 15.9965 17.6177 15.9906 17.6091L8.85577 7.05286C8.82099 7.00318 8.79645 6.94707 8.78358 6.88781C8.7707 6.82855 8.76974 6.76732 8.78077 6.70769C8.79179 6.64806 8.81457 6.59122 8.84779 6.54048C8.881 6.48974 8.92397 6.44611 8.97421 6.41215C9.02445 6.37818 9.08095 6.35456 9.14041 6.34264C9.19987 6.33073 9.26111 6.33077 9.32056 6.34276C9.38 6.35476 9.43647 6.37846 9.48666 6.41249C9.53685 6.44652 9.57977 6.4902 9.61292 6.54098L16.9416 17.3848C17.0253 17.5078 17.071 17.6527 17.0731 17.8014C17.0751 17.9502 17.0334 18.0962 16.9531 18.2215C16.8874 18.3191 16.8011 18.4012 16.7001 18.4617C16.5992 18.5223 16.4862 18.5599 16.3691 18.5719L8.75857 19.5393C8.73937 19.5417 8.72004 19.5429 8.70068 19.5429Z" fill="#10CD00"/>
<path d="M19.162 15.5292C18.9692 15.5287 18.7838 15.4543 18.644 15.3214L9.93668 7.12992C9.84836 7.04685 9.79665 6.93209 9.79294 6.8109C9.78923 6.68971 9.83381 6.572 9.91688 6.48368C9.99995 6.39535 10.1147 6.34365 10.2359 6.33993C10.3571 6.33622 10.4748 6.3808 10.5631 6.46387L18.9399 14.3461C18.9483 14.3541 18.9588 14.3595 18.9702 14.3617C18.9816 14.3639 18.9933 14.3628 19.0041 14.3585C19.0149 14.3543 19.0242 14.347 19.0311 14.3377C19.0379 14.3283 19.0419 14.3172 19.0426 14.3056L19.6038 5.78899C19.607 5.72849 19.6221 5.66921 19.6484 5.61462C19.6746 5.56002 19.7115 5.51119 19.7568 5.47097C19.8021 5.43075 19.8549 5.39993 19.9123 5.38032C19.9696 5.36071 20.0302 5.35269 20.0907 5.35673C20.1511 5.36077 20.2102 5.37679 20.2644 5.40385C20.3186 5.43092 20.3669 5.46849 20.4064 5.51438C20.446 5.56027 20.476 5.61357 20.4948 5.67118C20.5135 5.72878 20.5207 5.78954 20.5157 5.84993L19.9268 14.787C19.9213 14.9082 19.8879 15.0264 19.8293 15.1325C19.7707 15.2387 19.6884 15.3299 19.5889 15.3991C19.4624 15.4834 19.314 15.5286 19.162 15.5292Z" fill="#10CD00"/>
<path d="M23.117 14.7433C22.9376 14.7432 22.764 14.6798 22.6267 14.5642C22.4895 14.4487 22.3975 14.2884 22.3668 14.1117L20.933 5.83208C20.9227 5.77294 20.9242 5.71237 20.9374 5.65381C20.9506 5.59526 20.9751 5.53987 21.0097 5.49081C21.0795 5.39173 21.1859 5.32444 21.3053 5.30375C21.4247 5.28307 21.5475 5.31067 21.6466 5.3805C21.7457 5.45032 21.8129 5.55665 21.8336 5.67608L23.2026 13.5809C23.2044 13.5916 23.2091 13.6015 23.2161 13.6098C23.2231 13.6181 23.2322 13.6243 23.2424 13.6279C23.2526 13.6315 23.2636 13.6323 23.2742 13.6303C23.2848 13.6282 23.2947 13.6234 23.3028 13.6162L37.5229 1.1466C37.6141 1.06668 37.7332 1.02624 37.8542 1.03419C37.9752 1.04213 38.088 1.0978 38.1679 1.18895C38.2478 1.2801 38.2883 1.39927 38.2803 1.52023C38.2724 1.6412 38.2167 1.75405 38.1256 1.83397L23.6194 14.5544C23.4804 14.6762 23.3018 14.7434 23.117 14.7433Z" fill="#10CD00"/>
<path d="M21.0591 33.3567C21.0284 33.3566 20.9978 33.3537 20.9677 33.3478C20.8553 33.3252 20.7555 33.2612 20.6881 33.1684C20.6207 33.0756 20.5906 32.9609 20.6039 32.8469C20.7605 31.3985 21.3882 25.5978 21.5384 24.2087C21.5509 24.058 21.6064 23.914 21.6981 23.7937C21.7899 23.6735 21.9142 23.5821 22.0563 23.5302C22.2129 23.4768 22.3826 23.4762 22.5395 23.5286C22.6964 23.5809 22.8319 23.6833 22.925 23.82L26.0215 28.3047C26.0857 28.4045 26.1085 28.5254 26.0851 28.6418C26.0617 28.7582 25.9939 28.8609 25.8961 28.9282C25.7984 28.9955 25.6782 29.0221 25.5612 29.0024C25.4441 28.9827 25.3393 28.9182 25.269 28.8226L22.5009 24.8114C22.4938 24.8011 22.4838 24.7932 22.4721 24.7888C22.4605 24.7844 22.4477 24.7837 22.4356 24.7867C22.4236 24.7898 22.4127 24.7965 22.4045 24.8059C22.3964 24.8153 22.3913 24.827 22.39 24.8395L21.5128 32.9493C21.5006 33.0612 21.4475 33.1645 21.3638 33.2397C21.2801 33.3149 21.1716 33.3565 21.0591 33.3567Z" fill="#10CD00"/>
<path d="M26.5986 28.6775C26.5009 28.6774 26.4058 28.6461 26.3272 28.588C26.2487 28.5299 26.1908 28.4482 26.162 28.3548L24.471 22.8458C24.4241 22.7051 24.4172 22.5541 24.4512 22.4097C24.4851 22.2654 24.5586 22.1333 24.6633 22.0283C24.782 21.9161 24.9336 21.845 25.0957 21.8255C25.2579 21.806 25.422 21.8392 25.5639 21.9201L34.5903 27.0632C34.6424 27.093 34.6882 27.1327 34.725 27.1801C34.7619 27.2275 34.789 27.2817 34.8048 27.3396C34.8207 27.3975 34.825 27.458 34.8175 27.5176C34.81 27.5771 34.7908 27.6346 34.7611 27.6868C34.7313 27.7389 34.6916 27.7847 34.6442 27.8215C34.5968 27.8583 34.5426 27.8854 34.4847 27.9013C34.4268 27.9172 34.3663 27.9215 34.3067 27.914C34.2472 27.9065 34.1897 27.8873 34.1375 27.8576L25.5789 22.9807C25.5683 22.9747 25.5561 22.972 25.544 22.973C25.5318 22.974 25.5203 22.9786 25.5107 22.9862C25.5012 22.9938 25.4942 23.0041 25.4906 23.0157C25.487 23.0273 25.487 23.0398 25.4905 23.0514L27.0359 28.0864C27.0568 28.1547 27.0615 28.2271 27.0494 28.2976C27.0373 28.3681 27.0089 28.4347 26.9664 28.4922C26.9238 28.5497 26.8684 28.5964 26.8046 28.6286C26.7407 28.6608 26.6702 28.6775 26.5986 28.6775Z" fill="#10CD00"/>
<path d="M35.1716 27.1092C35.0693 27.1093 34.9699 27.075 34.8895 27.0117L26.0739 20.0855C25.9646 20.0038 25.878 19.8955 25.8221 19.771C25.7663 19.6465 25.7432 19.5097 25.7549 19.3738C25.7721 19.2211 25.8353 19.0772 25.9361 18.9612C26.0368 18.8452 26.1704 18.7626 26.3192 18.7242L33.6287 16.811C33.6875 16.7933 33.7493 16.7875 33.8104 16.7942C33.8714 16.8009 33.9306 16.8198 33.9842 16.8498C34.0378 16.8798 34.0848 16.9203 34.1224 16.9689C34.16 17.0175 34.1874 17.0732 34.203 17.1327C34.2185 17.1921 34.222 17.2541 34.213 17.3149C34.2041 17.3757 34.183 17.434 34.151 17.4865C34.119 17.539 34.0768 17.5844 34.0268 17.6202C33.9769 17.656 33.9202 17.6813 33.8602 17.6946L26.9661 19.4999C26.9551 19.5028 26.9451 19.5086 26.9373 19.5169C26.9294 19.5251 26.924 19.5354 26.9217 19.5465C26.9194 19.5576 26.9203 19.5691 26.9242 19.5798C26.9281 19.5905 26.9349 19.5998 26.9438 19.6069L35.4364 26.2795C35.5239 26.3454 35.5859 26.4396 35.6117 26.546C35.6376 26.6525 35.6257 26.7646 35.578 26.8633C35.5393 26.9376 35.481 26.9998 35.4093 27.0432C35.3376 27.0865 35.2554 27.1094 35.1716 27.1092Z" fill="#10CD00"/>
<path d="M26.1937 16.853C26.0455 16.8531 25.9004 16.8099 25.7763 16.7288C25.6522 16.6476 25.5545 16.5321 25.4951 16.3962C25.4357 16.2603 25.4173 16.1101 25.4421 15.9639C25.4669 15.8177 25.5338 15.682 25.6346 15.5733L38.5555 1.58628C38.6392 1.50369 38.7515 1.45654 38.8691 1.45465C38.9867 1.45276 39.1005 1.49626 39.1868 1.57611C39.2731 1.65597 39.3254 1.76603 39.3326 1.8834C39.3399 2.00077 39.3016 2.11643 39.2258 2.20632L26.6514 15.8204C26.6431 15.8292 26.6377 15.8403 26.6358 15.8522C26.6339 15.8641 26.6356 15.8763 26.6406 15.8872C26.6456 15.8982 26.6538 15.9074 26.6641 15.9137C26.6743 15.9201 26.6862 15.9232 26.6983 15.9227L33.5007 15.7058C33.6219 15.7018 33.7398 15.746 33.8284 15.8289C33.9169 15.9117 33.969 16.0264 33.973 16.1476C33.977 16.2688 33.9328 16.3867 33.8499 16.4752C33.7671 16.5638 33.6524 16.6158 33.5312 16.6199L26.2187 16.853H26.1937Z" fill="#10CD00"/>
<path d="M34.7914 10.0743C34.7 10.0743 34.6107 10.0469 34.535 9.99568C34.4594 9.94445 34.4008 9.87171 34.3669 9.78685C34.333 9.702 34.3253 9.60893 34.3448 9.51965C34.3643 9.43038 34.4101 9.34901 34.4763 9.28603L34.8569 8.92376C34.9447 8.84021 35.0621 8.79497 35.1833 8.79799C35.3045 8.80102 35.4196 8.85207 35.5031 8.93991C35.5867 9.02775 35.6319 9.14518 35.6289 9.26638C35.6259 9.38757 35.5748 9.5026 35.487 9.58615L35.1064 9.94843C35.0214 10.0292 34.9086 10.0743 34.7914 10.0743Z" fill="#10CD00"/>
<path d="M31.5171 13.1917C31.4258 13.1916 31.3366 13.1642 31.261 13.113C31.1854 13.0618 31.1269 12.9891 31.093 12.9043C31.0591 12.8195 31.0513 12.7265 31.0708 12.6373C31.0902 12.5481 31.136 12.4667 31.2021 12.4037L33.7173 10.0089C33.7604 9.96573 33.8117 9.93162 33.8681 9.90859C33.9246 9.88556 33.9851 9.87407 34.0461 9.87479C34.1071 9.87551 34.1673 9.88843 34.2233 9.91279C34.2792 9.93716 34.3297 9.97247 34.3717 10.0166C34.4138 10.0608 34.4466 10.113 34.4682 10.17C34.4897 10.227 34.4997 10.2878 34.4974 10.3488C34.4952 10.4097 34.4807 10.4696 34.4549 10.5249C34.4292 10.5802 34.3926 10.6297 34.3474 10.6707L31.8322 13.0655C31.7474 13.1466 31.6345 13.1918 31.5171 13.1917Z" fill="#10CD00"/>
<path d="M24.67 11.0821C24.5808 11.0821 24.4934 11.0559 24.4189 11.0068C24.3443 10.9577 24.2858 10.8879 24.2504 10.8059C24.2151 10.7239 24.2046 10.6334 24.2201 10.5455C24.2357 10.4576 24.2766 10.3761 24.3379 10.3113L28.1925 6.23301C28.2338 6.18937 28.2832 6.15429 28.338 6.12976C28.3928 6.10522 28.4518 6.09172 28.5119 6.09003C28.5719 6.08833 28.6316 6.09847 28.6877 6.11986C28.7438 6.14126 28.7951 6.17349 28.8388 6.21473C28.8824 6.25596 28.9175 6.30538 28.942 6.36017C28.9665 6.41497 28.98 6.47405 28.9817 6.53406C28.9834 6.59407 28.9733 6.65383 28.9519 6.70992C28.9305 6.76601 28.8983 6.81734 28.857 6.86097L25.0024 10.9392C24.9597 10.9844 24.9081 11.0204 24.851 11.045C24.7938 11.0695 24.7322 11.0822 24.67 11.0821Z" fill="#10CD00"/>
<path d="M11.2762 34.24C11.187 34.24 11.0996 34.2138 11.0251 34.1647C10.9505 34.1156 10.892 34.0458 10.8566 33.9638C10.8213 33.8818 10.8108 33.7913 10.8263 33.7034C10.8419 33.6155 10.8828 33.534 10.9441 33.4691L17.2579 26.7879C17.3411 26.6998 17.456 26.6484 17.5772 26.645C17.6984 26.6415 17.816 26.6864 17.9041 26.7697C17.9922 26.8529 18.0436 26.9678 18.0471 27.089C18.0505 27.2102 18.0056 27.3278 17.9224 27.4159L11.6086 34.0971C11.5659 34.1423 11.5143 34.1783 11.4572 34.2028C11.4 34.2274 11.3384 34.24 11.2762 34.24Z" fill="#10CD00"/>
<path d="M5.37218 31.1863C5.2829 31.1863 5.19559 31.1601 5.12103 31.111C5.04646 31.0619 4.9879 30.9921 4.95258 30.9101C4.91726 30.8281 4.90672 30.7376 4.92227 30.6497C4.93781 30.5618 4.97877 30.4803 5.04007 30.4154L9.68137 25.5045C9.7226 25.4609 9.77203 25.4258 9.82682 25.4012C9.88161 25.3767 9.9407 25.3632 10.0007 25.3615C10.0607 25.3598 10.1205 25.37 10.1766 25.3913C10.2327 25.4127 10.284 25.445 10.3276 25.4862C10.3712 25.5274 10.4063 25.5769 10.4309 25.6317C10.4554 25.6865 10.4689 25.7455 10.4706 25.8055C10.4723 25.8656 10.4622 25.9253 10.4408 25.9814C10.4194 26.0375 10.3871 26.0888 10.3459 26.1325L5.70459 31.0431C5.66185 31.0883 5.61032 31.1244 5.55316 31.149C5.496 31.1736 5.43441 31.1863 5.37218 31.1863Z" fill="#10CD00"/>
<path d="M3.69932 32.9562C3.61005 32.9562 3.52274 32.93 3.44818 32.8809C3.37361 32.8318 3.31505 32.762 3.27973 32.68C3.24441 32.598 3.23387 32.5075 3.24942 32.4196C3.26496 32.3316 3.30591 32.2502 3.36721 32.1853L3.91321 31.6064C3.99713 31.5213 4.11107 31.4724 4.23059 31.4703C4.35012 31.4682 4.46572 31.513 4.5526 31.5951C4.63949 31.6772 4.69075 31.79 4.69539 31.9095C4.70003 32.029 4.65769 32.1455 4.57743 32.2341L4.03143 32.813C3.98873 32.8582 3.93725 32.8942 3.88015 32.9188C3.82304 32.9435 3.76151 32.9562 3.69932 32.9562Z" fill="#10CD00"/>
<path d="M24.6824 4.4094C24.4444 4.37376 24.1507 4.13854 24.186 3.90027C24.2214 3.66201 24.1866 3.28236 24.6616 3.24215C24.9014 3.22234 25.4194 3.45208 25.3094 3.92647C25.3034 4.00079 25.282 4.07302 25.2464 4.13854C25.2109 4.20406 25.162 4.26141 25.1029 4.3069C25.0438 4.35239 24.9759 4.38501 24.9035 4.40266C24.831 4.42032 24.7557 4.42261 24.6824 4.4094Z" fill="#10CD00"/>
<path d="M7.06755 14.9041C6.82959 14.8684 6.53617 14.6332 6.57152 14.3952C6.60686 14.1573 6.57152 13.7776 7.04713 13.738C7.28662 13.7179 7.80459 13.9477 7.69429 14.4217C7.68828 14.496 7.66681 14.5682 7.63124 14.6336C7.59568 14.6991 7.54681 14.7563 7.48777 14.8018C7.42874 14.8472 7.36086 14.8798 7.28849 14.8974C7.21611 14.915 7.14085 14.9173 7.06755 14.9041Z" fill="#10CD00"/>
<path d="M17.5015 34.8813C17.2072 34.8375 16.844 34.5462 16.8879 34.2522C16.9318 33.9581 16.8879 33.4883 17.4759 33.4393C17.7724 33.4143 18.4129 33.6985 18.2764 34.2848C18.269 34.3766 18.2425 34.4658 18.1985 34.5468C18.1545 34.6277 18.0941 34.6986 18.0212 34.7548C17.9482 34.8109 17.8642 34.8512 17.7747 34.873C17.6853 34.8948 17.5922 34.8977 17.5015 34.8813Z" fill="#10CD00"/>
</g>
<defs>
<clipPath id="clip0_1160_454">
<rect width="39" height="39" fill="white" transform="translate(0.5 0.5)"/>
</clipPath>
</defs>
</svg>
