<svg width="38" height="38" viewBox="0 0 38 38" fill="none" xmlns="http://www.w3.org/2000/svg">
<g clip-path="url(#clip0_1160_503)">
<path d="M19.0001 11.2164C20.1093 11.2164 21.0085 10.3172 21.0085 9.20799C21.0085 8.09878 20.1093 7.19958 19.0001 7.19958C17.8909 7.19958 16.9917 8.09878 16.9917 9.20799C16.9917 10.3172 17.8909 11.2164 19.0001 11.2164Z" fill="#10CD00"/>
<path d="M30.0404 26.9067C30.8841 26.6144 31.9025 26.861 31.7938 28.2505C31.7863 28.3973 31.7491 28.541 31.6843 28.6729C31.5772 28.8469 31.4319 28.9943 31.2592 29.1036C31.0866 29.2129 30.8912 29.2814 30.6881 29.3037C30.4849 29.326 30.2794 29.3016 30.0871 29.2323C29.8949 29.1631 29.721 29.0508 29.5787 28.9041C29.4378 28.761 29.3366 28.5837 29.2851 28.3897C29.2335 28.1956 29.2334 27.9914 29.2847 27.7973C29.4128 27.4143 29.6834 27.0954 30.0404 26.9067V26.9067Z" fill="#10CD00"/>
<path d="M12.5302 27.1244C12.3492 27.6294 12.0951 28.0959 11.5583 28.0959C11.3009 28.0955 11.0542 27.993 10.8723 27.8108C10.6904 27.6287 10.5882 27.3818 10.5882 27.1244C10.5845 26.8548 10.6824 26.5937 10.8624 26.393C11.0424 26.1923 11.2914 26.0667 11.5598 26.0413C12.0951 26.0413 12.7337 26.5555 12.5302 27.1244Z" fill="#10CD00"/>
<path d="M8.29455 29.6869C8.58535 30.0048 8.82122 30.361 8.61946 30.7422C8.57153 30.8329 8.50621 30.9132 8.42725 30.9785C8.34828 31.0439 8.2572 31.0931 8.15923 31.1233C8.06125 31.1534 7.95828 31.164 7.85622 31.1544C7.75415 31.1448 7.65498 31.1151 7.56438 31.0671C7.371 30.9687 7.2219 30.8008 7.14688 30.5972C7.07186 30.3936 7.07643 30.1691 7.15969 29.9687C7.36174 29.5889 7.96704 29.3287 8.29455 29.6869Z" fill="#10CD00"/>
<path d="M32.6437 32.2148C32.9391 32.538 33.1785 32.8993 32.9738 33.2864C32.8754 33.4722 32.7073 33.6113 32.5063 33.6732C32.3054 33.735 32.0881 33.7145 31.9022 33.6162C31.7064 33.5161 31.5555 33.3459 31.4794 33.1395C31.4034 32.9331 31.4079 32.7057 31.4921 32.5024C31.6973 32.1154 32.3118 31.8509 32.6437 32.2148Z" fill="#10CD00"/>
<path d="M26.2013 25.9583C26.4968 26.2818 26.7361 26.6428 26.5314 27.0299C26.4331 27.2158 26.265 27.355 26.064 27.4169C25.8631 27.4788 25.6458 27.4583 25.4599 27.36C25.264 27.2598 25.1131 27.0896 25.0371 26.8832C24.9611 26.6767 24.9656 26.4492 25.0497 26.246C25.2544 25.8589 25.8689 25.5947 26.2013 25.9583Z" fill="#10CD00"/>
<path d="M31.1724 35.994C30.988 34.6233 29.6779 33.1271 28.413 32.5206C28.3671 32.4986 28.3282 32.4641 28.3008 32.4212C28.0043 31.9616 27.5691 31.6084 27.0582 31.4129C26.5473 31.2175 25.9875 31.19 25.4599 31.3343C25.3974 31.3529 25.3304 31.3495 25.2701 31.3248C25.2097 31.3001 25.1596 31.2555 25.1281 31.1985C24.7942 30.6339 23.5692 30.1362 22.6392 30.5914C22.5797 30.6207 22.5119 30.6285 22.4473 30.6135C22.3828 30.5985 22.3253 30.5616 22.2849 30.509C21.5538 29.5566 21.2919 27.543 21.0925 26.1691C21.0718 26.0323 21.0028 25.9076 20.898 25.8173C20.7932 25.7271 20.6596 25.6775 20.5213 25.6774H17.4986C17.3594 25.6774 17.2249 25.7278 17.1198 25.819C17.0147 25.9103 16.9461 26.0364 16.9265 26.1743C16.7305 27.5563 16.4851 29.5797 15.7535 30.5336C15.713 30.5862 15.6555 30.6231 15.5909 30.6382C15.5262 30.6532 15.4583 30.6454 15.3988 30.616C14.4663 30.1578 13.2106 30.6417 12.8718 31.2037C12.8395 31.2599 12.7891 31.3034 12.7288 31.3273C12.6686 31.3511 12.602 31.3538 12.54 31.3349C11.9768 31.1822 11.3785 31.2248 10.8426 31.4558C10.3068 31.6868 9.86494 32.0925 9.58923 32.6068C9.55735 32.6681 9.50453 32.716 9.44036 32.7418C8.74974 32.9963 8.14142 33.434 7.68062 34.008C7.21982 34.5819 6.92392 35.2705 6.82464 35.9998C6.76972 36.4247 6.95183 36.8092 7.43167 36.8092H30.5682C31.051 36.8092 31.2331 36.4189 31.1724 35.994Z" fill="#10CD00"/>
<path d="M26.6292 19.0338C26.0571 17.997 24.256 15.3153 23.8455 14.7063C23.9091 13.4879 23.9611 12.3779 23.9837 11.6827C24.0686 8.9629 23.6278 6.69578 22.6011 4.70299C22.5885 4.66643 22.5711 4.63172 22.5493 4.59979C21.8351 3.27433 20.9 2.08035 19.7845 1.06918C19.5681 0.877389 19.289 0.771484 18.9999 0.771484C18.7108 0.771484 18.4317 0.877389 18.2154 1.06918C17.0782 2.09946 16.1294 3.32014 15.4115 4.67639L15.4098 4.67986C14.3749 6.67815 13.9309 8.9525 14.0162 11.6827C14.0379 12.3785 14.0908 13.4896 14.1547 14.7089C13.7439 15.3159 11.9431 17.997 11.3707 19.0335C11.062 19.5929 11.0386 21.7007 11.0386 22.3335C11.0385 22.3472 11.0392 22.3609 11.0406 22.3745C11.0525 22.5259 11.0963 22.6731 11.1691 22.8064C11.2419 22.9397 11.342 23.0561 11.4629 23.1481C11.5899 23.2408 11.7428 23.2913 11.9 23.2926C11.995 23.2828 12.0884 23.2609 12.1778 23.2273L14.6715 21.7889C14.8118 22.1149 15.0417 22.3944 15.3345 22.5949C15.6272 22.7955 15.9709 22.9089 16.3255 22.922L15.4893 24.8845C15.4261 25.0249 15.3988 25.1789 15.4097 25.3325C15.4207 25.4861 15.4696 25.6346 15.552 25.7647C15.6194 25.8731 15.7129 25.9628 15.8241 26.0255C15.9352 26.0883 16.0603 26.1222 16.1879 26.124H21.8108C21.9384 26.1222 22.0634 26.0883 22.1746 26.0256C22.2857 25.9629 22.3793 25.8733 22.4467 25.7649C22.5287 25.6363 22.5776 25.4894 22.5892 25.3374C22.6008 25.1853 22.5747 25.0327 22.5132 24.8931L21.6735 22.922C22.0281 22.9089 22.3717 22.7954 22.6645 22.5949C22.9573 22.3943 23.1871 22.1148 23.3275 21.7889L25.8218 23.2284C25.9113 23.262 26.0048 23.284 26.0999 23.2938C26.257 23.2924 26.4098 23.2419 26.5367 23.1492C26.6576 23.0573 26.7577 22.9409 26.8305 22.8076C26.9032 22.6743 26.947 22.5271 26.959 22.3757C26.9604 22.3621 26.9611 22.3484 26.961 22.3346C26.9613 21.7007 26.9379 19.5929 26.6292 19.0338ZM23.1168 11.6555C23.0439 13.9885 22.6176 21.0295 22.6132 21.1035C22.5994 21.3624 22.4868 21.6062 22.2985 21.7844C22.1103 21.9627 21.8608 22.0618 21.6015 22.0615H16.3984C16.1386 22.0618 15.8886 21.9622 15.7003 21.7833C15.5119 21.6043 15.3996 21.3598 15.3867 21.1003C15.3823 21.0295 14.956 13.9894 14.8831 11.6555C14.7964 8.92185 15.3063 6.87153 16.0764 5.28169H21.9235C22.6936 6.87153 23.2023 8.92185 23.1168 11.6555Z" fill="#10CD00"/>
</g>
<defs>
<clipPath id="clip0_1160_503">
<rect width="37" height="37" fill="white" transform="translate(0.5 0.5)"/>
</clipPath>
</defs>
</svg>
