<svg width="34" height="34" viewBox="0 0 34 34" fill="none" xmlns="http://www.w3.org/2000/svg">
<g clip-path="url(#clip0_1144_769)">
<path d="M27.9172 10.2662C27.718 9.77631 27.3926 9.46436 26.9636 9.46436C26.1056 9.46436 25.5717 10.7844 25.4362 12.0476C25.3384 12.7388 25.4001 13.4424 25.6169 14.1076C25.8081 14.5922 26.0923 14.8578 26.4642 14.8965C27.2505 14.9764 27.9491 13.8936 28.1191 12.3209C28.1421 12.1094 28.1537 11.8968 28.1536 11.6841C28.1652 11.2014 28.0851 10.7207 27.9172 10.2662V10.2662Z" fill="#10CD00"/>
<path d="M22.1955 11.4666C22.0999 11.4665 22.0076 11.433 21.9353 11.3723C21.8631 11.3115 21.8157 11.2276 21.8019 11.1358L21.7965 11.1023C21.7773 10.9532 21.75 10.8052 21.7147 10.6589C21.6882 10.5599 21.7032 10.4548 21.7563 10.3665C21.8095 10.2781 21.8965 10.2139 21.9983 10.1877C22.1002 10.1615 22.2086 10.1756 22.2998 10.2268C22.391 10.2779 22.4576 10.3621 22.485 10.4609C22.5285 10.6353 22.5618 10.8119 22.5849 10.9899L22.59 11.0237C22.6052 11.1251 22.5783 11.2282 22.5152 11.3103C22.4522 11.3925 22.3581 11.447 22.2537 11.462C22.2344 11.4649 22.215 11.4665 22.1955 11.4666Z" fill="#10CD00"/>
<path d="M21.6024 9.4652C21.5117 9.46518 21.4238 9.43515 21.3531 9.38008C21.2824 9.325 21.2332 9.24817 21.2135 9.16227C21.0933 8.601 20.7692 8.10039 20.3003 7.75178C20.2588 7.72024 20.2241 7.68101 20.1984 7.63638C20.1726 7.59174 20.1562 7.54259 20.1501 7.49175C20.144 7.44092 20.1484 7.38943 20.163 7.34026C20.1776 7.29108 20.2021 7.24521 20.2351 7.20529C20.2681 7.16537 20.3089 7.13221 20.3552 7.10772C20.4015 7.08323 20.4523 7.0679 20.5048 7.06261C20.5572 7.05733 20.6102 7.0622 20.6607 7.07695C20.7112 7.09169 20.7582 7.11601 20.7989 7.1485C21.4095 7.60749 21.8322 8.26205 21.9918 8.99547C22.0047 9.05201 22.0043 9.11064 21.9907 9.16703C21.9772 9.22342 21.9507 9.27613 21.9133 9.32127C21.876 9.3664 21.8286 9.40282 21.7748 9.42782C21.721 9.45282 21.6621 9.46577 21.6024 9.46572V9.4652Z" fill="#10CD00"/>
<path d="M17.1354 0.889336C16.822 0.868711 16.5138 0.858398 16.211 0.858398C13.159 0.858398 10.5452 1.89661 8.75228 3.8516C7.77032 4.90451 7.0161 6.13802 6.53431 7.47902C6.18006 8.50499 5.93876 9.5645 5.81447 10.6398C5.70678 11.7946 5.7739 12.9585 6.01369 14.0945C6.27612 15.4209 6.67376 17 8.26884 18.6939C8.38944 18.8228 9.05244 19.4132 9.26494 19.573L9.26228 19.5756C10.4073 20.4387 11.7745 20.98 13.2148 21.1405C13.895 21.2137 14.8351 21.2282 15.2282 21.2282C18.2271 21.2282 21.1198 20.8904 23.7176 19.4493C24.3285 19.1028 26.0684 17.1289 26.6899 15.6697C26.5872 15.6731 26.4844 15.6713 26.3818 15.6646C25.7045 15.5975 25.1679 15.1412 24.8731 14.3807C24.6092 13.6035 24.5311 12.7783 24.6446 11.9675C24.8624 9.95145 25.7602 8.69074 26.9556 8.69074C27.1173 8.70282 27.278 8.72608 27.4363 8.76035C26.5837 4.20996 22.7534 1.27348 17.1354 0.889336ZM23.4934 13.0684C23.0815 14.1034 22.4973 15.0658 21.7642 15.9172C21.4165 16.3246 20.4547 17.2901 19.4586 17.6678C18.6276 18.0875 17.7311 18.3715 16.805 18.5082C15.83 18.6379 14.8445 18.6768 13.8618 18.6243C8.79717 18.2355 6.19059 15.5743 6.27825 10.6785C6.33934 7.2573 8.81231 3.45973 14.2948 3.43652H14.34C16.9776 3.43652 19.0516 4.4835 20.6486 5.81871C21.3582 6.41327 21.9645 7.11492 22.4442 7.89668C22.9546 8.68343 23.3514 9.53441 23.6236 10.4258C23.8927 11.2952 23.8468 12.2279 23.4934 13.0684Z" fill="#10CD00"/>
<path d="M30.81 27.2016C30.4673 25.5671 29.2428 22.5146 24.9343 19.6426C24.7139 19.7844 24.4429 19.9365 24.1136 20.1195C21.112 21.7876 17.789 22.0016 15.2284 22.0016C14.745 22.0016 14.2615 21.9887 13.7914 21.9655C13.0768 24.3631 11.9001 29.3595 11.9586 32.1388C11.6903 32.1027 11.4247 32.0666 11.1643 32.0279C11.1351 29.1688 12.2534 24.3709 12.9839 21.8933C11.4052 21.6856 9.91371 21.0673 8.66746 20.1041C5.25153 23.2107 3.41606 26.1807 3.19825 27.4053C2.92731 28.9109 3.68168 29.6483 4.95137 30.6873C6.83731 32.2238 11.2467 33.1313 16.0279 33.1313C20.0814 33.1287 24.4031 32.4791 27.6809 31.0044C28.5229 30.628 31.2376 29.2332 30.81 27.2016ZM27.3462 30.3031C26.2601 30.7849 25.132 31.1722 23.9754 31.4607C23.662 30.2129 22.8518 26.1549 25.2876 25.4975C27.2293 24.9741 27.7659 24.5823 28.4592 23.9713C29.2175 24.9827 29.7528 26.1351 30.0317 27.3563C30.3478 28.8697 27.8509 30.0762 27.3462 30.3031Z" fill="#10CD00"/>
</g>
<defs>
<clipPath id="clip0_1144_769">
<rect width="34" height="33" fill="white" transform="translate(0 0.5)"/>
</clipPath>
</defs>
</svg>
