<svg width="32" height="32" viewBox="0 0 32 32" fill="none" xmlns="http://www.w3.org/2000/svg">
<g clip-path="url(#clip0_1144_810)">
<path d="M16.3633 0.751635C16.1816 0.749455 15.8184 0.749455 15.6367 0.751635C7.38951 0.848752 0.742188 7.70895 0.742188 16.0002C0.742188 24.2915 7.38951 31.1517 15.6367 31.2489C15.8184 31.251 16.1816 31.251 16.3633 31.2489C24.6105 31.1517 31.2578 24.2915 31.2578 16.0002C31.2578 7.70895 24.6105 0.848752 16.3633 0.751635ZM15.6367 30.5223C14.8438 30.5034 14.0537 30.4195 13.2744 30.2714C13.2536 29.6175 13.1214 28.1031 12.359 27.2733C12.1263 27.0286 11.8769 26.8004 11.6125 26.5904C10.9586 26.0486 10.4873 25.6572 10.4873 24.4906C10.4873 22.5069 8.23305 20.3938 7.36432 19.7469C6.97431 19.4796 6.54624 19.2726 6.09453 19.1329C5.14443 18.789 4.39413 18.5175 4.16817 16.8079C3.80295 14.0439 2.8732 13.0877 1.90953 12.4486C2.73603 9.19245 4.66236 6.32199 7.36238 4.32317C8.39325 4.74464 9.54242 4.77581 10.5946 4.41085C11.0662 4.2791 11.4391 4.17423 11.868 4.26553C12.3418 4.36556 12.4936 4.70583 12.7428 5.34884C12.9797 5.96085 13.2756 6.72277 14.1092 7.2551C14.4609 7.47912 14.6312 8.05795 14.5534 8.76538C14.4633 9.58639 14.069 10.3243 13.6375 10.4818C13.5554 10.5111 13.3066 10.6029 12.9109 10.2243C11.8407 9.20059 10.9141 9.45416 10.4551 9.69635C9.64621 10.125 9.0807 11.1904 9.21996 12.0213L9.28317 12.3917C9.60334 14.2601 9.65711 14.8675 8.66075 15.2076C8.16563 15.3771 7.75747 15.7353 7.525 16.2042C7.29253 16.6731 7.25454 17.2148 7.4193 17.7115C7.57221 18.2172 7.90925 18.6472 8.36383 18.9164C8.53893 19.0174 8.72832 19.1344 8.92885 19.2555C10.2461 20.0608 12.0499 21.162 13.6915 20.4906C14.3123 20.2423 14.969 20.0951 15.6365 20.0547L15.6367 30.5223ZM16.3633 10.2003C17.8402 10.2909 19.2269 10.9415 20.2407 12.0193C21.2544 13.0971 21.8188 14.5211 21.8188 16.0007C21.8188 17.4804 21.2544 18.9043 20.2407 19.9822C19.2269 21.06 17.8402 21.7105 16.3633 21.8011V21.8011V10.2003ZM16.3633 30.0423V25.9677C18.9438 25.8734 21.3871 24.7819 23.1794 22.9229C24.9716 21.064 25.9731 18.5824 25.9731 16.0001C25.9731 13.4179 24.9716 10.9363 23.1794 9.07731C21.3871 7.21834 18.9438 6.12688 16.3633 6.03253V1.95821C20.0236 2.05436 23.5017 3.57597 26.0566 6.19888C28.6115 8.82179 30.0413 12.3387 30.0413 16.0002C30.0413 19.6618 28.6115 23.1787 26.0566 25.8016C23.5017 28.4245 20.0236 29.9461 16.3633 30.0423V30.0423Z" fill="#10CD00"/>
</g>
<defs>
<clipPath id="clip0_1144_810">
<rect width="31" height="31" fill="white" transform="translate(0.5 0.5)"/>
</clipPath>
</defs>
</svg>
