<svg width="34" height="42" viewBox="0 0 34 42" fill="none" xmlns="http://www.w3.org/2000/svg">
<g clip-path="url(#clip0_1144_801)">
<path d="M18.5713 20.9999C18.5713 14.3129 20.3258 5.4556 24.2446 0.74248C24.3179 0.654032 24.4159 0.606211 24.517 0.609538C24.6181 0.612864 24.714 0.667066 24.7836 0.76022C24.8532 0.853373 24.8909 0.977847 24.8883 1.10626C24.8856 1.23467 24.843 1.3565 24.7696 1.44495C21.0339 5.93779 19.333 14.7299 19.333 20.9999C19.333 21.267 18.5713 21.267 18.5713 20.9999Z" fill="#10CD00"/>
<path d="M15.0639 21.4836C14.9629 21.4836 14.866 21.4326 14.7946 21.3419C14.7232 21.2511 14.683 21.1281 14.683 20.9998C14.683 14.7298 12.9819 5.93764 9.24793 1.4448C9.17719 1.35585 9.13667 1.23525 9.13506 1.10882C9.13345 0.982396 9.17086 0.860192 9.2393 0.768372C9.30773 0.676551 9.40174 0.622413 9.50121 0.617546C9.60068 0.61268 9.69769 0.657472 9.77148 0.742333C13.6905 5.45546 15.4448 14.3128 15.4448 20.9998C15.4448 21.1281 15.4046 21.2511 15.3332 21.3419C15.2618 21.4326 15.1649 21.4836 15.0639 21.4836V21.4836Z" fill="#10CD00"/>
<path d="M17.1902 23.8432C16.2893 23.8561 15.394 23.6629 14.547 23.2727C13.3283 22.675 12.7123 21.7023 12.8129 20.5312C12.9061 19.4475 13.6353 18.5676 14.8662 18.0525C14.9622 18.0124 15.0667 18.0224 15.1569 18.0803C15.2471 18.1381 15.3154 18.2391 15.347 18.361C15.3785 18.4829 15.3707 18.6157 15.3251 18.7303C15.2796 18.8448 15.2001 18.9317 15.1041 18.9717C14.5653 19.1975 13.6495 19.7136 13.57 20.6363C13.4898 21.5716 14.3193 22.1225 14.8213 22.3686C16.757 23.3165 20.0116 22.9169 21.0504 21.0988C21.1105 20.9978 21.1994 20.9309 21.298 20.9122C21.3966 20.8936 21.497 20.9248 21.5777 20.9991C21.6584 21.0734 21.7129 21.185 21.7296 21.3098C21.7462 21.4347 21.7237 21.5628 21.6668 21.6668C20.8269 23.1391 18.9884 23.8432 17.1902 23.8432Z" fill="#10CD00"/>
<path d="M21.9527 20.6019C21.8893 20.6019 21.8269 20.5817 21.7711 20.5432C21.7154 20.5048 21.6681 20.4492 21.6335 20.3816C21.599 20.3141 21.5783 20.2366 21.5732 20.1563C21.5682 20.076 21.5791 19.9953 21.6049 19.9217C21.714 19.6345 21.7995 19.3338 21.8603 19.0244C21.8745 18.8917 21.8818 18.758 21.8821 18.6241C21.8825 18.4296 21.8648 18.2357 21.8293 18.0465C21.8055 17.9218 21.8217 17.7902 21.8743 17.6806C21.9269 17.571 22.0116 17.4925 22.1098 17.4622C22.2079 17.432 22.3116 17.4525 22.3978 17.5193C22.4841 17.5861 22.5459 17.6937 22.5697 17.8185C22.6193 18.0826 22.6442 18.3532 22.6438 18.6248C22.6436 18.8023 22.6339 18.9795 22.6149 19.1553C22.5452 19.5562 22.4399 19.9457 22.3011 20.3165C22.2709 20.4017 22.222 20.474 22.1601 20.5247C22.0983 20.5753 22.0263 20.6021 21.9527 20.6019V20.6019ZM21.1978 16.6135C21.1145 16.6137 21.0335 16.579 20.9673 16.5148C20.5153 16.0995 20.0196 15.7672 19.4946 15.5275C19.4004 15.4813 19.3244 15.3895 19.2835 15.2721C19.2425 15.1548 19.2399 15.0216 19.2763 14.9018C19.3127 14.7821 19.385 14.6856 19.4774 14.6336C19.5697 14.5815 19.6746 14.5783 19.7689 14.6245C20.3608 14.8965 20.9194 15.2736 21.4281 15.7446C21.4915 15.806 21.5382 15.8911 21.5615 15.9879C21.5848 16.0847 21.5836 16.1883 21.5581 16.2843C21.5326 16.3802 21.484 16.4635 21.4193 16.5225C21.3545 16.5815 21.2768 16.6132 21.1971 16.6132L21.1978 16.6135ZM17.9354 14.8893C17.9034 14.8893 17.8715 14.8842 17.8404 14.8741C17.3535 14.7154 16.8081 14.5587 16.1245 14.3813C16.0269 14.3539 15.9417 14.2789 15.8873 14.1724C15.8328 14.0659 15.8135 13.9365 15.8335 13.8121C15.8535 13.6877 15.9112 13.5782 15.9941 13.5074C16.0771 13.4365 16.1786 13.4099 16.2769 13.4334C16.9734 13.614 17.5304 13.7739 18.0288 13.9368C18.1187 13.9661 18.197 14.036 18.2492 14.1334C18.3013 14.2308 18.3237 14.349 18.3121 14.4659C18.3005 14.5828 18.2558 14.6903 18.1862 14.7682C18.1167 14.8462 18.0271 14.8892 17.9344 14.8893H17.9354ZM14.4569 13.9539C14.4322 13.9539 14.4075 13.951 14.3833 13.9452L14.0108 13.8517C13.539 13.7329 13.0728 13.5809 12.6143 13.3963C12.518 13.3573 12.4378 13.2714 12.3914 13.1574C12.345 13.0434 12.3361 12.9106 12.3667 12.7883C12.3974 12.666 12.465 12.5641 12.5548 12.5051C12.6445 12.4462 12.7491 12.4349 12.8454 12.4738C13.2766 12.6479 13.7152 12.7911 14.1591 12.9028L14.5285 12.9954C14.7344 13.0479 14.6341 13.9552 14.4556 13.9552L14.4569 13.9539ZM11.084 12.5735C11.0248 12.5734 10.9665 12.5559 10.9136 12.5222C10.3636 12.1734 9.83856 11.7642 9.34449 11.2995C9.30375 11.2619 9.26929 11.2144 9.24309 11.1598C9.2169 11.1052 9.19949 11.0445 9.19188 10.9812C9.18427 10.918 9.1866 10.8535 9.19875 10.7914C9.2109 10.7293 9.23261 10.6709 9.26264 10.6196C9.29267 10.5682 9.33042 10.525 9.3737 10.4923C9.41698 10.4596 9.46494 10.4381 9.51479 10.4291C9.56465 10.4201 9.61541 10.4238 9.66415 10.4399C9.71289 10.4559 9.75863 10.4842 9.79873 10.5228C10.2573 10.9539 10.7445 11.3334 11.2549 11.6572C11.3316 11.706 11.393 11.7863 11.4293 11.885C11.4656 11.9838 11.4746 12.0952 11.4548 12.2012C11.4351 12.3072 11.3877 12.4017 11.3204 12.4693C11.2531 12.5368 11.1698 12.5736 11.084 12.5735V12.5735ZM8.25295 9.88585C8.19996 9.88589 8.14754 9.87188 8.09906 9.84473C8.05057 9.81757 8.00708 9.77786 7.97137 9.72813C7.55427 9.14758 7.18535 8.51402 6.87043 7.83746C6.82147 7.7271 6.80855 7.59675 6.83443 7.47441C6.86032 7.35207 6.92294 7.24751 7.00886 7.18319C7.09477 7.11887 7.19712 7.09991 7.29391 7.1304C7.3907 7.16089 7.47422 7.23839 7.52652 7.34625C7.81487 7.96519 8.15256 8.54481 8.53428 9.07598C8.58404 9.14527 8.61688 9.23144 8.62879 9.32401C8.64071 9.41658 8.63118 9.51155 8.60137 9.59736C8.57156 9.68318 8.52275 9.75613 8.46089 9.80735C8.39903 9.85857 8.32679 9.88584 8.25295 9.88585V9.88585ZM6.46469 6.02517C6.3847 6.02523 6.30672 5.99329 6.24183 5.9339C6.17693 5.8745 6.1284 5.79066 6.10312 5.69425C5.90863 4.94789 5.7748 4.17819 5.70373 3.3972C5.69205 3.26974 5.7207 3.14161 5.78339 3.04099C5.84607 2.94038 5.93766 2.87551 6.038 2.86067C6.13833 2.84583 6.2392 2.88223 6.31841 2.96186C6.39762 3.04149 6.44869 3.15783 6.46037 3.28528C6.52521 4.00073 6.64772 4.70582 6.826 5.38946C6.84501 5.46216 6.85017 5.53956 6.84103 5.61528C6.8319 5.691 6.80874 5.76289 6.77347 5.82502C6.73819 5.88716 6.6918 5.93776 6.63812 5.97267C6.58443 6.00757 6.52499 6.02579 6.46469 6.02581V6.02517Z" fill="#10CD00"/>
<path d="M24.357 40.0318C22.6929 37.8018 21.4729 34.7423 20.65 31.4847C20.5507 31.4422 20.4517 31.399 20.3506 31.359C20.2703 31.3258 20.2008 31.2595 20.1533 31.1707C20.1058 31.0819 20.083 30.9756 20.0883 30.8684C20.0936 30.7612 20.1268 30.6594 20.1827 30.5789C20.2387 30.4983 20.3141 30.4437 20.3971 30.4236C19.9629 28.476 19.6581 26.4856 19.4858 24.4733C18.734 24.7029 17.963 24.8165 17.1898 24.8116C16.2898 24.8242 15.3953 24.6312 14.5491 24.2417C14.4328 25.691 14.2482 27.1301 13.9961 28.5513C14.3988 28.7255 14.8401 28.8884 15.338 29.0445C15.3866 29.0597 15.4323 29.0869 15.4726 29.1246C15.5129 29.1623 15.5469 29.2097 15.5728 29.2641C15.5986 29.3185 15.6158 29.3788 15.6233 29.4416C15.6308 29.5044 15.6285 29.5685 15.6166 29.6302C15.6046 29.6919 15.5831 29.75 15.5535 29.8011C15.5238 29.8523 15.4865 29.8956 15.4437 29.9284C15.4009 29.9613 15.3534 29.9831 15.3039 29.9926C15.2545 30.0022 15.204 29.9992 15.1555 29.984C14.6639 29.8295 14.2224 29.6689 13.8174 29.4967C13.0214 33.4741 11.6592 37.3525 9.65966 40.0327C9.5743 40.1469 9.5172 40.2903 9.49544 40.4453C9.47367 40.6003 9.4882 40.76 9.53721 40.9046C9.58623 41.0491 9.66758 41.1723 9.77118 41.2587C9.87478 41.3451 9.99606 41.3909 10.12 41.3906H23.8964C24.0203 41.3909 24.1416 41.3449 24.2451 41.2585C24.3487 41.1721 24.43 41.0491 24.4791 40.9045C24.5281 40.76 24.5427 40.6003 24.521 40.4454C24.4993 40.2904 24.4423 40.147 24.357 40.0327V40.0318ZM19.1136 30.4497C19.0977 30.5612 19.0516 30.662 18.9832 30.7347C18.9148 30.8074 18.8285 30.8473 18.7393 30.8474C18.7165 30.8473 18.6936 30.8449 18.671 30.84C18.5761 30.8185 18.4803 30.7977 18.3836 30.7774C17.8111 30.6604 17.3451 30.5591 16.9168 30.4581C16.8666 30.4481 16.8184 30.4254 16.7752 30.3913C16.732 30.3572 16.6946 30.3125 16.6652 30.2597C16.6358 30.207 16.615 30.1473 16.6041 30.0842C16.5931 30.0211 16.5923 29.9558 16.6015 29.8923C16.6108 29.8288 16.6299 29.7682 16.6579 29.7142C16.6859 29.6603 16.7221 29.614 16.7643 29.578C16.8066 29.5421 16.8542 29.5173 16.9041 29.5051C16.9541 29.4929 17.0054 29.4936 17.0552 29.507C17.4779 29.6063 17.9383 29.7063 18.5045 29.8221C18.606 29.8436 18.7067 29.8651 18.8064 29.8866C18.8557 29.8979 18.9028 29.9214 18.9449 29.9558C18.9871 29.9902 19.0234 30.0349 19.052 30.0872C19.0805 30.1395 19.1007 30.1985 19.1112 30.2607C19.1218 30.3229 19.1226 30.3871 19.1136 30.4497V30.4497Z" fill="#10CD00"/>
<path d="M17.933 22.4835C17.7289 22.4853 17.5251 22.465 17.3237 22.4229C17.2242 22.401 17.1356 22.3298 17.0774 22.225C17.0193 22.1202 16.9962 21.9903 17.0134 21.864C17.0232 21.8048 17.0426 21.7488 17.0703 21.6997C17.0981 21.6505 17.1336 21.6092 17.1747 21.5785C17.2157 21.5478 17.2613 21.5282 17.3086 21.5211C17.3559 21.514 17.4038 21.5195 17.4493 21.5372C18.0905 21.6413 18.7418 21.5259 19.3361 21.2031C19.3361 21.1363 19.3326 21.0663 19.3326 20.9999V20.5161H14.6833V20.9999C14.6833 21.7346 14.6602 22.5006 14.615 23.2866C14.6808 23.3257 14.7447 23.3602 14.8039 23.3892C16.0612 24.0049 17.9579 23.983 19.4118 23.4598C19.3864 23.0373 19.3661 22.6213 19.3529 22.211C18.8931 22.392 18.4144 22.4839 17.933 22.4835V22.4835Z" fill="#10CD00"/>
<path d="M26.4474 37.8929C26.3559 37.8927 26.2675 37.8507 26.1984 37.7745C26.1294 37.6984 26.0842 37.5932 26.0711 37.4782C25.9916 36.7806 25.8298 36.1022 25.5912 35.4659C25.5478 35.35 25.5424 35.217 25.5762 35.0961C25.61 34.9752 25.6803 34.8763 25.7715 34.8212C25.8627 34.766 25.9674 34.7592 26.0626 34.8021C26.1578 34.8451 26.2356 34.9343 26.279 35.0502C26.5506 35.7742 26.7346 36.5463 26.8247 37.3401C26.8319 37.403 26.8292 37.4671 26.8169 37.5287C26.8046 37.5903 26.7828 37.6482 26.7529 37.6991C26.723 37.7501 26.6854 37.793 26.6424 37.8255C26.5994 37.8579 26.5518 37.8793 26.5022 37.8884C26.4841 37.8917 26.4657 37.8932 26.4474 37.8929V37.8929ZM24.9587 33.8652C24.9043 33.8653 24.8505 33.8505 24.8009 33.8219C24.7513 33.7933 24.7071 33.7515 24.6713 33.6994C24.2985 33.1612 23.8793 32.6778 23.4216 32.2583C23.3399 32.1828 23.2852 32.0692 23.2695 31.9424C23.2538 31.8156 23.2783 31.6861 23.3378 31.5823C23.3973 31.4786 23.4867 31.4091 23.5865 31.3891C23.6863 31.3691 23.7883 31.4004 23.87 31.4759C24.3738 31.9381 24.8353 32.4707 25.2456 33.0637C25.2936 33.1337 25.3247 33.2197 25.3353 33.3116C25.3458 33.4034 25.3354 33.4972 25.3051 33.5817C25.2749 33.6661 25.2261 33.7378 25.1647 33.7881C25.1033 33.8383 25.0318 33.8651 24.9587 33.8652V33.8652ZM22.1521 31.1495C22.095 31.1528 22.0381 31.1398 21.9855 31.1114C21.4565 30.8283 20.912 30.5947 20.3562 30.4125C20.3058 30.399 20.258 30.3727 20.2158 30.3351C20.1737 30.2975 20.1379 30.2494 20.1108 30.1937C20.0837 30.1381 20.0658 30.076 20.0581 30.0113C20.0504 29.9466 20.0531 29.8805 20.0661 29.8172C20.0791 29.7539 20.102 29.6945 20.1336 29.6428C20.1652 29.591 20.2046 29.548 20.2497 29.5162C20.2947 29.4844 20.3444 29.4646 20.3956 29.4578C20.4469 29.4511 20.4987 29.4577 20.5479 29.4772C21.1398 29.671 21.7198 29.9197 22.2831 30.2212C22.3626 30.264 22.4284 30.3398 22.4696 30.4363C22.5107 30.5328 22.5249 30.6441 22.5096 30.7522C22.4944 30.8602 22.4507 30.9584 22.3857 31.0307C22.3208 31.103 22.2384 31.1451 22.1521 31.1501V31.1495ZM18.7411 29.8442C18.7183 29.8443 18.6955 29.8418 18.673 29.8368C18.5781 29.8153 18.4823 29.7945 18.3856 29.7745C17.8131 29.6571 17.3471 29.5559 16.9188 29.4549C16.8685 29.4449 16.8204 29.4221 16.7772 29.3881C16.7339 29.354 16.6965 29.3093 16.6672 29.2565C16.6378 29.2038 16.617 29.1441 16.6061 29.081C16.5951 29.0179 16.5943 28.9526 16.6035 28.8891C16.6127 28.8255 16.6319 28.765 16.6599 28.711C16.6878 28.6571 16.724 28.6107 16.7663 28.5748C16.8086 28.5389 16.8561 28.5141 16.9061 28.5019C16.956 28.4897 17.0074 28.4903 17.0572 28.5038C17.4799 28.6031 17.9403 28.7031 18.5065 28.8192C18.608 28.8395 18.7096 28.8618 18.8084 28.8837C18.9019 28.9052 18.9857 28.9704 19.0434 29.0664C19.101 29.1625 19.1283 29.2824 19.1199 29.4027C19.1114 29.523 19.0679 29.6349 18.9978 29.7165C18.9277 29.798 18.8361 29.8434 18.7411 29.8436V29.8442ZM15.2481 28.994C15.2172 28.9941 15.1864 28.9893 15.1564 28.9798C14.5657 28.7994 13.9837 28.5761 13.4131 28.3109C13.3185 28.266 13.2417 28.1752 13.1998 28.0585C13.1578 27.9418 13.1541 27.8086 13.1894 27.6884C13.2247 27.5682 13.2962 27.4707 13.3881 27.4174C13.48 27.3641 13.5848 27.3594 13.6795 27.4043C14.2226 27.6567 14.7767 27.8691 15.339 28.0406C15.4292 28.069 15.5082 28.1384 15.561 28.2356C15.6137 28.3328 15.6367 28.4512 15.6255 28.5684C15.6143 28.6856 15.5698 28.7936 15.5003 28.872C15.4308 28.9504 15.3411 28.9938 15.2481 28.994ZM11.96 27.3362C11.8834 27.3363 11.8086 27.3068 11.7455 27.2517C11.1877 26.7968 10.7366 26.1596 10.4396 25.4068C10.4179 25.3493 10.4053 25.2868 10.4026 25.223C10.4 25.1592 10.4073 25.0954 10.4242 25.0353C10.441 24.9751 10.4671 24.9198 10.5009 24.8725C10.5347 24.8252 10.5755 24.7868 10.621 24.7597C10.6665 24.7325 10.7158 24.717 10.766 24.7142C10.8162 24.7113 10.8664 24.7212 10.9136 24.7431C10.9608 24.765 11.0042 24.7985 11.0411 24.8418C11.0781 24.8851 11.108 24.9373 11.129 24.9953C11.3676 25.5927 11.7294 26.0965 12.1758 26.4531C12.243 26.5115 12.2937 26.5957 12.3204 26.6933C12.3472 26.7909 12.3487 26.8968 12.3246 26.9956C12.3005 27.0943 12.2522 27.1806 12.1867 27.2419C12.1211 27.3033 12.0419 27.3363 11.9605 27.3362H11.96ZM10.6496 23.492C10.6093 23.4922 10.5693 23.484 10.531 23.4678C10.4835 23.448 10.4395 23.4165 10.4015 23.3751C10.3636 23.3337 10.3324 23.2832 10.3098 23.2265C10.2872 23.1698 10.2737 23.108 10.2699 23.0447C10.2661 22.9813 10.2722 22.9176 10.2878 22.8573C10.4999 22.0416 10.9073 21.3304 11.453 20.8231C11.5342 20.7467 11.6359 20.7144 11.7359 20.7333C11.8358 20.7523 11.9258 20.8208 11.9859 20.924C12.046 21.0272 12.0714 21.1565 12.0565 21.2834C12.0416 21.4104 11.9876 21.5246 11.9064 21.601C11.4873 21.9894 11.1744 22.5347 11.0114 23.1604C10.9862 23.257 10.9377 23.341 10.8727 23.4005C10.8078 23.4601 10.7297 23.4921 10.6496 23.492Z" fill="#10CD00"/>
<path d="M17.8688 21.5369C17.6647 21.5388 17.4609 21.5186 17.2595 21.4766C17.2102 21.4657 17.1631 21.4427 17.1208 21.4087C17.0785 21.3747 17.042 21.3305 17.0131 21.2786C16.9843 21.2266 16.9639 21.168 16.9529 21.106C16.9419 21.044 16.9407 20.9799 16.9492 20.9173C16.9577 20.8547 16.9759 20.7949 17.0026 20.7412C17.0294 20.6875 17.0642 20.641 17.1051 20.6044C17.146 20.5678 17.1921 20.5418 17.2409 20.5279C17.2897 20.5139 17.3402 20.5123 17.3895 20.5232C18.2167 20.7044 19.4306 20.3619 19.7092 19.8678C19.7483 19.7985 19.7749 19.7288 19.7092 19.5746C19.5451 19.2709 19.3056 19.0459 19.0289 18.9357C18.9349 18.8883 18.8596 18.7953 18.8195 18.6774C18.7795 18.5594 18.7779 18.426 18.8153 18.3066C18.8526 18.1872 18.9258 18.0915 19.0186 18.0406C19.1115 17.9897 19.2165 17.9878 19.3105 18.0352C19.7544 18.2233 20.132 18.604 20.3769 19.1105C20.4726 19.3119 20.5191 19.5449 20.5106 19.7799C20.502 20.0149 20.4387 20.2414 20.3287 20.4306C19.8996 21.1934 18.7727 21.5369 17.8688 21.5369Z" fill="#10CD00"/>
</g>
<defs>
<clipPath id="clip0_1144_801">
<rect width="32.5" height="41.2838" fill="white" transform="translate(0.75 0.35791)"/>
</clipPath>
</defs>
</svg>
