<svg width="34" height="34" viewBox="0 0 34 34" fill="none" xmlns="http://www.w3.org/2000/svg">
<g clip-path="url(#clip0_1146_1162)">
<path d="M7.03737 31.6502C7.2563 31.3962 7.49926 31.1641 7.76286 30.9569C8.16365 30.6742 8.47429 30.2819 8.65746 29.8269C8.83573 29.4164 8.87034 28.9578 8.75569 28.5252C8.60291 27.8063 8.66895 27.0582 8.9453 26.3772C9.22165 25.6962 9.69564 25.1136 10.3062 24.7044C10.6825 24.4653 10.9749 24.1148 11.1426 23.7017C11.3103 23.2885 11.345 22.8334 11.2418 22.3996C11.0762 21.6815 11.1426 20.9294 11.4315 20.2515C11.63 19.7465 11.931 19.2881 12.3156 18.9052C12.4703 18.7505 12.6198 18.6229 12.7649 18.4989C13.0514 18.2817 13.296 18.0142 13.4868 17.7095C12.6042 17.7995 11.73 17.9589 10.8723 18.1862C10.6966 18.2342 10.5326 18.3181 10.3909 18.4326C10.2491 18.547 10.1326 18.6896 10.0486 18.8513C9.03387 20.7952 7.84097 21.4632 6.85845 23.6286C5.79704 25.9682 7.10518 26.6978 6.04376 29.0372C5.12982 31.052 4.03282 30.7904 3.06809 32.1735C3.01392 32.2509 2.98198 32.3416 2.97574 32.4359C2.9695 32.5301 2.9892 32.6242 3.03269 32.7081C3.07619 32.7919 3.14183 32.8622 3.22247 32.9114C3.30311 32.9605 3.39568 32.9867 3.49013 32.9869H6.85175C6.75408 32.7692 6.7197 32.5283 6.75253 32.2919C6.78536 32.0555 6.88407 31.8331 7.03737 31.6502Z" fill="#10CD00"/>
<path d="M7.03737 31.6502C7.2563 31.3962 7.49926 31.1641 7.76286 30.9569C8.16365 30.6742 8.47429 30.2819 8.65746 29.8269C8.83573 29.4164 8.87034 28.9578 8.75569 28.5252C8.60291 27.8063 8.66895 27.0582 8.9453 26.3772C9.22165 25.6962 9.69564 25.1136 10.3062 24.7044C10.6825 24.4653 10.9749 24.1148 11.1426 23.7017C11.3103 23.2885 11.345 22.8334 11.2418 22.3996C11.0762 21.6815 11.1426 20.9294 11.4315 20.2515C11.63 19.7465 11.931 19.2881 12.3156 18.9052C12.4703 18.7505 12.6198 18.6229 12.7649 18.4989C13.0514 18.2817 13.296 18.0142 13.4868 17.7095C12.6042 17.7995 11.73 17.9589 10.8723 18.1862C10.6966 18.2342 10.5326 18.3181 10.3909 18.4326C10.2491 18.547 10.1326 18.6896 10.0486 18.8513C9.03387 20.7952 7.84097 21.4632 6.85845 23.6286C5.79704 25.9682 7.10518 26.6978 6.04376 29.0372C5.12982 31.052 4.03282 30.7904 3.06809 32.1735C3.01392 32.2509 2.98198 32.3416 2.97574 32.4359C2.9695 32.5301 2.9892 32.6242 3.03269 32.7081C3.07619 32.7919 3.14183 32.8622 3.22247 32.9114C3.30311 32.9605 3.39568 32.9867 3.49013 32.9869H6.85175C6.75408 32.7692 6.7197 32.5283 6.75253 32.2919C6.78536 32.0555 6.88407 31.8331 7.03737 31.6502Z" fill="#10CD00"/>
<path d="M7.03737 31.6502C7.2563 31.3962 7.49926 31.1641 7.76286 30.9569C8.16365 30.6742 8.47429 30.2819 8.65746 29.8269C8.83573 29.4164 8.87034 28.9578 8.75569 28.5252C8.60291 27.8063 8.66895 27.0582 8.9453 26.3772C9.22165 25.6962 9.69564 25.1136 10.3062 24.7044C10.6825 24.4653 10.9749 24.1148 11.1426 23.7017C11.3103 23.2885 11.345 22.8334 11.2418 22.3996C11.0762 21.6815 11.1426 20.9294 11.4315 20.2515C11.63 19.7465 11.931 19.2881 12.3156 18.9052C12.4703 18.7505 12.6198 18.6229 12.7649 18.4989C13.0514 18.2817 13.296 18.0142 13.4868 17.7095C12.6042 17.7995 11.73 17.9589 10.8723 18.1862C10.6966 18.2342 10.5326 18.3181 10.3909 18.4326C10.2491 18.547 10.1326 18.6896 10.0486 18.8513C9.03387 20.7952 7.84097 21.4632 6.85845 23.6286C5.79704 25.9682 7.10518 26.6978 6.04376 29.0372C5.12982 31.052 4.03282 30.7904 3.06809 32.1735C3.01392 32.2509 2.98198 32.3416 2.97574 32.4359C2.9695 32.5301 2.9892 32.6242 3.03269 32.7081C3.07619 32.7919 3.14183 32.8622 3.22247 32.9114C3.30311 32.9605 3.39568 32.9867 3.49013 32.9869H6.85175C6.75408 32.7692 6.7197 32.5283 6.75253 32.2919C6.78536 32.0555 6.88407 31.8331 7.03737 31.6502Z" fill="#10CD00"/>
<path d="M30.9326 32.1732C29.9679 30.7906 28.8701 31.0518 27.957 29.037C26.8956 26.6976 28.2037 25.969 27.1423 23.6283C26.16 21.4627 24.9661 20.7949 23.9521 18.8521C23.8681 18.6902 23.7513 18.5475 23.6093 18.433C23.4673 18.3185 23.3031 18.2347 23.1271 18.1869C22.2698 17.9596 21.396 17.8001 20.5137 17.71C20.7047 18.0143 20.9492 18.2815 21.2355 18.4986C21.3807 18.6226 21.531 18.7508 21.6849 18.9049C22.0696 19.2878 22.3707 19.7463 22.5692 20.2515C22.8582 20.9293 22.9247 21.6813 22.759 22.3993C22.6557 22.8331 22.6904 23.2882 22.8581 23.7014C23.0258 24.1145 23.3182 24.4651 23.6946 24.7042C24.3051 25.1133 24.779 25.6959 25.0554 26.3769C25.3317 27.0579 25.3978 27.8061 25.245 28.5249C25.1304 28.9575 25.165 29.4161 25.3433 29.8266C25.5264 30.2816 25.8371 30.674 26.2379 30.9566C26.5015 31.1638 26.7444 31.396 26.9634 31.6499C27.1167 31.8328 27.2154 32.0552 27.2482 32.2916C27.281 32.528 27.2467 32.7689 27.149 32.9866H30.5098C30.6043 32.9865 30.697 32.9605 30.7778 32.9114C30.8585 32.8623 30.9243 32.792 30.9679 32.7081C31.0115 32.6243 31.0312 32.5301 31.025 32.4358C31.0188 32.3415 30.9869 32.2507 30.9326 32.1732V32.1732Z" fill="#10CD00"/>
<path d="M30.9326 32.1732C29.9679 30.7906 28.8701 31.0518 27.957 29.037C26.8956 26.6976 28.2037 25.969 27.1423 23.6283C26.16 21.4627 24.9661 20.7949 23.9521 18.8521C23.8681 18.6902 23.7513 18.5475 23.6093 18.433C23.4673 18.3185 23.3031 18.2347 23.1271 18.1869C22.2698 17.9596 21.396 17.8001 20.5137 17.71C20.7047 18.0143 20.9492 18.2815 21.2355 18.4986C21.3807 18.6226 21.531 18.7508 21.6849 18.9049C22.0696 19.2878 22.3707 19.7463 22.5692 20.2515C22.8582 20.9293 22.9247 21.6813 22.759 22.3993C22.6557 22.8331 22.6904 23.2882 22.8581 23.7014C23.0258 24.1145 23.3182 24.4651 23.6946 24.7042C24.3051 25.1133 24.779 25.6959 25.0554 26.3769C25.3317 27.0579 25.3978 27.8061 25.245 28.5249C25.1304 28.9575 25.165 29.4161 25.3433 29.8266C25.5264 30.2816 25.8371 30.674 26.2379 30.9566C26.5015 31.1638 26.7444 31.396 26.9634 31.6499C27.1167 31.8328 27.2154 32.0552 27.2482 32.2916C27.281 32.528 27.2467 32.7689 27.149 32.9866H30.5098C30.6043 32.9865 30.697 32.9605 30.7778 32.9114C30.8585 32.8623 30.9243 32.792 30.9679 32.7081C31.0115 32.6243 31.0312 32.5301 31.025 32.4358C31.0188 32.3415 30.9869 32.2507 30.9326 32.1732V32.1732Z" fill="#10CD00"/>
<path d="M30.9326 32.1732C29.9679 30.7906 28.8701 31.0518 27.957 29.037C26.8956 26.6976 28.2037 25.969 27.1423 23.6283C26.16 21.4627 24.9661 20.7949 23.9521 18.8521C23.8681 18.6902 23.7513 18.5475 23.6093 18.433C23.4673 18.3185 23.3031 18.2347 23.1271 18.1869C22.2698 17.9596 21.396 17.8001 20.5137 17.71C20.7047 18.0143 20.9492 18.2815 21.2355 18.4986C21.3807 18.6226 21.531 18.7508 21.6849 18.9049C22.0696 19.2878 22.3707 19.7463 22.5692 20.2515C22.8582 20.9293 22.9247 21.6813 22.759 22.3993C22.6557 22.8331 22.6904 23.2882 22.8581 23.7014C23.0258 24.1145 23.3182 24.4651 23.6946 24.7042C24.3051 25.1133 24.779 25.6959 25.0554 26.3769C25.3317 27.0579 25.3978 27.8061 25.245 28.5249C25.1304 28.9575 25.165 29.4161 25.3433 29.8266C25.5264 30.2816 25.8371 30.674 26.2379 30.9566C26.5015 31.1638 26.7444 31.396 26.9634 31.6499C27.1167 31.8328 27.2154 32.0552 27.2482 32.2916C27.281 32.528 27.2467 32.7689 27.149 32.9866H30.5098C30.6043 32.9865 30.697 32.9605 30.7778 32.9114C30.8585 32.8623 30.9243 32.792 30.9679 32.7081C31.0115 32.6243 31.0312 32.5301 31.025 32.4358C31.0188 32.3415 30.9869 32.2507 30.9326 32.1732V32.1732Z" fill="#10CD00"/>
<path d="M32.9912 14.2107C31.8586 13.2101 29.412 11.4263 23.9912 10.8666C19.473 10.3999 14.9188 10.3999 10.4006 10.8666C4.97934 11.426 2.53296 13.2101 1.40039 14.2109C11.8836 12.8027 22.508 12.8027 32.9912 14.2107V14.2107Z" fill="#10CD00"/>
<path d="M17.0004 6.91797C13.6187 6.91797 10.8452 8.94566 10.2891 10.8713V12.1232H23.7118V10.8713C23.1557 8.94566 20.3822 6.91797 17.0004 6.91797ZM13.2934 9.4337C13.1075 9.5414 12.9386 9.67597 12.7922 9.83305C12.7573 9.89089 12.7082 9.93878 12.6495 9.9721C12.5908 10.0054 12.5245 10.0231 12.457 10.0233C12.3898 10.0232 12.3238 10.0054 12.2656 9.97192C12.2074 9.93839 12.1589 9.89023 12.1251 9.8322C12.0912 9.77417 12.0731 9.7083 12.0725 9.64111C12.0719 9.57392 12.089 9.50776 12.1219 9.44917C12.3294 9.17591 12.5896 8.94702 12.887 8.77602C12.9742 8.72454 13.0781 8.7093 13.1764 8.73357C13.2747 8.75783 13.3595 8.81968 13.4127 8.90581C13.4659 8.99195 13.4832 9.09552 13.4609 9.19427C13.4386 9.29301 13.3784 9.37907 13.2934 9.43396V9.4337Z" fill="#10CD00"/>
<path d="M33.0406 14.9846C33.0222 14.9845 33.0039 14.9833 32.9856 14.981C22.506 13.5636 11.8833 13.5636 1.40362 14.981C1.3834 14.983 1.36306 14.9835 1.34277 14.9825C2.95359 16.7423 5.91198 17.9744 9.24163 18.7154C9.28211 18.6429 9.32259 18.5707 9.36229 18.4942C9.49599 18.2381 9.68108 18.0123 9.90599 17.831C10.1309 17.6497 10.3908 17.5168 10.6694 17.4405C12.8116 16.8594 14.9692 16.7792 16.9817 16.7792H17.0031C19.3376 16.7792 21.3067 16.8926 23.3295 17.4405C23.6084 17.5168 23.8685 17.6499 24.0935 17.8315C24.3185 18.013 24.5036 18.239 24.6372 18.4955C24.6905 18.5986 24.7447 18.6965 24.7993 18.7919C28.269 18.0603 31.3792 16.8042 33.0493 14.9843C33.0457 14.9833 33.0431 14.9846 33.0406 14.9846Z" fill="#10CD00"/>
<path d="M10.8047 4.70508C11.4632 4.70508 11.9971 4.17123 11.9971 3.5127C11.9971 2.85416 11.4632 2.32031 10.8047 2.32031C10.1462 2.32031 9.6123 2.85416 9.6123 3.5127C9.6123 4.17123 10.1462 4.70508 10.8047 4.70508Z" fill="#10CD00"/>
<path d="M28.6576 8.4099C29.147 8.4099 29.5437 8.01318 29.5437 7.5238C29.5437 7.03442 29.147 6.6377 28.6576 6.6377C28.1682 6.6377 27.7715 7.03442 27.7715 7.5238C27.7715 8.01318 28.1682 8.4099 28.6576 8.4099Z" fill="#10CD00"/>
<path d="M21.5163 4.18448C21.9379 4.18448 22.2797 3.8427 22.2797 3.4211C22.2797 2.99949 21.9379 2.65771 21.5163 2.65771C21.0947 2.65771 20.7529 2.99949 20.7529 3.4211C20.7529 3.8427 21.0947 4.18448 21.5163 4.18448Z" fill="#10CD00"/>
<path d="M5.41376 8.81043C5.79706 8.81043 6.10779 8.4997 6.10779 8.11639C6.10779 7.73309 5.79706 7.42236 5.41376 7.42236C5.03046 7.42236 4.71973 7.73309 4.71973 8.11639C4.71973 8.4997 5.03046 8.81043 5.41376 8.81043Z" fill="#10CD00"/>
<path d="M26.3686 32.1446C25.7918 31.4508 25.1009 31.2871 24.6265 30.1177C24.0052 28.5863 24.9617 28.197 24.3378 26.6656C23.7139 25.1342 22.7625 25.5235 22.1412 23.9921C21.5199 22.4607 22.4738 22.0739 21.8525 20.5425C21.6935 20.133 21.4502 19.7614 21.1383 19.452C20.615 18.9286 20.0349 18.6605 19.6198 17.637H19.6018C19.1712 17.6086 18.7432 17.588 18.3101 17.5725C17.9234 17.5599 17.5367 17.555 17.1484 17.5537C17.1002 17.5537 17.0517 17.5537 17.0035 17.5537C16.9553 17.5537 16.905 17.5537 16.8558 17.5537C16.4675 17.5537 16.0795 17.5599 15.6907 17.5725C15.2525 17.588 14.8168 17.6086 14.381 17.637C13.966 18.6605 13.3859 18.9286 12.8625 19.452C12.5507 19.7614 12.3074 20.133 12.1484 20.5425C11.5271 22.0739 12.481 22.4607 11.8596 23.9921C11.2383 25.5235 10.2844 25.1367 9.66308 26.6656C9.04175 28.1944 9.99566 28.5863 9.37433 30.1177C8.89995 31.2871 8.20902 31.4508 7.63229 32.1446C7.57049 32.2201 7.53138 32.3115 7.51948 32.4084C7.50758 32.5052 7.52339 32.6034 7.56507 32.6916C7.60675 32.7798 7.67259 32.8543 7.75495 32.9066C7.83731 32.9589 7.93281 32.9867 8.03035 32.9869H25.9705C26.068 32.9867 26.1635 32.9589 26.2459 32.9066C26.3283 32.8543 26.3941 32.7798 26.4358 32.6916C26.4775 32.6034 26.4933 32.5052 26.4814 32.4084C26.4695 32.3115 26.4304 32.2201 26.3686 32.1446V32.1446ZM12.0056 28.6641L11.8251 28.7621C11.811 28.7701 11.7993 28.7817 11.7913 28.7959L11.6934 28.9764C11.6861 28.9898 11.6753 29.0009 11.6622 29.0087C11.6491 29.0165 11.6341 29.0206 11.6188 29.0206C11.6036 29.0206 11.5886 29.0165 11.5755 29.0087C11.5624 29.0009 11.5516 28.9898 11.5443 28.9764L11.4461 28.7959C11.4383 28.7816 11.4266 28.7699 11.4123 28.7621L11.2319 28.6641C11.2185 28.6568 11.2073 28.6461 11.1995 28.633C11.1917 28.6199 11.1876 28.6049 11.1876 28.5896C11.1876 28.5744 11.1917 28.5594 11.1995 28.5463C11.2073 28.5332 11.2185 28.5224 11.2319 28.5151L11.4123 28.4169C11.4267 28.4092 11.4385 28.3975 11.4461 28.3831L11.5443 28.2027C11.5517 28.1893 11.5625 28.1782 11.5756 28.1705C11.5887 28.1627 11.6036 28.1586 11.6188 28.1586C11.6341 28.1586 11.649 28.1627 11.6621 28.1705C11.6752 28.1782 11.686 28.1893 11.6934 28.2027L11.7913 28.3831C11.7991 28.3974 11.8108 28.4091 11.8251 28.4169L12.0056 28.5151C12.019 28.5224 12.0301 28.5332 12.0379 28.5463C12.0457 28.5594 12.0498 28.5744 12.0498 28.5896C12.0498 28.6049 12.0457 28.6199 12.0379 28.633C12.0301 28.6461 12.019 28.6568 12.0056 28.6641V28.6641ZM14.577 20.9189C14.5769 20.8748 14.59 20.8317 14.6144 20.795C14.6389 20.7583 14.6737 20.7296 14.7145 20.7127C14.7552 20.6958 14.8001 20.6913 14.8433 20.6999C14.8866 20.7085 14.9264 20.7297 14.9576 20.7609C14.9888 20.7921 15.0101 20.8318 15.0187 20.8751C15.0273 20.9183 15.0229 20.9632 15.0061 21.004C14.9892 21.0447 14.9606 21.0796 14.9239 21.1041C14.8872 21.1286 14.8441 21.1417 14.8 21.1417C14.7409 21.1417 14.6842 21.1182 14.6424 21.0765C14.6006 21.0347 14.5771 20.978 14.577 20.9189V20.9189ZM14.9823 27.4898C14.9329 27.4898 14.8846 27.4752 14.8435 27.4477C14.8024 27.4203 14.7704 27.3812 14.7515 27.3356C14.7326 27.2899 14.7276 27.2397 14.7372 27.1912C14.7469 27.1428 14.7707 27.0983 14.8056 27.0633C14.8406 27.0284 14.8851 27.0046 14.9335 26.995C14.982 26.9853 15.0322 26.9903 15.0779 27.0092C15.1235 27.0281 15.1625 27.0601 15.19 27.1012C15.2174 27.1423 15.2321 27.1906 15.2321 27.24C15.2322 27.3061 15.206 27.3696 15.1594 27.4164C15.1127 27.4633 15.0494 27.4898 14.9833 27.4901L14.9823 27.4898ZM16.5949 31.6955C16.5313 31.6955 16.4691 31.6766 16.4163 31.6413C16.3634 31.606 16.3222 31.5558 16.2979 31.497C16.2735 31.4383 16.2672 31.3736 16.2796 31.3113C16.292 31.2489 16.3226 31.1916 16.3676 31.1467C16.4125 31.1017 16.4698 31.0711 16.5322 31.0587C16.5945 31.0463 16.6592 31.0527 16.7179 31.077C16.7767 31.1013 16.8269 31.1425 16.8622 31.1954C16.8975 31.2483 16.9164 31.3104 16.9164 31.374C16.9164 31.4162 16.9081 31.4581 16.892 31.4971C16.8758 31.5361 16.8521 31.5716 16.8223 31.6014C16.7924 31.6313 16.757 31.655 16.718 31.6711C16.6789 31.6872 16.6371 31.6955 16.5949 31.6955V31.6955ZM16.5949 24.4252C16.5313 24.4252 16.4691 24.4063 16.4162 24.371C16.3634 24.3357 16.3222 24.2854 16.2978 24.2267C16.2735 24.1679 16.2672 24.1033 16.2796 24.0409C16.292 23.9785 16.3227 23.9212 16.3676 23.8763C16.4126 23.8313 16.4699 23.8007 16.5323 23.7883C16.5947 23.776 16.6594 23.7824 16.7181 23.8067C16.7768 23.8311 16.827 23.8724 16.8623 23.9253C16.8976 23.9782 16.9164 24.0404 16.9164 24.104C16.9164 24.1462 16.9081 24.188 16.8919 24.2269C16.8757 24.2659 16.8521 24.3014 16.8222 24.3312C16.7923 24.361 16.7569 24.3847 16.7179 24.4008C16.6789 24.4169 16.6371 24.4252 16.5949 24.4252V24.4252ZM19.1297 21.2283C19.0689 21.2283 19.0094 21.2103 18.9588 21.1765C18.9082 21.1428 18.8688 21.0948 18.8455 21.0386C18.8221 20.9825 18.8159 20.9207 18.8277 20.861C18.8394 20.8013 18.8686 20.7465 18.9115 20.7034C18.9544 20.6603 19.0091 20.6308 19.0687 20.6188C19.1283 20.6067 19.1902 20.6126 19.2464 20.6356C19.3027 20.6587 19.3509 20.6979 19.3849 20.7483C19.4189 20.7988 19.4372 20.8581 19.4375 20.9189C19.4376 20.9594 19.4296 20.9994 19.4142 21.0368C19.3987 21.0741 19.376 21.1081 19.3474 21.1367C19.3188 21.1653 19.2849 21.1879 19.2475 21.2034C19.2102 21.2189 19.1701 21.2268 19.1297 21.2268V21.2283ZM20.9725 25.1213L20.7127 25.2633C20.692 25.2746 20.675 25.2916 20.6637 25.3123L20.5216 25.5722C20.511 25.5916 20.4954 25.6077 20.4764 25.619C20.4575 25.6302 20.4358 25.6362 20.4137 25.6362C20.3917 25.6362 20.37 25.6302 20.351 25.619C20.332 25.6077 20.3164 25.5916 20.3058 25.5722L20.1635 25.3123C20.1524 25.2916 20.1355 25.2746 20.1148 25.2633L19.8549 25.1213C19.8356 25.1107 19.8194 25.095 19.8082 25.076C19.7969 25.057 19.791 25.0353 19.791 25.0133C19.791 24.9912 19.7969 24.9695 19.8082 24.9505C19.8194 24.9315 19.8356 24.9159 19.8549 24.9052L20.1148 24.7632C20.1354 24.7519 20.1523 24.7349 20.1635 24.7142L20.3058 24.4543C20.3164 24.435 20.332 24.4188 20.351 24.4075C20.37 24.3963 20.3917 24.3904 20.4137 24.3904C20.4358 24.3904 20.4575 24.3963 20.4764 24.4075C20.4954 24.4188 20.511 24.435 20.5216 24.4543L20.6637 24.7142C20.675 24.7348 20.692 24.7518 20.7127 24.7632L20.9725 24.9052C20.9919 24.9159 21.008 24.9315 21.0193 24.9505C21.0305 24.9695 21.0365 24.9912 21.0365 25.0133C21.0365 25.0353 21.0305 25.057 21.0193 25.076C21.008 25.095 20.9919 25.1107 20.9725 25.1213V25.1213ZM21.5756 29.922C21.512 29.9221 21.4498 29.9032 21.3969 29.868C21.344 29.8327 21.3027 29.7825 21.2784 29.7237C21.254 29.665 21.2476 29.6003 21.26 29.538C21.2723 29.4756 21.3029 29.4183 21.3479 29.3733C21.3928 29.3283 21.4501 29.2976 21.5125 29.2852C21.5749 29.2728 21.6395 29.2791 21.6983 29.3035C21.757 29.3278 21.8073 29.369 21.8426 29.4219C21.8779 29.4748 21.8968 29.5369 21.8968 29.6005C21.8965 29.6856 21.8626 29.767 21.8024 29.8271C21.7422 29.8871 21.6606 29.9209 21.5756 29.921V29.922Z" fill="#10CD00"/>
</g>
<defs>
<clipPath id="clip0_1146_1162">
<rect width="33" height="33" fill="white" transform="translate(0.5 0.5)"/>
</clipPath>
</defs>
</svg>
