<svg width="32" height="32" viewBox="0 0 32 32" fill="none" xmlns="http://www.w3.org/2000/svg">
<g clip-path="url(#clip0_1161_576)">
<path d="M16.3633 0.751391C16.1816 0.749211 15.8184 0.749211 15.6367 0.751391C7.38951 0.848508 0.742188 7.70871 0.742188 16C0.742188 24.2913 7.38951 31.1515 15.6367 31.2486C15.8184 31.2508 16.1816 31.2508 16.3633 31.2486C24.6105 31.1515 31.2578 24.2913 31.2578 16C31.2578 7.70871 24.6105 0.848508 16.3633 0.751391ZM15.6367 30.522C14.8438 30.5031 14.0537 30.4192 13.2744 30.2711C13.2536 29.6172 13.1214 28.1028 12.359 27.2731C12.1263 27.0284 11.8769 26.8002 11.6125 26.5901C10.9586 26.0484 10.4873 25.657 10.4873 24.4904C10.4873 22.5066 8.23305 20.3935 7.36432 19.7466C6.97431 19.4793 6.54624 19.2724 6.09453 19.1327C5.14443 18.7888 4.39413 18.5173 4.16817 16.8077C3.80295 14.0436 2.8732 13.0875 1.90953 12.4483C2.73603 9.19221 4.66236 6.32175 7.36238 4.32293C8.39325 4.74439 9.54242 4.77556 10.5946 4.4106C11.0662 4.27885 11.4391 4.17398 11.868 4.26529C12.3418 4.36531 12.4936 4.70559 12.7428 5.34859C12.9797 5.9606 13.2756 6.72252 14.1092 7.25485C14.4609 7.47888 14.6312 8.0577 14.5534 8.76513C14.4633 9.58615 14.069 10.3241 13.6375 10.4815C13.5554 10.5108 13.3066 10.6026 12.9109 10.2241C11.8407 9.20034 10.9141 9.45391 10.4551 9.6961C9.64621 10.1248 9.0807 11.1902 9.21996 12.0211L9.28317 12.3914C9.60334 14.2599 9.65711 14.8673 8.66075 15.2073C8.16563 15.3769 7.75747 15.7351 7.525 16.204C7.29253 16.6729 7.25454 17.2146 7.4193 17.7113C7.57221 18.217 7.90925 18.647 8.36383 18.9162C8.53893 19.0172 8.72832 19.1341 8.92885 19.2552C10.2461 20.0605 12.0499 21.1617 13.6915 20.4904C14.3123 20.2421 14.969 20.0949 15.6365 20.0545L15.6367 30.522ZM16.3633 10.2001C17.8402 10.2907 19.2269 10.9412 20.2407 12.019C21.2544 13.0969 21.8188 14.5208 21.8188 16.0005C21.8188 17.4802 21.2544 18.9041 20.2407 19.9819C19.2269 21.0598 17.8402 21.7103 16.3633 21.8009V21.8009V10.2001ZM16.3633 30.042V25.9675C18.9438 25.8731 21.3871 24.7817 23.1794 22.9227C24.9716 21.0637 25.9731 18.5821 25.9731 15.9999C25.9731 13.4176 24.9716 10.936 23.1794 9.07707C21.3871 7.21809 18.9438 6.12664 16.3633 6.03229V1.95797C20.0236 2.05412 23.5017 3.57573 26.0566 6.19864C28.6115 8.82155 30.0413 12.3384 30.0413 16C30.0413 19.6616 28.6115 23.1785 26.0566 25.8014C23.5017 28.4243 20.0236 29.9459 16.3633 30.042V30.042Z" fill="#10CD00"/>
</g>
<defs>
<clipPath id="clip0_1161_576">
<rect width="31" height="31" fill="white" transform="translate(0.5 0.5)"/>
</clipPath>
</defs>
</svg>
