<svg width="36" height="36" viewBox="0 0 36 36" fill="none" xmlns="http://www.w3.org/2000/svg">
<g clip-path="url(#clip0_1144_782)">
<path d="M31.8803 12.4451C27.5998 7.43351 25.0216 8.3102 23.8542 7.09432C22.6869 5.87845 22.4742 4.91828 21.714 4.61348C18.2391 3.22011 13.4921 4.80762 13.2012 6.99698C13.0692 7.99014 14.5632 9.81839 12.8129 10.9857C11.0626 12.1531 9.89442 10.8884 8.9215 10.9857C7.94858 11.0831 3.12307 13.3831 2.4519 13.7592C1.251 14.4295 -0.165945 17.2376 1.82178 19.4167C2.70734 20.3874 5.04507 23.4218 6.14834 25.8708C7.25161 28.3197 11.1239 30.729 12.4235 30.9783C14.8725 31.4479 18.0661 31.8539 20.6443 31.5133C23.2224 31.1728 22.7845 29.3731 25.3627 30.3945C27.9409 31.416 29.0109 32.778 30.6162 31.1728C32.2214 29.5675 32.5412 27.5251 31.8808 25.7734C31.4815 24.7134 32.5595 23.8853 33.4376 22.952C35.5179 20.7405 36.1611 17.4553 31.8803 12.4451ZM7.59774 18.8476C6.8747 19.5224 5.73954 18.4998 5.60891 17.9964C5.40894 17.2199 6.14584 16.3981 6.87581 16.2048C7.60578 16.0115 9.0549 17.4875 7.59774 18.8476ZM14.4257 27.9495C13.8327 28.5696 12.1384 28.0127 12.0533 26.652C11.9978 25.7895 12.7694 24.7287 14.0906 25.3485C15.4119 25.9684 15.0189 27.3293 14.4257 27.9495ZM15.776 19.0661C15.2449 19.5177 14.6051 19.5459 13.9944 18.7225C13.3837 17.8991 14.6902 16.9966 15.8027 17.541C16.3327 17.8003 16.3083 18.6149 15.776 19.0661ZM17.6287 11.6572C16.8729 10.9361 17.7344 8.52819 20.0019 9.3017C20.7583 9.55963 21.0741 10.585 20.5644 11.3055C20.0546 12.026 18.3847 12.378 17.6287 11.6572V11.6572ZM22.8638 23.5195C22.226 23.7319 21.1931 24.7048 20.3439 22.8239C19.4947 20.9429 22.5604 19.6974 23.8345 21.5173C24.4949 22.46 23.5009 23.3067 22.8638 23.5195ZM24.7869 15.5982C24.4297 14.9509 25.4345 13.7678 26.573 14.0132C27.1277 14.133 27.4439 14.7052 27.0642 15.7768C26.6845 16.8485 25.1442 16.2453 24.7869 15.5977V15.5982ZM26.7611 28.7166C26.337 28.3061 26.6127 27.5396 27.2572 27.2744C27.9018 27.0093 28.259 26.6465 28.586 27.618C28.913 28.5896 27.6516 29.578 26.7611 28.7169V28.7166ZM31.2904 21.2796C30.7593 21.7311 30.3474 22.0262 29.7373 21.2031C29.1271 20.3799 30.2054 19.2101 31.3181 19.7542C31.847 20.0138 31.8215 20.8292 31.2904 21.2796Z" fill="#10CD00"/>
<path d="M9.85194 3.42144L10.2194 4.09316C10.2487 4.14652 10.2925 4.1904 10.3459 4.21963L11.0176 4.58711C11.0677 4.6145 11.1095 4.65487 11.1387 4.70399C11.1678 4.7531 11.1832 4.80915 11.1832 4.86626C11.1832 4.92337 11.1678 4.97942 11.1387 5.02853C11.1095 5.07765 11.0677 5.11802 11.0176 5.14541L10.3453 5.51261C10.292 5.54192 10.2482 5.58578 10.2189 5.63908L9.85138 6.31108C9.82394 6.36112 9.78354 6.40285 9.73444 6.43193C9.68533 6.461 9.62931 6.47634 9.57224 6.47634C9.51517 6.47634 9.45915 6.461 9.41004 6.43193C9.36093 6.40285 9.32054 6.36112 9.29309 6.31108L8.92589 5.63908C8.8965 5.58584 8.85265 5.542 8.79942 5.51261L8.12742 5.14541C8.07738 5.11796 8.03564 5.07757 8.00657 5.02846C7.9775 4.97935 7.96216 4.92333 7.96216 4.86626C7.96216 4.80919 7.9775 4.75317 8.00657 4.70406C8.03564 4.65495 8.07738 4.61456 8.12742 4.58711L8.79942 4.21963C8.85272 4.19033 8.89658 4.14646 8.92589 4.09316L9.29309 3.42144C9.32043 3.37119 9.36082 3.32925 9.40999 3.30002C9.45917 3.2708 9.51531 3.25537 9.57251 3.25537C9.62972 3.25537 9.68586 3.2708 9.73504 3.30002C9.78421 3.32925 9.8246 3.37119 9.85194 3.42144V3.42144Z" fill="#10CD00"/>
<path d="M5.73656 7.67812L5.94873 8.0664C5.96563 8.09731 5.99104 8.12272 6.02195 8.13962L6.41023 8.35179C6.43916 8.36759 6.46331 8.39089 6.48013 8.41924C6.49695 8.4476 6.50583 8.47996 6.50583 8.51292C6.50583 8.54589 6.49695 8.57825 6.48013 8.6066C6.46331 8.63496 6.43916 8.65826 6.41023 8.67406L6.02195 8.88623C5.99104 8.90313 5.96563 8.92854 5.94873 8.95945L5.73656 9.34773C5.72076 9.37666 5.69746 9.40081 5.6691 9.41763C5.64075 9.43445 5.60839 9.44333 5.57542 9.44333C5.54246 9.44333 5.5101 9.43445 5.48174 9.41763C5.45339 9.40081 5.43009 9.37666 5.41429 9.34773L5.20184 8.95945C5.18504 8.92856 5.15972 8.90315 5.1289 8.88623L4.74062 8.67406C4.71168 8.65826 4.68754 8.63496 4.67072 8.6066C4.6539 8.57825 4.64502 8.54589 4.64502 8.51292C4.64502 8.47996 4.6539 8.4476 4.67072 8.41924C4.68754 8.39089 4.71168 8.36759 4.74062 8.35179L5.1289 8.13962C5.15972 8.1227 5.18504 8.09729 5.20184 8.0664L5.41429 7.67812C5.43009 7.64918 5.45339 7.62504 5.48174 7.60822C5.5101 7.5914 5.54246 7.58252 5.57542 7.58252C5.60839 7.58252 5.64075 7.5914 5.6691 7.60822C5.69746 7.62504 5.72076 7.64918 5.73656 7.67812V7.67812Z" fill="#10CD00"/>
</g>
<defs>
<clipPath id="clip0_1144_782">
<rect width="35.5" height="35.5" fill="white" transform="translate(0.25 0.25)"/>
</clipPath>
</defs>
</svg>
