<svg width="38" height="38" viewBox="0 0 38 38" fill="none" xmlns="http://www.w3.org/2000/svg">
<path d="M36.1298 17.5994C34.2202 17.4363 32.3907 16.7576 30.8368 15.6359C29.3655 14.5315 28.2967 12.6559 27.3179 11.5657L27.3138 11.6251C26.2827 10.461 25.0187 9.52628 23.6037 8.88139C22.1886 8.2365 20.6539 7.89581 19.0989 7.88134C17.5439 7.86687 16.0032 8.17896 14.5763 8.79741C13.1495 9.41586 11.8684 10.3269 10.8158 11.4716V11.4698C10.8114 11.4746 10.8069 11.4808 10.8025 11.4856C10.4209 11.9015 10.0712 12.3457 9.75657 12.8144C9.21322 13.5625 8.58322 14.2438 7.87973 14.8438C6.46304 15.9856 4.49862 16.9629 1.88523 17.4629C1.50449 17.5353 1.16317 17.7439 0.925098 18.0497C0.687029 18.3555 0.568518 18.7376 0.591731 19.1245C0.614944 19.5114 0.77829 19.8765 1.05122 20.1517C1.32415 20.4268 1.68797 20.5932 2.07464 20.6195C4.78303 20.8273 7.29103 22.2856 8.95976 24.2159C9.764 25.146 9.76132 25.3496 10.6573 26.3474C10.6597 26.3504 10.6626 26.3522 10.665 26.3551C12.6001 28.5493 15.3227 29.8915 18.2416 30.0903C21.1605 30.289 24.0399 29.3282 26.2545 27.4165V27.4209C27.6795 26.5202 28.3605 25.0919 29.9476 23.5645C30.8997 22.6484 33.7916 20.9306 36.2343 20.4586C36.5613 20.3996 36.8575 20.2282 37.0715 19.9739C37.2856 19.7197 37.404 19.3986 37.4063 19.0663V19.0051C37.406 18.6542 37.2751 18.3159 37.0392 18.056C36.8032 17.7962 36.4791 17.6335 36.1298 17.5994V17.5994ZM18.9974 28.4965C17.1188 28.4965 15.2824 27.9394 13.7205 26.8958C12.1585 25.8521 10.9411 24.3687 10.2222 22.6331C9.5033 20.8975 9.3152 18.9878 9.68169 17.1453C10.0482 15.3028 10.9528 13.6104 12.2811 12.282C13.6095 10.9537 15.3019 10.0491 17.1444 9.68258C18.9869 9.31608 20.8966 9.50418 22.6322 10.2231C24.3678 10.942 25.8512 12.1594 26.8949 13.7214C27.9386 15.2833 28.4956 17.1197 28.4956 18.9983C28.4955 21.5173 27.4948 23.9332 25.7136 25.7145C23.9323 27.4957 21.5165 28.4964 18.9974 28.4965V28.4965Z" fill="#10CD00"/>
<path d="M18.9973 11.1201C17.4392 11.1201 15.9161 11.582 14.6205 12.4476C13.325 13.3132 12.3152 14.5436 11.7189 15.9831C11.1226 17.4225 10.9665 19.0065 11.2705 20.5347C11.5744 22.0629 12.3247 23.4666 13.4264 24.5684C14.5281 25.6702 15.9318 26.4205 17.46 26.7245C18.9882 27.0285 20.5722 26.8725 22.0117 26.2762C23.4512 25.68 24.6816 24.6703 25.5472 23.3747C26.4129 22.0792 26.8749 20.5561 26.8749 18.998C26.8725 16.9094 26.0418 14.9071 24.565 13.4302C23.0882 11.9533 21.0859 11.1226 18.9973 11.1201V11.1201Z" fill="#10CD00"/>
</svg>
