<svg width="38" height="38" viewBox="0 0 38 38" fill="none" xmlns="http://www.w3.org/2000/svg">
<path d="M19.0002 11.0062C20.1394 11.0062 21.0629 10.0827 21.0629 8.94355C21.0629 7.80436 20.1394 6.88086 19.0002 6.88086C17.861 6.88086 16.9375 7.80436 16.9375 8.94355C16.9375 10.0827 17.861 11.0062 19.0002 11.0062Z" fill="#10CD00"/>
<path d="M30.3389 27.1202C31.2055 26.8201 32.2514 27.0733 32.1398 28.5004C32.1321 28.6511 32.0938 28.7987 32.0272 28.9341C31.9173 29.1129 31.768 29.2642 31.5907 29.3765C31.4134 29.4888 31.2128 29.5591 31.0041 29.582C30.7955 29.6049 30.5844 29.5798 30.387 29.5087C30.1895 29.4376 30.0109 29.3223 29.8648 29.1716C29.7201 29.0247 29.6162 28.8426 29.5632 28.6432C29.5103 28.4439 29.5102 28.2343 29.5629 28.0349C29.6944 27.6416 29.9723 27.314 30.3389 27.1202Z" fill="#10CD00"/>
<path d="M12.3549 27.3438C12.169 27.8625 11.9081 28.3416 11.3568 28.3416C11.0924 28.3412 10.839 28.2359 10.6522 28.0489C10.4654 27.8618 10.3605 27.6082 10.3605 27.3438C10.3566 27.067 10.4571 26.7988 10.642 26.5927C10.8269 26.3866 11.0826 26.2576 11.3583 26.2314C11.9081 26.2314 12.5639 26.7596 12.3549 27.3438Z" fill="#10CD00"/>
<path d="M8.00571 29.9759C8.30437 30.3025 8.54662 30.6682 8.3394 31.0598C8.29018 31.1529 8.2231 31.2353 8.142 31.3025C8.0609 31.3696 7.96736 31.4201 7.86673 31.4511C7.76611 31.4821 7.66036 31.493 7.55554 31.4831C7.45071 31.4732 7.34886 31.4427 7.25581 31.3935C7.0572 31.2923 6.90408 31.12 6.82703 30.9108C6.74998 30.7017 6.75467 30.4712 6.84018 30.2654C7.0477 29.8753 7.66935 29.6081 8.00571 29.9759Z" fill="#10CD00"/>
<path d="M33.0128 32.5719C33.3162 32.9038 33.562 33.2749 33.3518 33.6724C33.2508 33.8633 33.0781 34.0062 32.8717 34.0697C32.6653 34.1332 32.4422 34.1122 32.2513 34.0112C32.0502 33.9083 31.8952 33.7336 31.8171 33.5216C31.739 33.3096 31.7437 33.076 31.83 32.8673C32.0408 32.4698 32.672 32.1982 33.0128 32.5719Z" fill="#10CD00"/>
<path d="M26.3956 26.1465C26.699 26.4787 26.9448 26.8495 26.7347 27.247C26.6337 27.4379 26.461 27.5808 26.2546 27.6444C26.0482 27.708 25.825 27.687 25.6341 27.586C25.433 27.4832 25.278 27.3083 25.1999 27.0963C25.1218 26.8843 25.1265 26.6506 25.2129 26.4419C25.4231 26.0444 26.0542 25.773 26.3956 26.1465Z" fill="#10CD00"/>
<path d="M31.5018 36.4534C31.3124 35.0456 29.967 33.509 28.6679 32.8861C28.6207 32.8635 28.5808 32.8281 28.5527 32.784C28.2482 32.3119 27.8011 31.9492 27.2765 31.7485C26.7518 31.5478 26.1768 31.5195 25.635 31.6678C25.5708 31.6868 25.502 31.6834 25.44 31.658C25.378 31.6326 25.3266 31.5868 25.2942 31.5282C24.9513 30.9484 23.6931 30.4372 22.7381 30.9048C22.677 30.9349 22.6073 30.9429 22.541 30.9274C22.4746 30.912 22.4157 30.8741 22.3741 30.8202C21.6233 29.842 21.3543 27.7739 21.1495 26.3629C21.1283 26.2225 21.0574 26.0943 20.9498 26.0017C20.8421 25.909 20.7049 25.858 20.5629 25.8579H17.4584C17.3155 25.858 17.1774 25.9097 17.0694 26.0034C16.9615 26.0972 16.891 26.2267 16.8709 26.3682C16.6696 27.7876 16.4176 29.8657 15.6662 30.8454C15.6246 30.8994 15.5656 30.9374 15.4992 30.9528C15.4328 30.9682 15.3631 30.9602 15.3019 30.93C14.3442 30.4595 13.0546 30.9564 12.7067 31.5336C12.6735 31.5913 12.6217 31.636 12.5598 31.6605C12.4979 31.685 12.4295 31.6878 12.3658 31.6683C11.7874 31.5115 11.173 31.5553 10.6226 31.7925C10.0723 32.0298 9.61851 32.4464 9.33535 32.9746C9.30261 33.0376 9.24836 33.0868 9.18246 33.1132C8.47317 33.3747 7.84841 33.8242 7.37516 34.4137C6.9019 35.0031 6.598 35.7103 6.49604 36.4593C6.43963 36.8957 6.62666 37.2906 7.11947 37.2906H30.8814C31.3771 37.2906 31.5642 36.8898 31.5018 36.4534Z" fill="#10CD00"/>
<path d="M26.8352 19.0347C26.2477 17.9698 24.3979 15.2157 23.9763 14.5902C24.0416 13.3389 24.095 12.1989 24.1182 11.4849C24.2055 8.69162 23.7527 6.36322 22.6982 4.31657C22.6854 4.27902 22.6675 4.24337 22.6451 4.21058C21.9115 2.8493 20.9512 1.62305 19.8055 0.584553C19.5833 0.387576 19.2967 0.278809 18.9998 0.278809C18.7029 0.278809 18.4162 0.387576 18.1941 0.584553C17.0261 1.64267 16.0516 2.89635 15.3144 4.28926L15.3126 4.29282C14.2498 6.34512 13.7938 8.68093 13.8814 11.4849C13.9036 12.1995 13.9579 13.3407 14.0236 14.5929C13.6017 15.2163 11.7522 17.9698 11.1644 19.0344C10.8473 19.6089 10.8232 21.7737 10.8232 22.4236C10.8232 22.4376 10.8239 22.4517 10.8253 22.4657C10.8376 22.6212 10.8826 22.7724 10.9573 22.9093C11.0321 23.0462 11.1349 23.1658 11.2591 23.2602C11.3895 23.3554 11.5465 23.4073 11.7079 23.4086C11.8055 23.3986 11.9014 23.376 11.9932 23.3415L14.5544 21.8643C14.6985 22.199 14.9345 22.4861 15.2352 22.6921C15.5359 22.8981 15.8889 23.0146 16.2531 23.028L15.3942 25.0435C15.3294 25.1877 15.3013 25.3458 15.3125 25.5036C15.3238 25.6614 15.374 25.8139 15.4587 25.9475C15.5279 26.0588 15.6239 26.1509 15.7381 26.2154C15.8522 26.2799 15.9807 26.3147 16.1118 26.3165H21.8866C22.0176 26.3146 22.1461 26.2799 22.2602 26.2155C22.3743 26.1511 22.4704 26.059 22.5397 25.9478C22.6239 25.8157 22.6741 25.6648 22.686 25.5086C22.698 25.3525 22.6711 25.1957 22.608 25.0524L21.7456 23.028C22.1098 23.0145 22.4627 22.898 22.7634 22.692C23.064 22.486 23.3002 22.199 23.4443 21.8643L26.006 23.3427C26.0979 23.3772 26.1939 23.3998 26.2916 23.4098C26.453 23.4084 26.6099 23.3565 26.7402 23.2613C26.8644 23.1669 26.9672 23.0474 27.0419 22.9105C27.1167 22.7736 27.1617 22.6224 27.1739 22.4669C27.1754 22.4529 27.1761 22.4388 27.176 22.4248C27.1763 21.7737 27.1523 19.6089 26.8352 19.0347ZM23.2279 11.457C23.1531 13.8531 22.7152 21.0844 22.7107 21.1604C22.6966 21.4263 22.5809 21.6766 22.3875 21.8596C22.1942 22.0427 21.9379 22.1446 21.6717 22.1442H16.3279C16.0611 22.1445 15.8044 22.0422 15.6109 21.8585C15.4175 21.6747 15.3022 21.4236 15.2888 21.1571C15.2844 21.0844 14.8465 13.854 14.7717 11.457C14.6826 8.64946 15.2063 6.54372 15.9972 4.91091H22.0024C22.7932 6.54372 23.3157 8.64946 23.2279 11.457Z" fill="#10CD00"/>
</svg>
