<svg width="32" height="32" viewBox="0 0 32 32" fill="none" xmlns="http://www.w3.org/2000/svg">
<path d="M29.525 6.81402C29.525 7.27427 29.0355 7.54177 28.575 7.54177C28.3539 7.54177 28.1419 7.45396 27.9856 7.29765C27.8293 7.14133 27.7415 6.92933 27.7415 6.70827C27.7574 6.46705 27.8592 6.23951 28.0284 6.06688C28.1976 5.89426 28.4231 5.78797 28.664 5.76727C29.125 5.76727 29.525 6.35377 29.525 6.81402Z" fill="#10CD00"/>
<path d="M29.7749 23.213C29.7749 23.8662 29.0802 24.2457 28.4267 24.2457C28.1129 24.2457 27.812 24.1211 27.5901 23.8992C27.3683 23.6774 27.2437 23.3765 27.2437 23.0627C27.2662 22.7203 27.4108 22.3974 27.651 22.1524C27.8912 21.9074 28.2113 21.7566 28.5532 21.7272C29.2057 21.7272 29.7749 22.5597 29.7749 23.213Z" fill="#10CD00"/>
<path d="M6.19594 3.58447C6.19594 4.04072 5.71094 4.30572 5.25469 4.30572C5.03588 4.30572 4.82604 4.21881 4.67132 4.06409C4.51661 3.90937 4.42969 3.69953 4.42969 3.48072C4.44542 3.24164 4.54629 3.01609 4.71401 2.84498C4.88174 2.67386 5.10521 2.5685 5.34394 2.54797C5.79994 2.54697 6.19594 3.12822 6.19594 3.58447Z" fill="#10CD00"/>
<path d="M6.88688 7.52502C6.88688 7.86302 6.52763 8.05927 6.18963 8.05927C6.02738 8.05927 5.87178 7.99482 5.75706 7.8801C5.64233 7.76537 5.57788 7.60977 5.57788 7.44753C5.58954 7.27048 5.66423 7.10346 5.78843 6.97674C5.91262 6.85003 6.0781 6.77199 6.25488 6.75677C6.59288 6.75727 6.88688 7.18777 6.88688 7.52502Z" fill="#10CD00"/>
<path d="M2.67497 10.7092C2.67497 11.0472 2.31547 11.2435 1.97772 11.2435C1.81545 11.2435 1.65983 11.179 1.54506 11.0643C1.4303 10.9496 1.36579 10.794 1.36572 10.6317C1.37743 10.4546 1.45217 10.2876 1.5764 10.1608C1.70063 10.0341 1.86615 9.956 2.04297 9.94073C2.38147 9.94073 2.67497 10.3715 2.67497 10.7092Z" fill="#10CD00"/>
<path d="M9.79142 27.658C9.79142 27.9958 9.43217 28.192 9.09417 28.192C9.01383 28.1921 8.93426 28.1763 8.86003 28.1455C8.78579 28.1148 8.71834 28.0697 8.66153 28.0129C8.60471 27.9561 8.55965 27.8887 8.52892 27.8144C8.49819 27.7402 8.48239 27.6606 8.48242 27.5803C8.49409 27.4032 8.56882 27.2361 8.69306 27.1094C8.81731 26.9827 8.98285 26.9047 9.15967 26.8895C9.49742 26.8895 9.79142 27.32 9.79142 27.658Z" fill="#10CD00"/>
<path d="M3.93028 23.1015L4.14228 23.489C4.15918 23.5198 4.1845 23.5451 4.21528 23.562L4.60253 23.7737C4.63142 23.7895 4.65553 23.8128 4.67233 23.8411C4.68913 23.8695 4.69799 23.9018 4.69799 23.9347C4.69799 23.9677 4.68913 24 4.67233 24.0283C4.65553 24.0566 4.63142 24.0799 4.60253 24.0957L4.21528 24.3075C4.1845 24.3244 4.15918 24.3497 4.14228 24.3805L3.93028 24.768C3.91451 24.7969 3.89126 24.821 3.86295 24.8378C3.83464 24.8546 3.80233 24.8635 3.7694 24.8635C3.73648 24.8635 3.70417 24.8546 3.67586 24.8378C3.64755 24.821 3.62429 24.7969 3.60853 24.768L3.39653 24.3805C3.37973 24.3497 3.35449 24.3244 3.32378 24.3075L2.93628 24.0957C2.90738 24.0799 2.88327 24.0566 2.86648 24.0283C2.84968 24 2.84082 23.9677 2.84082 23.9347C2.84082 23.9018 2.84968 23.8695 2.86648 23.8411C2.88327 23.8128 2.90738 23.7895 2.93628 23.7737L3.32378 23.562C3.35449 23.5451 3.37973 23.5197 3.39653 23.489L3.60853 23.1015C3.62429 23.0726 3.64755 23.0485 3.67586 23.0317C3.70417 23.0148 3.73648 23.006 3.7694 23.006C3.80233 23.006 3.83464 23.0148 3.86295 23.0317C3.89126 23.0485 3.91451 23.0726 3.93028 23.1015V23.1015Z" fill="#10CD00"/>
<path d="M23.7249 3.256L23.9472 3.6625C23.9649 3.69473 23.9914 3.72127 24.0237 3.739L24.4302 3.96125C24.4605 3.97783 24.4857 4.00225 24.5034 4.03196C24.521 4.06168 24.5303 4.09558 24.5303 4.13012C24.5303 4.16466 24.521 4.19857 24.5034 4.22828C24.4857 4.25799 24.4605 4.28242 24.4302 4.299L24.0237 4.52125C23.9914 4.53891 23.9648 4.56546 23.9472 4.59775L23.7249 5.004C23.7083 5.0343 23.6839 5.05958 23.6542 5.07719C23.6245 5.0948 23.5906 5.1041 23.556 5.1041C23.5215 5.1041 23.4876 5.0948 23.4579 5.07719C23.4282 5.05958 23.4037 5.0343 23.3872 5.004L23.1649 4.59775C23.1474 4.56535 23.1208 4.53877 23.0884 4.52125L22.6809 4.3C22.6506 4.28342 22.6253 4.25899 22.6077 4.22928C22.5901 4.19957 22.5808 4.16566 22.5808 4.13112C22.5808 4.09658 22.5901 4.06268 22.6077 4.03296C22.6253 4.00325 22.6506 3.97883 22.6809 3.96225L23.0872 3.74C23.1195 3.7224 23.1461 3.69584 23.1637 3.6635L23.3859 3.257C23.4024 3.22641 23.4268 3.20083 23.4565 3.18297C23.4863 3.1651 23.5204 3.15562 23.5551 3.15552C23.5898 3.15542 23.624 3.1647 23.6538 3.18238C23.6837 3.20007 23.7083 3.2255 23.7249 3.256V3.256Z" fill="#10CD00"/>
<path d="M28.85 11.8838C28.5038 11.2273 27.6898 10.8313 26.945 10.6518C26.8058 9.87451 25.548 9.10901 24.0148 8.17901C23.6885 7.98101 23.3615 7.78276 23.052 7.58676L22.7713 7.40776C21.5365 6.61851 20.0238 5.65326 17.8963 5.69826C18.0871 4.94027 18.0742 4.14531 17.8587 3.39395C17.6433 2.64259 17.233 1.96154 16.6695 1.41985C16.106 0.878162 15.4093 0.495085 14.65 0.309453C13.8908 0.123822 13.0959 0.142235 12.346 0.362827C11.5962 0.583419 10.918 0.998347 10.3802 1.56555C9.84235 2.13275 9.46406 2.83206 9.28365 3.5926C9.10323 4.35313 9.1271 5.14784 9.35284 5.89617C9.57857 6.6445 9.99814 7.31985 10.569 7.85376C8.07627 9.48526 4.34452 13.85 4.60002 15.6388C3.86677 16.3568 3.46252 17.2275 3.54277 17.9573C3.56205 18.175 3.63474 18.3846 3.7544 18.5675C3.87406 18.7504 4.037 18.9009 4.22877 19.0058C4.70977 19.272 5.48027 19.1275 5.91502 18.9408C6.00052 19.0341 6.10498 19.108 6.22141 19.1576C6.33783 19.2072 6.46352 19.2313 6.59002 19.2283C6.72369 19.2286 6.8559 19.2004 6.97777 19.1455C7.55277 18.8858 7.70577 17.7665 7.71827 17.1358C8.45427 16.875 9.11627 15.9338 9.86552 14.8655C10.1728 14.4273 10.4885 13.9805 10.8195 13.5608C11.1088 14.6108 11.4168 15.6065 11.6628 16.401C11.8903 17.1345 12.125 17.893 12.1343 18.0413C12.1093 20.3703 12.3133 24.1448 12.7615 25.1735C13.316 26.309 13.9597 27.3988 14.6865 28.4325C14.8993 28.739 14.9868 29.1153 14.931 29.4843C14.7418 30.6843 15.133 31.4925 16.006 31.7033C16.2767 31.7714 16.5545 31.807 16.8335 31.8093C17.2554 31.8215 17.6712 31.7065 18.0268 31.4793C18.2431 31.3303 18.4258 31.1377 18.5631 30.9137C18.7004 30.6898 18.7892 30.4396 18.8238 30.1793L18.8398 30.075C18.9278 29.514 19.027 28.8783 18.846 28.2655C18.7155 27.8223 18.5135 27.2655 18.2995 26.6758C17.9193 25.6278 17.4883 24.4398 17.4218 23.766C17.3578 23.1205 17.5968 21.2093 17.6968 20.4985C17.7052 20.4625 17.7238 20.4296 17.7504 20.404C17.777 20.3783 17.8105 20.3608 17.8468 20.3538C17.8833 20.347 17.9209 20.3504 17.9556 20.3637C17.9902 20.3769 18.0206 20.3994 18.0433 20.4288C18.1755 20.71 19.0583 22.5988 19.2455 23.2788C19.361 23.8116 19.4305 24.3533 19.4533 24.898C19.4906 25.7645 19.6187 26.6247 19.8355 27.4645C20.0176 28.0927 20.2512 28.7048 20.534 29.2945C20.6792 29.5396 20.8735 29.7521 21.1047 29.9186C21.3359 30.0851 21.599 30.202 21.8775 30.262C22.2567 30.3395 22.6477 30.338 23.0263 30.2576C23.4048 30.1771 23.7627 30.0195 24.0775 29.7945C24.2344 29.6888 24.366 29.5497 24.4629 29.3872C24.5598 29.2247 24.6196 29.0428 24.638 28.8545C24.6589 28.5107 24.6117 28.1661 24.4992 27.8405C24.3867 27.515 24.211 27.2148 23.9823 26.9573C23.8517 26.8462 23.7527 26.7027 23.6953 26.5411C23.6379 26.3796 23.6241 26.2058 23.6553 26.0373C23.9203 24.784 24.1748 22.9415 24.1318 22.1953C24.0645 21.0163 22.918 18.1123 21.8895 16.14C21.6283 15.64 21.3093 14.0788 20.9718 12.4263C20.891 12.032 20.8085 11.6295 20.7243 11.2263C21.1398 11.4918 21.5205 11.7395 21.8673 11.9653C23.3875 12.956 24.2265 13.503 24.8845 13.503C24.8905 13.503 24.896 13.5015 24.902 13.5013C25.1046 13.9625 25.4055 14.3738 25.7838 14.7065C25.9572 14.8392 26.1705 14.9089 26.3888 14.9043C26.5376 14.9085 26.6857 14.8826 26.8243 14.8281C26.9628 14.7737 27.089 14.6917 27.195 14.5873C27.289 14.4444 27.3452 14.28 27.3585 14.1095C27.3635 14.0783 27.37 14.038 27.377 14.0038C27.4328 13.9818 27.5058 13.9538 27.5698 13.9315C28.1995 13.6998 28.6948 13.4938 28.8643 13.1335C28.9623 12.9393 29.0122 12.7244 29.0098 12.5069C29.0073 12.2894 28.9525 12.0756 28.85 11.8838V11.8838ZM9.68727 5.70301C9.26052 4.17951 10.664 2.45451 12.8218 1.85001C14.9795 1.24551 17.075 1.99051 17.5018 3.51401C17.9285 5.03751 16.525 6.76251 14.367 7.36676C12.209 7.97101 10.114 7.22626 9.68727 5.70301ZM16.7703 21.8885C15.8583 20.9615 14.2408 20.9028 12.969 21.3385C12.954 21.0853 12.9405 20.8273 12.9293 20.5678C14.1963 20.1873 15.7528 20.2058 16.8738 20.997C16.8415 21.2515 16.8048 21.5613 16.7703 21.8885ZM17.025 13.109L15.0788 13.6543C14.9567 13.6885 14.8291 13.6983 14.7032 13.6832C14.5773 13.6681 14.4556 13.6283 14.3451 13.5661C14.2346 13.504 14.1374 13.4207 14.0591 13.321C13.9808 13.2213 13.9229 13.1071 13.8888 12.985L13.4983 11.5905C13.4639 11.4684 13.454 11.3407 13.4691 11.2148C13.4841 11.0889 13.5239 10.9671 13.586 10.8566C13.6481 10.746 13.7314 10.6488 13.8312 10.5704C13.9309 10.4921 14.0451 10.4342 14.1673 10.4L16.1138 9.85476C16.2359 9.82054 16.3635 9.81072 16.4894 9.82583C16.6152 9.84095 16.7369 9.88072 16.8474 9.94287C16.9579 10.005 17.0551 10.0883 17.1334 10.188C17.2117 10.2878 17.2696 10.4019 17.3038 10.524L17.6943 11.9183C17.7286 12.0404 17.7385 12.1681 17.7235 12.294C17.7084 12.42 17.6686 12.5418 17.6065 12.6524C17.5443 12.763 17.461 12.8602 17.3612 12.9386C17.2614 13.0169 17.1472 13.0748 17.025 13.109V13.109ZM14.905 9.29001C14.2143 9.48386 13.4891 9.52144 12.782 9.40001C12.0749 9.27858 11.4038 9.0012 10.8173 8.58801C10.9465 8.50176 11.0748 8.41976 11.2008 8.34526C11.2758 8.39301 11.348 8.44276 11.4258 8.48651C12.4504 9.06272 13.662 9.20833 14.794 8.8913C15.926 8.57428 16.8857 7.82059 17.462 6.79601C17.5238 6.68576 17.5783 6.57301 17.63 6.45951C17.7855 6.44926 17.9368 6.44601 18.0853 6.44701C17.8081 7.13269 17.3773 7.74559 16.8259 8.23849C16.2745 8.73139 15.6174 9.09114 14.905 9.29001V9.29001ZM22.275 18.7365C22.38 18.9865 22.4805 19.2343 22.575 19.4765C21.975 19.3965 19.9858 20.043 19.2445 21.2488C19.1133 20.9535 18.9885 20.6795 18.892 20.4705C19.7772 19.508 20.9768 18.8931 22.275 18.7365V18.7365ZM19.785 6.76501L19.7875 6.76251C20.5367 7.03538 21.2569 7.38209 21.9375 7.79751C20.9 8.99751 19.985 7.47501 19.785 6.76501Z" fill="#10CD00"/>
</svg>
