<svg width="36" height="36" viewBox="0 0 36 36" fill="none" xmlns="http://www.w3.org/2000/svg">
<path d="M27.2206 8.77556L27.2244 8.77939C27.3133 8.86811 27.4284 8.9258 27.5526 8.94388C27.6769 8.96196 27.8036 8.93947 27.9141 8.87974L30.4332 7.51775C30.5131 7.47458 30.5818 7.41334 30.6338 7.33893C30.6859 7.26451 30.7198 7.17897 30.7329 7.08913C30.746 6.99928 30.738 6.90761 30.7094 6.82143C30.6808 6.73524 30.6325 6.65692 30.5683 6.59271L29.4073 5.43169C29.3431 5.3675 29.2648 5.31918 29.1786 5.29061C29.0924 5.26203 29.0007 5.25398 28.9109 5.2671C28.821 5.28022 28.7355 5.31415 28.6611 5.36618C28.5867 5.4182 28.5254 5.48689 28.4823 5.56677L27.1203 8.08595C27.0605 8.19639 27.038 8.32315 27.0561 8.44739C27.0742 8.57164 27.1319 8.68673 27.2206 8.77556V8.77556Z" fill="#10CD00"/>
<path d="M18.0027 4.95703H17.9972C17.8717 4.95702 17.7495 4.91648 17.6489 4.84145C17.5482 4.76642 17.4745 4.6609 17.4386 4.54059L16.6205 1.79637C16.5945 1.70932 16.5893 1.61741 16.6052 1.52797C16.621 1.43853 16.6576 1.35404 16.7119 1.28124C16.7662 1.20843 16.8368 1.14933 16.918 1.10864C16.9992 1.06795 17.0888 1.0468 17.1797 1.04688H18.8203C18.9111 1.04688 19.0006 1.06809 19.0817 1.10882C19.1629 1.14955 19.2334 1.20866 19.2877 1.28146C19.3419 1.35425 19.3784 1.43871 19.3943 1.5281C19.4101 1.6175 19.4049 1.70936 19.3789 1.79637L18.5613 4.54086C18.5254 4.66112 18.4517 4.76658 18.351 4.84156C18.2504 4.91654 18.1282 4.95704 18.0027 4.95703V4.95703Z" fill="#10CD00"/>
<path d="M18.0026 31.043H17.9972C17.8716 31.043 17.7494 31.0835 17.6488 31.1586C17.5481 31.2336 17.4744 31.3391 17.4385 31.4594L16.6204 34.2039C16.5945 34.2909 16.5893 34.3828 16.6052 34.4722C16.6211 34.5616 16.6577 34.6461 16.712 34.7188C16.7663 34.7916 16.8368 34.8507 16.918 34.8914C16.9992 34.932 17.0888 34.9532 17.1796 34.9531H18.8202C18.911 34.9531 19.0005 34.9319 19.0817 34.8912C19.1628 34.8505 19.2333 34.7913 19.2876 34.7185C19.3418 34.6458 19.3783 34.5613 19.3942 34.4719C19.41 34.3825 19.4048 34.2906 19.3788 34.2036L18.5607 31.4591C18.5248 31.339 18.4511 31.2336 18.3506 31.1586C18.2501 31.0836 18.128 31.0431 18.0026 31.043V31.043Z" fill="#10CD00"/>
<path d="M31.043 17.9972V18.0026C31.043 18.1282 31.0835 18.2504 31.1586 18.351C31.2336 18.4517 31.3391 18.5254 31.4594 18.5613L34.2039 19.3794C34.2909 19.4053 34.3828 19.4105 34.4722 19.3946C34.5616 19.3787 34.6461 19.3422 34.7188 19.2878C34.7916 19.2335 34.8507 19.163 34.8914 19.0818C34.932 19.0006 34.9532 18.911 34.9531 18.8202V17.1796C34.9531 17.0888 34.9319 16.9993 34.8912 16.9181C34.8505 16.837 34.7913 16.7665 34.7185 16.7122C34.6458 16.658 34.5613 16.6215 34.4719 16.6056C34.3825 16.5898 34.2906 16.595 34.2036 16.621L31.4591 17.4391C31.339 17.475 31.2336 17.5487 31.1586 17.6492C31.0836 17.7497 31.0431 17.8718 31.043 17.9972V17.9972Z" fill="#10CD00"/>
<path d="M4.95703 17.9972V18.0026C4.95702 18.1282 4.91648 18.2504 4.84145 18.351C4.76642 18.4517 4.6609 18.5254 4.54059 18.5613L1.79637 19.3794C1.70932 19.4054 1.61741 19.4106 1.52797 19.3947C1.43853 19.3789 1.35404 19.3423 1.28124 19.288C1.20843 19.2337 1.14933 19.1631 1.10864 19.0819C1.06795 19.0007 1.0468 18.9111 1.04688 18.8202V17.1796C1.04688 17.0888 1.06809 16.9993 1.10882 16.9181C1.14955 16.837 1.20866 16.7665 1.28146 16.7122C1.35425 16.658 1.43871 16.6215 1.5281 16.6056C1.6175 16.5898 1.70936 16.595 1.79637 16.621L4.54086 17.4391C4.66103 17.475 4.76643 17.5487 4.8414 17.6492C4.91637 17.7497 4.95692 17.8718 4.95703 17.9972V17.9972Z" fill="#10CD00"/>
<path d="M8.77939 8.77556L8.77556 8.77939C8.68673 8.86811 8.57164 8.9258 8.44739 8.94388C8.32315 8.96196 8.19639 8.93947 8.08595 8.87974L5.56677 7.51775C5.48689 7.47458 5.4182 7.41334 5.36618 7.33893C5.31415 7.26451 5.28022 7.17897 5.2671 7.08913C5.25398 6.99928 5.26203 6.90761 5.29061 6.82143C5.31918 6.73524 5.3675 6.65692 5.43169 6.59271L6.59271 5.43169C6.65692 5.3675 6.73524 5.31918 6.82143 5.29061C6.90761 5.26203 6.99928 5.25398 7.08913 5.2671C7.17897 5.28022 7.26451 5.31415 7.33893 5.36618C7.41334 5.4182 7.47458 5.48689 7.51775 5.56677L8.87974 8.08595C8.93947 8.19639 8.96196 8.32315 8.94388 8.44739C8.9258 8.57164 8.86811 8.68673 8.77939 8.77556V8.77556Z" fill="#10CD00"/>
<path d="M8.77556 27.2206L8.77939 27.2244C8.86811 27.3133 8.9258 27.4284 8.94388 27.5526C8.96196 27.6769 8.93947 27.8036 8.87974 27.9141L7.51775 30.4332C7.47458 30.5131 7.41334 30.5818 7.33893 30.6338C7.26451 30.6859 7.17897 30.7198 7.08913 30.7329C6.99928 30.746 6.90761 30.738 6.82143 30.7094C6.73524 30.6808 6.65692 30.6325 6.59271 30.5683L5.43169 29.4073C5.3675 29.3431 5.31918 29.2648 5.29061 29.1786C5.26203 29.0924 5.25398 29.0007 5.2671 28.9109C5.28022 28.821 5.31415 28.7355 5.36618 28.6611C5.4182 28.5867 5.48689 28.5254 5.56677 28.4823L8.08595 27.1203C8.19639 27.0605 8.32315 27.038 8.44739 27.0561C8.57164 27.0742 8.68673 27.1319 8.77556 27.2206V27.2206Z" fill="#10CD00"/>
<path d="M18.0001 29.4353C15.7384 29.4353 13.5276 28.7646 11.6471 27.5081C9.76657 26.2516 8.3009 24.4656 7.4354 22.3761C6.5699 20.2866 6.34344 17.9874 6.78467 15.7692C7.2259 13.551 8.31499 11.5135 9.91423 9.91423C11.5135 8.31499 13.551 7.2259 15.7692 6.78467C17.9874 6.34344 20.2866 6.5699 22.3761 7.4354C24.4656 8.3009 26.2516 9.76657 27.5081 11.6471C28.7646 13.5276 29.4353 15.7384 29.4353 18.0001C29.4319 21.0319 28.226 23.9385 26.0822 26.0822C23.9385 28.226 21.0319 29.4319 18.0001 29.4353ZM18.0001 7.38526C15.9007 7.38526 13.8484 8.00781 12.1028 9.17418C10.3572 10.3406 8.99668 11.9984 8.19327 13.938C7.38985 15.8776 7.17964 18.0119 7.58922 20.071C7.9988 22.13 9.00976 24.0214 10.4943 25.5059C11.9788 26.9904 13.8702 28.0014 15.9292 28.411C17.9883 28.8206 20.1226 28.6104 22.0622 27.8069C24.0018 27.0035 25.6596 25.643 26.826 23.8974C27.9924 22.1518 28.6149 20.0995 28.6149 18.0001C28.6117 15.1859 27.4923 12.4878 25.5023 10.4979C23.5124 8.50791 20.8143 7.38852 18.0001 7.38526V7.38526Z" fill="#10CD00"/>
<path d="M18.0001 27.5305C16.1152 27.5305 14.2726 26.9716 12.7053 25.9244C11.1381 24.8771 9.91652 23.3887 9.19519 21.6472C8.47386 19.9058 8.28512 17.9895 8.65285 16.1408C9.02059 14.2921 9.92827 12.594 11.2611 11.2611C12.594 9.92827 14.2921 9.02059 16.1408 8.65285C17.9895 8.28512 19.9058 8.47386 21.6472 9.19519C23.3887 9.91652 24.8771 11.1381 25.9244 12.7053C26.9716 14.2726 27.5305 16.1152 27.5305 18.0001C27.5276 20.5268 26.5226 22.9493 24.7359 24.7359C22.9493 26.5226 20.5268 27.5276 18.0001 27.5305ZM18.0001 9.29004C16.2774 9.29004 14.5934 9.80088 13.1611 10.758C11.7287 11.715 10.6123 13.0754 9.95306 14.6669C9.29381 16.2585 9.12132 18.0098 9.4574 19.6994C9.79348 21.389 10.623 22.9409 11.8412 24.1591C13.0593 25.3772 14.6113 26.2068 16.3009 26.5428C17.9905 26.8789 19.7418 26.7064 21.3333 26.0472C22.9249 25.3879 24.2852 24.2715 25.2423 22.8392C26.1994 21.4068 26.7102 19.7228 26.7102 18.0001C26.7075 15.6909 25.789 13.477 24.1561 11.8441C22.5232 10.2112 20.3094 9.29272 18.0001 9.29004Z" fill="#10CD00"/>
<path d="M18.0001 27.1203C23.0371 27.1203 27.1203 23.0371 27.1203 18.0001C27.1203 12.9632 23.0371 8.87988 18.0001 8.87988C12.9632 8.87988 8.87988 12.9632 8.87988 18.0001C8.87988 23.0371 12.9632 27.1203 18.0001 27.1203Z" fill="#10CD00"/>
<path d="M27.2244 27.2206L27.2206 27.2244C27.1319 27.3133 27.0742 27.4284 27.0561 27.5526C27.038 27.6769 27.0605 27.8036 27.1203 27.9141L28.4823 30.4332C28.5254 30.5131 28.5867 30.5818 28.6611 30.6338C28.7355 30.6859 28.821 30.7198 28.9109 30.7329C29.0007 30.746 29.0924 30.738 29.1786 30.7094C29.2648 30.6808 29.3431 30.6325 29.4073 30.5683L30.5683 29.4073C30.6325 29.3431 30.6808 29.2648 30.7094 29.1786C30.738 29.0924 30.746 29.0007 30.7329 28.9109C30.7198 28.821 30.6859 28.7355 30.6338 28.6611C30.5818 28.5867 30.5131 28.5254 30.4332 28.4823L27.9141 27.1203C27.8036 27.0605 27.6769 27.038 27.5526 27.0561C27.4284 27.0742 27.3133 27.1319 27.2244 27.2206V27.2206Z" fill="#10CD00"/>
<path d="M18.0001 27.5305C16.1152 27.5305 14.2726 26.9716 12.7053 25.9244C11.1381 24.8771 9.91652 23.3887 9.19519 21.6472C8.47386 19.9058 8.28512 17.9895 8.65285 16.1408C9.02059 14.2921 9.92827 12.594 11.2611 11.2611C12.594 9.92827 14.2921 9.02059 16.1408 8.65285C17.9895 8.28512 19.9058 8.47386 21.6472 9.19519C23.3887 9.91652 24.8771 11.1381 25.9244 12.7053C26.9716 14.2726 27.5305 16.1152 27.5305 18.0001C27.5276 20.5268 26.5226 22.9493 24.7359 24.7359C22.9493 26.5226 20.5268 27.5276 18.0001 27.5305ZM18.0001 9.29004C16.2774 9.29004 14.5934 9.80088 13.1611 10.758C11.7287 11.715 10.6123 13.0754 9.95306 14.6669C9.29381 16.2585 9.12132 18.0098 9.4574 19.6994C9.79348 21.389 10.623 22.9409 11.8412 24.1591C13.0593 25.3772 14.6113 26.2068 16.3009 26.5428C17.9905 26.8789 19.7418 26.7064 21.3333 26.0472C22.9249 25.3879 24.2852 24.2715 25.2423 22.8392C26.1994 21.4068 26.7102 19.7228 26.7102 18.0001C26.7075 15.6909 25.789 13.477 24.1561 11.8441C22.5232 10.2112 20.3094 9.29272 18.0001 9.29004Z" fill="#10CD00"/>
</svg>
