<svg width="30" height="30" viewBox="0 0 30 30" fill="none" xmlns="http://www.w3.org/2000/svg">
<g clip-path="url(#clip0_1160_543)">
<path d="M28.7872 11.3057C28.0566 8.57881 26.5337 6.12981 24.4112 4.26842C22.2887 2.40703 19.6619 1.21684 16.863 0.848371C14.0641 0.479899 11.2188 0.949694 8.68686 2.19834C6.15494 3.44699 4.05016 5.41842 2.63869 7.8633C1.38849 10.0321 0.73027 12.4914 0.729981 14.9948C0.729691 17.4981 1.38735 19.9576 2.63704 22.1267C3.88673 24.2958 5.68457 26.0984 7.85039 27.3538C10.0162 28.6092 12.4739 29.2733 14.9773 29.2796C16.2327 29.2786 17.4826 29.113 18.6949 28.787C20.5055 28.3019 22.2028 27.4649 23.6899 26.3238C25.1769 25.1828 26.4247 23.76 27.3619 22.1367C28.2991 20.5134 28.9074 18.7214 29.1521 16.863C29.3968 15.0046 29.273 13.1162 28.7879 11.3057H28.7872ZM11.4819 1.86937C12.6365 1.55895 13.8269 1.40128 15.0226 1.40038C16.6785 1.40091 18.32 1.70746 19.8645 2.30459C19.2074 3.37895 16.8668 6.70285 13.632 5.69283C9.76181 4.48548 6.81899 5.37225 3.82678 7.26178C5.65285 4.60802 8.36822 2.69526 11.4819 1.86937V1.86937ZM27.6845 19.8908C27.0347 20.4692 25.9418 20.4957 24.5659 20.5268C22.3317 20.5771 19.5516 20.6401 16.7447 23.0135C14.3626 25.0279 10.2582 26.3454 7.15589 26.1016C5.80149 25.1494 4.6341 23.9558 3.71214 22.5806C6.82239 18.5815 8.97338 18.7836 13.1936 19.1846C13.6159 19.2247 14.0568 19.2669 14.5194 19.3063C19.0946 19.6973 26.1835 18.1012 28.5683 15.8795C28.4808 17.254 28.1828 18.6069 27.6845 19.8908V19.8908Z" fill="#10CD00"/>
</g>
<defs>
<clipPath id="clip0_1160_543">
<rect width="29" height="29" fill="white" transform="translate(0.5 0.5)"/>
</clipPath>
</defs>
</svg>
