<svg width="36" height="46" viewBox="0 0 36 46" fill="none" xmlns="http://www.w3.org/2000/svg">
<path d="M24.3844 8.88496C24.374 8.79713 24.3362 8.71479 24.2765 8.64959C24.2167 8.58438 24.138 8.5396 24.0514 8.52158C21.4653 7.96724 20.9813 9.66037 18 9.50793L18.009 13.1642C20.8257 14.1204 22.6682 12.1306 24.0356 12.3767C24.0924 12.389 24.1511 12.3892 24.2079 12.3771C24.2647 12.3651 24.3184 12.3411 24.3652 12.3068C24.4121 12.2725 24.4511 12.2286 24.4797 12.178C24.5083 12.1275 24.5259 12.0714 24.5312 12.0136C24.5619 10.9685 24.5128 9.92258 24.3844 8.88496V8.88496Z" fill="#10CD00"/>
<path d="M18.0352 18.7728C18.1691 18.7711 18.3015 18.8007 18.4219 18.8595V7.98438C18.4219 7.87249 18.3774 7.76518 18.2983 7.68606C18.2192 7.60695 18.1119 7.5625 18 7.5625C17.8881 7.5625 17.7808 7.60695 17.7017 7.68606C17.6226 7.76518 17.5781 7.87249 17.5781 7.98438V18.9025C17.7145 18.8155 17.8734 18.7704 18.0352 18.7728Z" fill="#10CD00"/>
<path d="M12.4622 17.621C12.9558 17.4177 13.1911 16.8527 12.9878 16.3591C12.7845 15.8654 12.2194 15.6301 11.7258 15.8335C11.2322 16.0368 10.9969 16.6018 11.2002 17.0954C11.4036 17.5891 11.9686 17.8244 12.4622 17.621Z" fill="#10CD00"/>
<path d="M27.7837 17.7706C27.9357 17.7706 28.0842 17.7255 28.2105 17.6411C28.3369 17.5566 28.4353 17.4366 28.4934 17.2962C28.5515 17.1558 28.5667 17.0013 28.537 16.8523C28.5073 16.7033 28.434 16.5664 28.3265 16.459C28.219 16.3517 28.0821 16.2786 27.9331 16.249C27.784 16.2195 27.6295 16.2348 27.4892 16.2931C27.3489 16.3514 27.229 16.4499 27.1447 16.5764C27.0604 16.7028 27.0155 16.8514 27.0156 17.0033C27.0158 17.2069 27.0969 17.402 27.2409 17.5459C27.3849 17.6898 27.5802 17.7706 27.7837 17.7706V17.7706Z" fill="#10CD00"/>
<path d="M2.21536 23.9483C2.36727 23.9483 2.51578 23.9032 2.64209 23.8188C2.7684 23.7345 2.86685 23.6145 2.92499 23.4741C2.98312 23.3338 2.99833 23.1794 2.96869 23.0304C2.93906 22.8814 2.8659 22.7445 2.75848 22.6371C2.65106 22.5297 2.5142 22.4565 2.36521 22.4269C2.21621 22.3972 2.06177 22.4124 1.92142 22.4706C1.78107 22.5287 1.66111 22.6272 1.57671 22.7535C1.49231 22.8798 1.44727 23.0283 1.44727 23.1802C1.44727 23.3839 1.52819 23.5793 1.67224 23.7233C1.81628 23.8674 2.01165 23.9483 2.21536 23.9483V23.9483Z" fill="#10CD00"/>
<path d="M33.5506 23.5827C34.0845 23.5827 34.5173 23.1499 34.5173 22.6161C34.5173 22.0822 34.0845 21.6494 33.5506 21.6494C33.0168 21.6494 32.584 22.0822 32.584 22.6161C32.584 23.1499 33.0168 23.5827 33.5506 23.5827Z" fill="#10CD00"/>
<path d="M30.1904 11.0329L30.646 11.2821C30.6821 11.3014 30.7119 11.3307 30.7318 11.3665L30.981 11.8221C30.9995 11.8561 31.0269 11.8844 31.0602 11.9042C31.0935 11.9239 31.1315 11.9344 31.1702 11.9344C31.209 11.9344 31.247 11.9239 31.2803 11.9042C31.3136 11.8844 31.341 11.8561 31.3595 11.8221L31.6087 11.3665C31.6287 11.3308 31.6585 11.3015 31.6945 11.2821L32.1501 11.0329C32.1841 11.0143 32.2124 10.987 32.2322 10.9537C32.2519 10.9204 32.2624 10.8824 32.2624 10.8436C32.2624 10.8049 32.2519 10.7669 32.2322 10.7336C32.2124 10.7003 32.1841 10.6729 32.1501 10.6544L31.6945 10.4052C31.6585 10.3858 31.6287 10.3565 31.6087 10.3208L31.3595 9.86517C31.341 9.8312 31.3136 9.80285 31.2803 9.7831C31.247 9.76335 31.209 9.75293 31.1702 9.75293C31.1315 9.75293 31.0935 9.76335 31.0602 9.7831C31.0269 9.80285 30.9995 9.8312 30.981 9.86517L30.7318 10.3208C30.7119 10.3566 30.6821 10.3859 30.646 10.4052L30.1904 10.6544C30.1564 10.6729 30.128 10.7003 30.1083 10.7336C30.0885 10.7669 30.0781 10.8049 30.0781 10.8436C30.0781 10.8824 30.0885 10.9204 30.1083 10.9537C30.128 10.987 30.1564 11.0143 30.1904 11.0329V11.0329Z" fill="#10CD00"/>
<path d="M7.45887 12.2297L7.91365 12.4783C7.94915 12.4979 7.9784 12.5272 7.99803 12.5627L8.24665 13.0175C8.26521 13.0514 8.29255 13.0797 8.3258 13.0994C8.35905 13.1191 8.397 13.1295 8.43565 13.1295C8.47431 13.1295 8.51226 13.1191 8.54551 13.0994C8.57876 13.0797 8.6061 13.0514 8.62465 13.0175L8.87328 12.5627C8.89291 12.5272 8.92216 12.4979 8.95765 12.4783L9.41244 12.2297C9.44635 12.2111 9.47464 12.1838 9.49436 12.1505C9.51407 12.1173 9.52447 12.0793 9.52447 12.0407C9.52447 12.002 9.51407 11.9641 9.49436 11.9308C9.47464 11.8976 9.44635 11.8702 9.41244 11.8517L8.9599 11.6033C8.92441 11.5837 8.89516 11.5545 8.87553 11.519L8.6269 11.0642C8.60835 11.0303 8.58101 11.002 8.54776 10.9823C8.51451 10.9625 8.47656 10.9521 8.4379 10.9521C8.39925 10.9521 8.3613 10.9625 8.32805 10.9823C8.2948 11.002 8.26746 11.0303 8.2489 11.0642L7.99915 11.519C7.97952 11.5545 7.95028 11.5837 7.91478 11.6033L7.46 11.852C7.4261 11.8704 7.39779 11.8977 7.37802 11.9309C7.35826 11.964 7.34777 12.0019 7.34766 12.0405C7.34754 12.0791 7.3578 12.117 7.37737 12.1503C7.39693 12.1836 7.42508 12.211 7.45887 12.2297Z" fill="#10CD00"/>
<path d="M2.634 17.3801L3.4516 17.8273C3.51658 17.8627 3.56999 17.9161 3.60544 17.9811L4.05263 18.7987C4.08598 18.8597 4.13513 18.9105 4.1949 18.946C4.25468 18.9814 4.32289 19.0001 4.39238 19.0001C4.46187 19.0001 4.53008 18.9814 4.58986 18.946C4.64963 18.9105 4.69877 18.8597 4.73213 18.7987L5.17932 17.9811C5.21477 17.9161 5.26817 17.8627 5.33316 17.8273L6.15075 17.3801C6.21172 17.3467 6.26258 17.2976 6.29801 17.2378C6.33344 17.178 6.35214 17.1098 6.35214 17.0403C6.35214 16.9708 6.33344 16.9026 6.29801 16.8429C6.26258 16.7831 6.21172 16.7339 6.15075 16.7006L5.33316 16.2534C5.26817 16.2179 5.21477 16.1645 5.17932 16.0995L4.73213 15.282C4.69877 15.221 4.64963 15.1701 4.58986 15.1347C4.53008 15.0993 4.46187 15.0806 4.39238 15.0806C4.32289 15.0806 4.25468 15.0993 4.1949 15.1347C4.13513 15.1701 4.08598 15.221 4.05263 15.282L3.60544 16.0995C3.56999 16.1645 3.51658 16.2179 3.4516 16.2534L2.634 16.7006C2.57304 16.7339 2.52218 16.7831 2.48675 16.8429C2.45131 16.9026 2.43262 16.9708 2.43262 17.0403C2.43262 17.1098 2.45131 17.178 2.48675 17.2378C2.52218 17.2976 2.57304 17.3467 2.634 17.3801V17.3801Z" fill="#10CD00"/>
<path d="M30.4335 23.3342C27.2111 20.1973 22.9178 18.401 18.4216 18.3085V7.98438C18.4216 7.87249 18.3772 7.76518 18.2981 7.68606C18.2189 7.60695 18.1116 7.5625 17.9997 7.5625C17.8879 7.5625 17.7806 7.60695 17.7014 7.68606C17.6223 7.76518 17.5779 7.87249 17.5779 7.98438V18.3091C13.0223 18.4166 8.68061 20.2638 5.44393 23.4715C2.20725 26.6791 0.321053 31.004 0.172433 35.5584C0.168004 35.6886 0.189993 35.8184 0.237074 35.9398C0.284154 36.0613 0.355351 36.172 0.44637 36.2652C0.538752 36.3602 0.649192 36.4357 0.771197 36.4874C0.893202 36.5391 1.02431 36.5658 1.15681 36.5661H34.8604C34.9929 36.5658 35.1241 36.539 35.2461 36.4874C35.3682 36.4357 35.4787 36.3602 35.5711 36.2652C35.6621 36.172 35.7333 36.0613 35.7803 35.9398C35.8273 35.8183 35.8493 35.6886 35.8448 35.5584C35.7034 30.9341 33.7617 26.5478 30.4335 23.3342V23.3342ZM2.33975 34.5363C2.2399 35.0145 1.6459 35.3973 1.17678 35.6313C1.13555 35.6512 1.09106 35.6636 1.04543 35.6678C1.02543 35.6453 1.01477 35.6161 1.01562 35.586C1.0482 34.6132 1.1627 33.6449 1.3579 32.6913C2.30206 33.2313 2.4905 33.8149 2.33975 34.5363ZM6.24181 28.8748C5.744 28.8748 5.11034 28.2662 5.11034 27.7683C5.11034 27.5292 5.20534 27.2999 5.37444 27.1308C5.54354 26.9617 5.77288 26.8667 6.01203 26.8667C6.51012 26.8667 7.11875 27.3729 7.11875 27.8707C7.11875 28.3685 6.7399 28.8748 6.24181 28.8748ZM9.56534 35.7224H9.50599C8.51459 35.7044 8.09975 34.9911 8.09975 33.9845C8.09975 32.9653 8.67153 32.245 9.69078 32.245C10.71 32.245 11.2396 33.0713 11.2396 34.0906C11.2407 35.1022 10.5719 35.7134 9.56534 35.7224V35.7224ZM14.6605 26.3722C12.973 26.3722 12.0935 26.0164 12.0935 24.8447C12.0935 23.6731 13.1217 22.5537 14.809 22.5537C16.4962 22.5537 17.5666 23.5035 17.5666 24.6752C17.5666 25.8468 16.3477 26.3722 14.6605 26.3722ZM20.693 32.7726C20.243 32.7726 19.5475 32.9414 19.343 32.0726C19.2395 31.6336 19.5222 30.6101 20.432 30.6829C21.2665 30.7502 21.5007 31.2609 21.5007 31.712C21.5007 32.1632 21.1441 32.7726 20.693 32.7726V32.7726ZM24.3855 24.1C24.2427 24.7148 23.836 24.8312 23.4996 24.7817C23.1632 24.7322 22.7484 24.4001 22.7984 24.0626C22.8485 23.7251 22.7984 23.1907 23.4703 23.1345C23.8092 23.1063 24.5411 23.4301 24.3855 24.1ZM29.4807 32.1063C28.6195 32.1063 27.9532 31.1642 27.9532 30.3033C27.9532 29.4423 28.4817 29.3273 29.3428 29.3273C30.204 29.3273 30.7322 29.6859 30.7322 30.5471C30.7322 31.4083 30.3418 32.1063 29.4807 32.1063ZM29.7476 25.9332C28.7671 25.2121 28.3309 24.2738 28.8259 22.9936C29.9793 23.9398 31.0023 25.0347 31.8682 26.2496C31.5153 26.3711 31.1383 26.4058 30.7691 26.3506C30.4 26.2955 30.0496 26.1522 29.7476 25.9329V25.9332ZM34.3578 34.34C34.2031 35.0057 33.7627 35.1326 33.3985 35.0783C33.0342 35.024 32.5848 34.664 32.6391 34.2998C32.6934 33.9356 32.6391 33.3542 33.367 33.2935C33.7337 33.2626 34.5263 33.6141 34.3578 34.3398V34.34Z" fill="#10CD00"/>
</svg>
