<svg width="41" height="36" viewBox="0 0 41 36" fill="none" xmlns="http://www.w3.org/2000/svg">
<g clip-path="url(#clip0_1144_835)">
<path d="M11.8465 6.00775C12.7717 6.00775 13.5218 5.33269 13.5218 4.49997C13.5218 3.66724 12.7717 2.99219 11.8465 2.99219C10.9212 2.99219 10.1711 3.66724 10.1711 4.49997C10.1711 5.33269 10.9212 6.00775 11.8465 6.00775Z" fill="#10CD00"/>
<path d="M25.4247 33.7487C25.92 33.7487 26.3216 33.3873 26.3216 32.9415C26.3216 32.4957 25.92 32.1343 25.4247 32.1343C24.9294 32.1343 24.5278 32.4957 24.5278 32.9415C24.5278 33.3873 24.9294 33.7487 25.4247 33.7487Z" fill="#10CD00"/>
<path d="M34.6681 18.2066C35.2116 18.2066 35.6522 17.8101 35.6522 17.321C35.6522 16.8318 35.2116 16.4353 34.6681 16.4353C34.1247 16.4353 33.6841 16.8318 33.6841 17.321C33.6841 17.8101 34.1247 18.2066 34.6681 18.2066Z" fill="#10CD00"/>
<path d="M22.8137 11.3936C23.3571 11.3936 23.7977 10.9971 23.7977 10.508C23.7977 10.0188 23.3571 9.62231 22.8137 9.62231C22.2702 9.62231 21.8296 10.0188 21.8296 10.508C21.8296 10.9971 22.2702 11.3936 22.8137 11.3936Z" fill="#10CD00"/>
<path d="M5.6159 24.0616C6.15938 24.0616 6.59996 23.6651 6.59996 23.1759C6.59996 22.6868 6.15938 22.2903 5.6159 22.2903C5.07242 22.2903 4.63184 22.6868 4.63184 23.1759C4.63184 23.6651 5.07242 24.0616 5.6159 24.0616Z" fill="#10CD00"/>
<path d="M32.5549 8.49976C33.2453 8.49976 33.8049 7.99608 33.8049 7.37476C33.8049 6.75344 33.2453 6.24976 32.5549 6.24976C31.8646 6.24976 31.3049 6.75344 31.3049 7.37476C31.3049 7.99608 31.8646 8.49976 32.5549 8.49976Z" fill="#10CD00"/>
<path d="M4.80318 7.26119L5.02849 7.63216C5.04637 7.66161 5.07327 7.68582 5.10599 7.70191L5.51818 7.90497C5.54919 7.92004 5.57509 7.94237 5.59314 7.9696C5.61119 7.99683 5.62072 8.02795 5.62072 8.05966C5.62072 8.09137 5.61119 8.12249 5.59314 8.14972C5.57509 8.17696 5.54919 8.19929 5.51818 8.21435L5.10599 8.41713C5.07327 8.43322 5.04637 8.45743 5.02849 8.48688L4.80318 8.85785C4.78644 8.88576 4.76163 8.90907 4.73137 8.92531C4.70112 8.94156 4.66654 8.95014 4.6313 8.95014C4.59607 8.95014 4.56149 8.94156 4.53123 8.92531C4.50098 8.90907 4.47616 8.88576 4.45943 8.85785L4.23412 8.48688C4.21613 8.45741 4.18912 8.4332 4.1563 8.41713L3.74537 8.21238C3.71436 8.19732 3.68846 8.17499 3.67041 8.14776C3.65235 8.12052 3.64282 8.0894 3.64282 8.05769C3.64282 8.02598 3.65235 7.99486 3.67041 7.96763C3.68846 7.9404 3.71436 7.91807 3.74537 7.90301L4.15755 7.69994C4.19037 7.68387 4.21738 7.65966 4.23537 7.63019L4.46068 7.25922C4.47771 7.23169 4.50265 7.20878 4.53289 7.1929C4.56313 7.17702 4.59756 7.16875 4.63258 7.16895C4.66759 7.16915 4.7019 7.17782 4.73191 7.19405C4.76193 7.21028 4.78654 7.23347 4.80318 7.26119V7.26119Z" fill="#10CD00"/>
<path d="M27.46 2.89888L27.7247 3.33454C27.7457 3.36915 27.7773 3.39764 27.8157 3.41666L28.3 3.65629C28.3361 3.67409 28.3661 3.70028 28.3871 3.73211C28.408 3.76395 28.4191 3.80027 28.4191 3.83727C28.4191 3.87427 28.408 3.91059 28.3871 3.94243C28.3661 3.97427 28.3361 4.00046 28.3 4.01826L27.8157 4.25648C27.7773 4.2755 27.7457 4.30399 27.7247 4.3386L27.46 4.77426C27.4403 4.80676 27.4112 4.83389 27.3758 4.85278C27.3404 4.87168 27.3 4.88165 27.2588 4.88165C27.2176 4.88165 27.1772 4.87168 27.1418 4.85278C27.1064 4.83389 27.0773 4.80676 27.0575 4.77426L26.7928 4.3386C26.7717 4.30398 26.7401 4.27549 26.7016 4.25648L26.2188 4.01685C26.183 3.99901 26.1533 3.97288 26.1325 3.94118C26.1118 3.90948 26.1008 3.87336 26.1008 3.83657C26.1008 3.79978 26.1118 3.76366 26.1325 3.73196C26.1533 3.70026 26.183 3.67413 26.2188 3.65629L26.7028 3.41807C26.7413 3.39905 26.773 3.37057 26.7941 3.33594L27.0588 2.90029C27.0785 2.86799 27.1075 2.84102 27.1427 2.82219C27.1778 2.80336 27.218 2.79336 27.259 2.79321C27.2999 2.79307 27.3401 2.80279 27.3755 2.82138C27.4109 2.83996 27.4401 2.86672 27.46 2.89888V2.89888Z" fill="#10CD00"/>
<path d="M9.4063 31.1934L9.70099 31.6783C9.72434 31.7168 9.75948 31.7485 9.80224 31.7697L10.341 32.0349C10.3811 32.0547 10.4147 32.0838 10.438 32.1192C10.4614 32.1546 10.4737 32.1951 10.4737 32.2363C10.4737 32.2775 10.4614 32.3179 10.438 32.3533C10.4147 32.3888 10.3811 32.4179 10.341 32.4376L9.80224 32.7029C9.7595 32.7239 9.72436 32.7555 9.70099 32.794L9.4063 33.2789C9.38441 33.3151 9.35208 33.3453 9.3127 33.3664C9.27332 33.3875 9.22836 33.3986 9.18255 33.3986C9.13674 33.3986 9.09177 33.3875 9.05239 33.3664C9.01302 33.3453 8.98068 33.3151 8.9588 33.2789L8.66411 32.794C8.64063 32.7555 8.60538 32.7239 8.56255 32.7029L8.0238 32.4376C7.98364 32.4179 7.95012 32.3888 7.92678 32.3533C7.90343 32.3179 7.89111 32.2775 7.89111 32.2363C7.89111 32.1951 7.90343 32.1546 7.92678 32.1192C7.95012 32.0838 7.98364 32.0547 8.0238 32.0349L8.56255 31.7697C8.60539 31.7485 8.64063 31.7168 8.66411 31.6783L8.9588 31.1934C8.98075 31.1572 9.01311 31.1271 9.05248 31.1061C9.09185 31.0851 9.13678 31.074 9.18255 31.074C9.22832 31.074 9.27325 31.0851 9.31262 31.1061C9.35198 31.1271 9.38434 31.1572 9.4063 31.1934V31.1934Z" fill="#10CD00"/>
<path d="M34.7107 29.4469L35.1775 30.2155C35.2146 30.2766 35.2703 30.3268 35.3382 30.3601L36.1922 30.782C36.2559 30.8133 36.3091 30.8594 36.3461 30.9156C36.3832 30.9718 36.4027 31.0359 36.4027 31.1012C36.4027 31.1665 36.3832 31.2306 36.3461 31.2868C36.3091 31.343 36.2559 31.3891 36.1922 31.4204L35.3382 31.8423C35.2704 31.8758 35.2147 31.9259 35.1775 31.9869L34.7107 32.7555C34.6754 32.8124 34.624 32.8598 34.5616 32.8927C34.4992 32.9257 34.4282 32.9431 34.3558 32.9431C34.2835 32.9431 34.2124 32.9257 34.1501 32.8927C34.0877 32.8598 34.0362 32.8124 34.001 32.7555L33.5322 31.9869C33.4952 31.9258 33.4394 31.8756 33.3716 31.8423L32.5175 31.4204C32.4539 31.3891 32.4008 31.3429 32.3639 31.2867C32.3269 31.2306 32.3074 31.1665 32.3074 31.1012C32.3074 31.0359 32.3269 30.9718 32.3639 30.9157C32.4008 30.8595 32.4539 30.8133 32.5175 30.782L33.3716 30.3601C33.4395 30.3268 33.4953 30.2766 33.5322 30.2155L34.001 29.4469C34.0362 29.39 34.0877 29.3426 34.1501 29.3096C34.2124 29.2767 34.2835 29.2593 34.3558 29.2593C34.4282 29.2593 34.4992 29.2767 34.5616 29.3096C34.624 29.3426 34.6754 29.39 34.7107 29.4469V29.4469Z" fill="#10CD00"/>
<path d="M16.1145 27.3996C16.8979 27.3996 17.5329 26.8281 17.5329 26.123C17.5329 25.418 16.8979 24.8464 16.1145 24.8464C15.3311 24.8464 14.696 25.418 14.696 26.123C14.696 26.8281 15.3311 27.3996 16.1145 27.3996Z" fill="#10CD00"/>
<path d="M38.4573 25.1064L38.7223 25.5423C38.7432 25.5769 38.7748 25.6053 38.8132 25.6242L39.2973 25.8627C39.3334 25.8804 39.3635 25.9066 39.3846 25.9384C39.4056 25.9703 39.4166 26.0066 39.4166 26.0437C39.4166 26.0807 39.4056 26.1171 39.3846 26.1489C39.3635 26.1808 39.3334 26.2069 39.2973 26.2247L38.8132 26.4629C38.7748 26.4818 38.7432 26.5103 38.7223 26.545L38.4573 26.9807C38.4376 27.0132 38.4085 27.0403 38.3731 27.0592C38.3377 27.0781 38.2973 27.0881 38.2562 27.0881C38.215 27.0881 38.1746 27.0781 38.1392 27.0592C38.1039 27.0403 38.0748 27.0132 38.0551 26.9807L37.7904 26.545C37.7693 26.5104 37.7376 26.4819 37.6991 26.4629L37.2151 26.2247C37.179 26.2069 37.1488 26.1808 37.1278 26.1489C37.1068 26.1171 37.0957 26.0807 37.0957 26.0437C37.0957 26.0066 37.1068 25.9703 37.1278 25.9384C37.1488 25.9066 37.179 25.8804 37.2151 25.8627L37.6991 25.6242C37.7376 25.6053 37.7693 25.5769 37.7904 25.5423L38.0551 25.1064C38.0749 25.074 38.104 25.0469 38.1393 25.0281C38.1747 25.0092 38.2151 24.9993 38.2562 24.9993C38.2973 24.9993 38.3376 25.0092 38.373 25.0281C38.4084 25.0469 38.4375 25.074 38.4573 25.1064V25.1064Z" fill="#10CD00"/>
<path d="M21.0106 22.0431C19.7518 22.0431 18.6443 21.6915 18.0272 21.028C17.4362 20.3927 17.4022 19.5624 17.9318 18.7499C18.6078 17.7143 20.2131 17.3743 21.1456 17.7731C21.7025 18.0113 22.1622 18.593 21.7825 19.5107C21.7617 19.5634 21.7294 19.6119 21.6876 19.6532C21.6458 19.6946 21.5952 19.7281 21.5389 19.7518C21.4826 19.7754 21.4216 19.7887 21.3595 19.791C21.2974 19.7932 21.2354 19.7843 21.1772 19.7648C21.1189 19.7453 21.0656 19.7155 21.0202 19.6772C20.9749 19.639 20.9384 19.593 20.913 19.542C20.8876 19.4909 20.8737 19.4358 20.8722 19.3799C20.8706 19.324 20.8815 19.2683 20.904 19.2162C21.119 18.6962 20.8556 18.5831 20.7428 18.535C20.1981 18.3016 19.145 18.557 18.74 19.1774C18.4087 19.6853 18.4103 20.1258 18.7459 20.4863C19.3772 21.1644 21.1609 21.4893 23.0534 20.859C26.0534 19.8594 27.4968 17.6862 27.3706 16.0558C27.259 14.6105 26.0384 13.5861 23.9331 13.1713C23.8116 13.1473 23.7057 13.0809 23.6387 12.9866C23.5716 12.8924 23.5489 12.778 23.5756 12.6687C23.6022 12.5594 23.676 12.4641 23.7808 12.4037C23.8855 12.3434 24.0126 12.323 24.134 12.347C26.6443 12.8417 28.1653 14.1723 28.3059 15.9973C28.4812 18.2639 26.4087 20.641 23.3787 21.6504C22.6211 21.9054 21.8195 22.0383 21.0106 22.0431Z" fill="#10CD00"/>
<path d="M20.2416 24.9124C19.3254 24.9164 18.4128 24.8098 17.5281 24.5954C15.431 24.0773 13.955 22.8126 13.5794 21.2123C13.1944 19.5706 13.9906 17.8828 15.7638 16.5818C17.9313 14.9907 21.5435 14.0879 23.9688 15.5448C24.277 15.7255 24.5311 15.9717 24.7088 16.2616C24.8865 16.5515 24.9823 16.8762 24.9878 17.2073C24.9865 17.7342 24.8555 18.2544 24.6042 18.7304C24.3528 19.2064 23.9875 19.6264 23.5344 19.9601C23.4863 19.9954 23.4309 20.0217 23.3715 20.0375C23.312 20.0533 23.2496 20.0584 23.188 20.0524C23.1263 20.0464 23.0666 20.0294 23.0123 20.0025C22.958 19.9756 22.9101 19.9392 22.8715 19.8955C22.8329 19.8519 22.8043 19.8017 22.7874 19.748C22.7705 19.6943 22.7656 19.6381 22.773 19.5827C22.7804 19.5273 22.7999 19.4738 22.8305 19.4252C22.861 19.3766 22.902 19.334 22.951 19.2998C23.287 19.0475 23.5591 18.7334 23.7489 18.3786C23.9387 18.0237 24.0418 17.6364 24.0513 17.2427C24.0505 17.0447 23.9949 16.8499 23.8897 16.6761C23.7845 16.5022 23.6328 16.3545 23.4485 16.2465C21.4703 15.0593 18.2891 15.8173 16.3547 17.2357C14.8644 18.3303 14.1875 19.7157 14.4966 21.0376C14.7981 22.3232 16.0244 23.3489 17.776 23.7815C21.6088 24.7282 25.5478 22.994 25.5885 22.9763C25.6997 22.9262 25.8284 22.918 25.9464 22.9535C26.0643 22.9889 26.1618 23.065 26.2174 23.1651C26.2729 23.2652 26.282 23.3811 26.2427 23.4872C26.2033 23.5934 26.1187 23.6811 26.0075 23.7311C24.1993 24.4856 22.2345 24.8881 20.2416 24.9124V24.9124Z" fill="#10CD00"/>
<path d="M27.9431 22.6356C27.8447 22.6356 27.7488 22.6078 27.669 22.556C27.5892 22.5042 27.5295 22.4312 27.4984 22.3472C27.4673 22.2632 27.4664 22.1725 27.4957 22.088C27.525 22.0035 27.5832 21.9294 27.6619 21.8763C29.5969 20.5665 30.8472 19.0688 31.4841 17.2969C31.5025 17.2437 31.5326 17.1943 31.5724 17.1516C31.6122 17.1089 31.6611 17.0737 31.7161 17.0481C31.7711 17.0225 31.8313 17.007 31.893 17.0024C31.9547 16.9978 32.0169 17.0043 32.0758 17.0215C32.1348 17.0387 32.1893 17.0662 32.2364 17.1025C32.2834 17.1387 32.322 17.183 32.3499 17.2328C32.3778 17.2826 32.3945 17.3369 32.399 17.3925C32.4034 17.4481 32.3956 17.5039 32.3759 17.5568C31.6781 19.4991 30.32 21.1326 28.2247 22.551C28.1436 22.606 28.0447 22.6358 27.9431 22.6356V22.6356Z" fill="#10CD00"/>
<path d="M11.3917 17.2033C11.3021 17.2033 11.2145 17.1802 11.1391 17.1367C11.0637 17.0933 11.0037 17.0313 10.9662 16.9582C10.9287 16.885 10.9153 16.8037 10.9275 16.7239C10.9397 16.6441 10.977 16.5691 11.0351 16.5078C13.7638 13.6264 18.6688 11.9608 21.5392 12.2134C21.6015 12.2175 21.6623 12.2328 21.7179 12.2584C21.7736 12.284 21.823 12.3193 21.8633 12.3623C21.9035 12.4053 21.9338 12.4551 21.9524 12.5089C21.971 12.5626 21.9774 12.6191 21.9713 12.6751C21.9653 12.731 21.9468 12.7854 21.9171 12.8348C21.8874 12.8843 21.8469 12.9279 21.7982 12.9631C21.7495 12.9983 21.6934 13.0244 21.6333 13.0398C21.5732 13.0553 21.5103 13.0597 21.4482 13.0529C18.8682 12.8279 14.2504 14.4136 11.7485 17.0554C11.7045 17.1018 11.6498 17.1391 11.5881 17.1646C11.5265 17.1902 11.4595 17.2034 11.3917 17.2033V17.2033Z" fill="#10CD00"/>
<path d="M14.1304 28.4255C14.068 28.4254 14.0063 28.4141 13.9488 28.3923C11.5938 27.5004 9.88632 25.9623 9.13632 24.061C8.40007 22.1893 8.63101 20.0898 9.78694 18.1486C9.81557 18.0991 9.85485 18.0551 9.90248 18.0193C9.95012 17.9836 10.0052 17.9567 10.0645 17.9402C10.1237 17.9237 10.1861 17.918 10.2478 17.9233C10.3096 17.9287 10.3695 17.945 10.4242 17.9714C10.4789 17.9978 10.5272 18.0337 10.5664 18.077C10.6056 18.1203 10.6348 18.1702 10.6524 18.2237C10.6699 18.2773 10.6755 18.3335 10.6688 18.389C10.6621 18.4445 10.6432 18.4982 10.6132 18.5471C9.58194 20.2762 9.37288 22.1345 10.0194 23.7784C10.6779 25.4527 12.2023 26.8159 14.311 27.6132C14.4109 27.651 14.4931 27.7187 14.5438 27.8048C14.5945 27.891 14.6104 27.9903 14.589 28.0858C14.5675 28.1814 14.5099 28.2673 14.426 28.3289C14.3422 28.3906 14.2371 28.4242 14.1288 28.4241L14.1304 28.4255Z" fill="#10CD00"/>
<path d="M19.6776 29.2279C18.5461 29.2346 17.4188 29.1051 16.3254 28.8429C16.2648 28.8293 16.2078 28.805 16.1577 28.7713C16.1077 28.7377 16.0657 28.6953 16.0341 28.6468C16.0025 28.5983 15.982 28.5446 15.9738 28.4889C15.9656 28.4331 15.9698 28.3765 15.9863 28.3222C16.0028 28.268 16.0312 28.2173 16.0697 28.173C16.1083 28.1288 16.1563 28.092 16.2109 28.0647C16.2655 28.0374 16.3257 28.0202 16.3878 28.0141C16.4499 28.008 16.5127 28.0132 16.5726 28.0293C20.5779 29.0136 25.7995 27.9381 30.8988 25.0775C31.0043 25.0183 31.1317 24.9993 31.2528 25.0246C31.3739 25.0499 31.4789 25.1174 31.5446 25.2124C31.6104 25.3073 31.6315 25.4219 31.6034 25.5309C31.5753 25.6399 31.5003 25.7344 31.3948 25.7936C27.386 28.0425 23.2795 29.2279 19.6776 29.2279Z" fill="#10CD00"/>
<path d="M32.1779 15.84H32.1663C32.1047 15.8387 32.0441 15.8265 31.9878 15.8041C31.9314 15.7817 31.8806 15.7495 31.8381 15.7093C31.7956 15.6692 31.7623 15.622 31.7401 15.5703C31.718 15.5186 31.7073 15.4634 31.7088 15.408C31.7594 13.5377 31.0213 11.9503 29.5713 10.8175C27.2772 9.02394 23.4326 8.42207 18.7463 9.1235C18.6851 9.13356 18.6224 9.13255 18.5616 9.12056C18.5009 9.10856 18.4434 9.08581 18.3925 9.05362C18.3417 9.02144 18.2984 8.98047 18.2653 8.93309C18.2322 8.88572 18.2099 8.83289 18.1997 8.77769C18.1895 8.72248 18.1916 8.666 18.2059 8.61154C18.2202 8.55707 18.2464 8.50571 18.2829 8.46044C18.3195 8.41517 18.3657 8.3769 18.4189 8.34786C18.472 8.31882 18.5311 8.29959 18.5926 8.29129C23.5594 7.5471 27.6769 8.21872 30.1876 10.1813C31.8544 11.4846 32.7054 13.2992 32.6476 15.4291C32.6444 15.5393 32.5935 15.6439 32.5057 15.7207C32.4179 15.7975 32.3003 15.8403 32.1779 15.84V15.84Z" fill="#10CD00"/>
<path d="M3.31261 18.4058C3.23183 18.4058 3.15242 18.387 3.08207 18.3513C3.01173 18.3155 2.95284 18.264 2.91111 18.2018C2.86939 18.1395 2.84625 18.0686 2.84394 17.996C2.84163 17.9233 2.86022 17.8513 2.89792 17.787C5.66261 13.0499 12.3845 9.5554 16.1735 8.85452C16.2346 8.84156 16.298 8.83977 16.3598 8.84925C16.4217 8.85873 16.4808 8.87929 16.5336 8.90971C16.5865 8.94013 16.632 8.97979 16.6676 9.02634C16.7031 9.0729 16.7278 9.1254 16.7404 9.18072C16.7529 9.23605 16.753 9.29309 16.7406 9.34844C16.7283 9.4038 16.7036 9.45636 16.6683 9.503C16.6329 9.54964 16.5875 9.58941 16.5347 9.61996C16.4819 9.6505 16.4229 9.67121 16.361 9.68083C12.7557 10.3482 6.35792 13.6729 3.72667 18.1799C3.68703 18.2479 3.62751 18.3049 3.55455 18.3447C3.48158 18.3845 3.39793 18.4056 3.31261 18.4058V18.4058Z" fill="#10CD00"/>
<path d="M2.52102 28.5451C2.44721 28.5452 2.37444 28.5295 2.30863 28.4995C2.24281 28.4694 2.18581 28.4258 2.14227 28.3722C0.216643 26.0004 0.904143 21.4638 2.24477 19.2555C2.30593 19.1601 2.4061 19.09 2.5239 19.0602C2.6417 19.0304 2.76778 19.0432 2.87521 19.0959C2.98264 19.1487 3.0629 19.2371 3.09884 19.3424C3.13479 19.4477 3.12357 19.5614 3.06758 19.6593C1.87508 21.625 1.21633 25.8016 2.89914 27.8744C2.95019 27.9372 2.98091 28.0116 2.98789 28.0892C2.99488 28.1668 2.97785 28.2447 2.9387 28.3141C2.89955 28.3836 2.83981 28.4419 2.76609 28.4827C2.69237 28.5235 2.60755 28.5451 2.52102 28.5451V28.5451Z" fill="#10CD00"/>
<path d="M33.3372 24.4815C33.2386 24.4816 33.1424 24.4536 33.0624 24.4016C32.9824 24.3496 32.9227 24.2762 32.8918 24.1918C32.8609 24.1075 32.8603 24.0165 32.8902 23.9319C32.92 23.8473 32.9788 23.7733 33.0582 23.7204C35.631 22.0071 39.2038 17.6989 39.0894 13.4863C39.0864 13.3744 39.133 13.2661 39.2188 13.185C39.3046 13.104 39.4226 13.057 39.5469 13.0543C39.6713 13.0516 39.7917 13.0935 39.8817 13.1707C39.9717 13.2479 40.0239 13.3542 40.0269 13.4661C40.1476 17.9807 36.3501 22.5769 33.6147 24.3985C33.5345 24.4522 33.4372 24.4813 33.3372 24.4815V24.4815Z" fill="#10CD00"/>
<path d="M39.5788 12.3422H39.555C39.4309 12.3366 39.3143 12.2868 39.2309 12.2038C39.1475 12.1209 39.1041 12.0115 39.1104 11.8998C39.1272 10.6365 38.8007 9.38877 38.1591 8.26516C38.1291 8.21675 38.1101 8.16351 38.103 8.10848C38.0959 8.05344 38.1009 7.99769 38.1177 7.9444C38.1346 7.89111 38.1629 7.84132 38.2012 7.79789C38.2394 7.75446 38.2867 7.71823 38.3405 7.69127C38.3943 7.6643 38.4534 7.64714 38.5146 7.64075C38.5757 7.63437 38.6377 7.63888 38.6969 7.65404C38.7561 7.6692 38.8114 7.69471 38.8597 7.72911C38.908 7.76351 38.9482 7.80613 38.9782 7.85453C39.7054 9.11618 40.0726 10.5208 40.0466 11.9419C40.0404 12.0499 39.9885 12.1516 39.9014 12.2261C39.8144 12.3005 39.6989 12.3421 39.5788 12.3422V12.3422Z" fill="#10CD00"/>
</g>
<defs>
<clipPath id="clip0_1144_835">
<rect width="40" height="36" fill="white" transform="translate(0.5)"/>
</clipPath>
</defs>
</svg>
