<svg width="36" height="36" viewBox="0 0 36 36" fill="none" xmlns="http://www.w3.org/2000/svg">
<path d="M27.2206 8.77559L27.2244 8.77942C27.3133 8.86814 27.4284 8.92583 27.5526 8.94391C27.6769 8.96199 27.8036 8.9395 27.9141 8.87977L30.4332 7.51778C30.5131 7.47461 30.5818 7.41337 30.6338 7.33896C30.6859 7.26454 30.7198 7.179 30.7329 7.08916C30.746 6.99931 30.738 6.90764 30.7094 6.82146C30.6808 6.73527 30.6325 6.65695 30.5683 6.59274L29.4073 5.43173C29.3431 5.36753 29.2648 5.31921 29.1786 5.29064C29.0924 5.26206 29.0007 5.25401 28.9109 5.26713C28.821 5.28025 28.7355 5.31418 28.6611 5.36621C28.5867 5.41823 28.5254 5.48692 28.4823 5.5668L27.1203 8.08598C27.0605 8.19642 27.038 8.32318 27.0561 8.44742C27.0742 8.57167 27.1319 8.68676 27.2206 8.77559Z" fill="#10CD00"/>
<path d="M18.0027 4.95703H17.9972C17.8717 4.95702 17.7495 4.91648 17.6489 4.84145C17.5482 4.76642 17.4745 4.6609 17.4386 4.54059L16.6205 1.79637C16.5945 1.70932 16.5893 1.61741 16.6052 1.52797C16.621 1.43853 16.6576 1.35404 16.7119 1.28124C16.7662 1.20843 16.8368 1.14933 16.918 1.10864C16.9992 1.06795 17.0888 1.0468 17.1797 1.04688H18.8203C18.9111 1.04688 19.0006 1.06809 19.0817 1.10882C19.1629 1.14955 19.2334 1.20866 19.2877 1.28146C19.3419 1.35425 19.3784 1.43871 19.3943 1.5281C19.4101 1.6175 19.4049 1.70936 19.3789 1.79637L18.5613 4.54086C18.5254 4.66112 18.4517 4.76658 18.351 4.84156C18.2504 4.91654 18.1282 4.95704 18.0027 4.95703Z" fill="#10CD00"/>
<path d="M18.0026 31.043H17.9972C17.8716 31.043 17.7494 31.0835 17.6488 31.1586C17.5481 31.2336 17.4744 31.3391 17.4385 31.4594L16.6204 34.2039C16.5945 34.2909 16.5893 34.3828 16.6052 34.4722C16.6211 34.5616 16.6577 34.6461 16.712 34.7188C16.7663 34.7916 16.8368 34.8507 16.918 34.8914C16.9992 34.932 17.0888 34.9532 17.1796 34.9531H18.8202C18.911 34.9531 19.0005 34.9319 19.0817 34.8912C19.1628 34.8505 19.2333 34.7913 19.2876 34.7185C19.3418 34.6458 19.3783 34.5613 19.3942 34.4719C19.41 34.3825 19.4048 34.2906 19.3788 34.2036L18.5607 31.4591C18.5248 31.339 18.4511 31.2336 18.3506 31.1586C18.2501 31.0836 18.128 31.0431 18.0026 31.043Z" fill="#10CD00"/>
<path d="M31.043 17.9973V18.0027C31.043 18.1283 31.0835 18.2505 31.1586 18.3511C31.2336 18.4518 31.3391 18.5255 31.4594 18.5614L34.2039 19.3795C34.2909 19.4054 34.3828 19.4106 34.4722 19.3947C34.5616 19.3788 34.6461 19.3422 34.7188 19.2879C34.7916 19.2336 34.8507 19.1631 34.8914 19.0819C34.932 19.0007 34.9532 18.9111 34.9531 18.8203V17.1797C34.9531 17.0889 34.9319 16.9994 34.8912 16.9182C34.8505 16.8371 34.7913 16.7666 34.7185 16.7123C34.6458 16.6581 34.5613 16.6216 34.4719 16.6057C34.3825 16.5899 34.2906 16.5951 34.2036 16.6211L31.4591 17.4392C31.339 17.4751 31.2336 17.5487 31.1586 17.6493C31.0836 17.7498 31.0431 17.8719 31.043 17.9973Z" fill="#10CD00"/>
<path d="M4.95703 17.9973V18.0027C4.95702 18.1283 4.91648 18.2505 4.84145 18.3511C4.76642 18.4518 4.6609 18.5255 4.54059 18.5614L1.79637 19.3795C1.70932 19.4054 1.61741 19.4107 1.52797 19.3948C1.43853 19.3789 1.35404 19.3424 1.28124 19.2881C1.20843 19.2338 1.14933 19.1632 1.10864 19.082C1.06795 19.0008 1.0468 18.9112 1.04688 18.8203V17.1797C1.04688 17.0889 1.06809 16.9994 1.10882 16.9182C1.14955 16.8371 1.20866 16.7666 1.28146 16.7123C1.35425 16.6581 1.43871 16.6216 1.5281 16.6057C1.6175 16.5899 1.70936 16.5951 1.79637 16.6211L4.54086 17.4392C4.66103 17.4751 4.76643 17.5487 4.8414 17.6493C4.91637 17.7498 4.95692 17.8719 4.95703 17.9973Z" fill="#10CD00"/>
<path d="M8.77939 8.77559L8.77556 8.77942C8.68673 8.86814 8.57164 8.92583 8.44739 8.94391C8.32315 8.96199 8.19639 8.9395 8.08595 8.87977L5.56677 7.51778C5.48689 7.47461 5.4182 7.41337 5.36618 7.33896C5.31415 7.26454 5.28022 7.179 5.2671 7.08916C5.25398 6.99931 5.26203 6.90764 5.29061 6.82146C5.31918 6.73527 5.3675 6.65695 5.43169 6.59274L6.59271 5.43173C6.65692 5.36753 6.73524 5.31921 6.82143 5.29064C6.90761 5.26206 6.99928 5.25401 7.08913 5.26713C7.17897 5.28025 7.26451 5.31418 7.33893 5.36621C7.41334 5.41823 7.47458 5.48692 7.51775 5.5668L8.87974 8.08598C8.93947 8.19642 8.96196 8.32318 8.94388 8.44742C8.9258 8.57167 8.86811 8.68676 8.77939 8.77559Z" fill="#10CD00"/>
<path d="M8.77556 27.2206L8.77939 27.2244C8.86811 27.3133 8.9258 27.4283 8.94388 27.5526C8.96196 27.6768 8.93947 27.8036 8.87974 27.914L7.51775 30.4332C7.47458 30.5131 7.41334 30.5818 7.33893 30.6338C7.26451 30.6858 7.17897 30.7198 7.08913 30.7329C6.99928 30.746 6.90761 30.7379 6.82143 30.7094C6.73524 30.6808 6.65692 30.6325 6.59271 30.5683L5.43169 29.4073C5.3675 29.3431 5.31918 29.2647 5.29061 29.1786C5.26203 29.0924 5.25398 29.0007 5.2671 28.9109C5.28022 28.821 5.31415 28.7355 5.36618 28.6611C5.4182 28.5866 5.48689 28.5254 5.56677 28.4822L8.08595 27.1202C8.19639 27.0605 8.32315 27.038 8.44739 27.0561C8.57164 27.0742 8.68673 27.1319 8.77556 27.2206Z" fill="#10CD00"/>
<path d="M18.0001 29.4352C15.7384 29.4352 13.5276 28.7645 11.6471 27.508C9.76657 26.2515 8.3009 24.4655 7.4354 22.376C6.5699 20.2865 6.34344 17.9873 6.78467 15.7691C7.2259 13.5509 8.31499 11.5134 9.91423 9.91412C11.5135 8.31488 13.551 7.22579 15.7692 6.78456C17.9874 6.34333 20.2866 6.56979 22.3761 7.43529C24.4656 8.30079 26.2516 9.76646 27.5081 11.647C28.7646 13.5275 29.4353 15.7383 29.4353 18C29.4319 21.0317 28.226 23.9383 26.0822 26.0821C23.9385 28.2259 21.0319 29.4318 18.0001 29.4352ZM18.0001 7.38515C15.9007 7.38515 13.8484 8.0077 12.1028 9.17408C10.3572 10.3405 8.99668 11.9983 8.19327 13.9379C7.38985 15.8775 7.17964 18.0118 7.58922 20.0709C7.9988 22.1299 9.00976 24.0213 10.4943 25.5058C11.9788 26.9903 13.8702 28.0013 15.9292 28.4109C17.9883 28.8205 20.1226 28.6102 22.0622 27.8068C24.0018 27.0034 25.6596 25.6429 26.826 23.8973C27.9924 22.1517 28.6149 20.0994 28.6149 18C28.6117 15.1858 27.4923 12.4877 25.5023 10.4978C23.5124 8.5078 20.8143 7.38841 18.0001 7.38515Z" fill="#10CD00"/>
<path d="M18.0001 27.5304C16.1152 27.5304 14.2726 26.9714 12.7053 25.9242C11.1381 24.877 9.91652 23.3886 9.19519 21.6471C8.47386 19.9057 8.28512 17.9894 8.65285 16.1407C9.02059 14.292 9.92827 12.5938 11.2611 11.261C12.594 9.92815 14.2921 9.02046 16.1408 8.65273C17.9895 8.285 19.9058 8.47373 21.6472 9.19507C23.3887 9.9164 24.8771 11.1379 25.9244 12.7052C26.9716 14.2725 27.5305 16.1151 27.5305 18C27.5276 20.5267 26.5226 22.9491 24.7359 24.7358C22.9493 26.5225 20.5268 27.5275 18.0001 27.5304ZM18.0001 9.28992C16.2774 9.28992 14.5934 9.80076 13.1611 10.7578C11.7287 11.7149 10.6123 13.0752 9.95306 14.6668C9.29381 16.2584 9.12132 18.0097 9.4574 19.6993C9.79348 21.3888 10.623 22.9408 11.8412 24.159C13.0593 25.3771 14.6113 26.2066 16.3009 26.5427C17.9905 26.8788 19.7418 26.7063 21.3333 26.0471C22.9249 25.3878 24.2852 24.2714 25.2423 22.8391C26.1994 21.4067 26.7102 19.7227 26.7102 18C26.7075 15.6908 25.789 13.4769 24.1561 11.844C22.5232 10.2111 20.3094 9.2926 18.0001 9.28992Z" fill="#10CD00"/>
<path d="M18.0001 27.1202C23.0371 27.1202 27.1203 23.037 27.1203 18C27.1203 12.963 23.0371 8.87976 18.0001 8.87976C12.9632 8.87976 8.87988 12.963 8.87988 18C8.87988 23.037 12.9632 27.1202 18.0001 27.1202Z" fill="#10CD00"/>
<path d="M27.2244 27.2206L27.2206 27.2244C27.1319 27.3133 27.0742 27.4283 27.0561 27.5526C27.038 27.6768 27.0605 27.8036 27.1203 27.914L28.4823 30.4332C28.5254 30.5131 28.5867 30.5818 28.6611 30.6338C28.7355 30.6858 28.821 30.7198 28.9109 30.7329C29.0007 30.746 29.0924 30.7379 29.1786 30.7094C29.2648 30.6808 29.3431 30.6325 29.4073 30.5683L30.5683 29.4073C30.6325 29.3431 30.6808 29.2647 30.7094 29.1786C30.738 29.0924 30.746 29.0007 30.7329 28.9109C30.7198 28.821 30.6859 28.7355 30.6338 28.6611C30.5818 28.5866 30.5131 28.5254 30.4332 28.4822L27.9141 27.1202C27.8036 27.0605 27.6769 27.038 27.5526 27.0561C27.4284 27.0742 27.3133 27.1319 27.2244 27.2206Z" fill="#10CD00"/>
<path d="M18.0001 27.5304C16.1152 27.5304 14.2726 26.9714 12.7053 25.9242C11.1381 24.877 9.91652 23.3886 9.19519 21.6471C8.47386 19.9057 8.28512 17.9894 8.65285 16.1407C9.02059 14.292 9.92827 12.5938 11.2611 11.261C12.594 9.92815 14.2921 9.02046 16.1408 8.65273C17.9895 8.285 19.9058 8.47373 21.6472 9.19507C23.3887 9.9164 24.8771 11.1379 25.9244 12.7052C26.9716 14.2725 27.5305 16.1151 27.5305 18C27.5276 20.5267 26.5226 22.9491 24.7359 24.7358C22.9493 26.5225 20.5268 27.5275 18.0001 27.5304ZM18.0001 9.28992C16.2774 9.28992 14.5934 9.80076 13.1611 10.7578C11.7287 11.7149 10.6123 13.0752 9.95306 14.6668C9.29381 16.2584 9.12132 18.0097 9.4574 19.6993C9.79348 21.3888 10.623 22.9408 11.8412 24.159C13.0593 25.3771 14.6113 26.2066 16.3009 26.5427C17.9905 26.8788 19.7418 26.7063 21.3333 26.0471C22.9249 25.3878 24.2852 24.2714 25.2423 22.8391C26.1994 21.4067 26.7102 19.7227 26.7102 18C26.7075 15.6908 25.789 13.4769 24.1561 11.844C22.5232 10.2111 20.3094 9.2926 18.0001 9.28992Z" fill="#10CD00"/>
</svg>
