<svg width="32" height="32" viewBox="0 0 32 32" fill="none" xmlns="http://www.w3.org/2000/svg">
<path d="M4.1814 30.0327C4.11718 30.0327 4.05406 30.0166 3.99806 29.9862C3.94207 29.9557 3.89509 29.9119 3.86162 29.8588C3.82814 29.8057 3.80931 29.7452 3.8069 29.683C3.8045 29.6208 3.81862 29.5591 3.8479 29.5038L9.2564 19.2885C9.29238 19.2207 9.34949 19.1655 9.41965 19.1309L25.5642 11.1341L20.1779 2.71515L9.9779 5.63957L10.7849 12.1006C10.7968 12.1963 10.769 12.2927 10.7077 12.3685C10.6463 12.4443 10.5563 12.4934 10.4575 12.505C10.3588 12.5165 10.2593 12.4896 10.181 12.4301C10.1028 12.3707 10.0521 12.2835 10.0401 12.1878L9.1954 5.42184C9.18448 5.33641 9.20523 5.25001 9.25394 5.17802C9.30266 5.10603 9.37618 5.05314 9.4614 5.02877L20.2394 1.93967C20.3182 1.91712 20.4025 1.9203 20.4793 1.9487C20.5561 1.97709 20.6211 2.02915 20.6644 2.09685L26.4159 11.0866C26.4432 11.1293 26.4611 11.177 26.4684 11.2268C26.4757 11.2765 26.4723 11.3272 26.4583 11.3755C26.4444 11.4239 26.4203 11.469 26.3875 11.5079C26.3546 11.5468 26.3138 11.5787 26.2677 11.6015L9.86765 19.7245L4.51515 29.8353C4.48364 29.8948 4.43582 29.9447 4.37693 29.9795C4.31805 30.0143 4.25039 30.0327 4.1814 30.0327V30.0327Z" fill="#10CD00"/>
<path d="M25.0435 30.075C24.9697 30.0751 24.8975 30.054 24.836 30.0145C24.7745 29.975 24.7264 29.9188 24.6977 29.853L20.9582 21.2652C20.9243 21.1874 20.9195 21.1006 20.9445 21.0198C20.9695 20.9389 21.0228 20.869 21.0952 20.822L26.2382 17.4895C26.3209 17.436 26.4222 17.4164 26.5198 17.4352C26.6174 17.454 26.7033 17.5095 26.7586 17.5897C26.8139 17.6698 26.8341 17.7679 26.8147 17.8625C26.7953 17.957 26.7379 18.0402 26.6552 18.0938L21.7695 21.2594L25.3887 29.5706C25.4128 29.6258 25.4223 29.6859 25.4166 29.7455C25.4108 29.8052 25.3899 29.8626 25.3557 29.9125C25.3216 29.9624 25.2752 30.0034 25.2207 30.0318C25.1662 30.0601 25.1053 30.075 25.0435 30.075Z" fill="#10CD00"/>
<path d="M21.3038 22.2144C21.8357 22.2144 22.2668 21.7968 22.2668 21.2815C22.2668 20.7663 21.8357 20.3486 21.3038 20.3486C20.772 20.3486 20.3408 20.7663 20.3408 21.2815C20.3408 21.7968 20.772 22.2144 21.3038 22.2144Z" fill="#10CD00"/>
<path d="M26.4464 18.7242C26.9782 18.7242 27.4094 18.3065 27.4094 17.7913C27.4094 17.2761 26.9782 16.8584 26.4464 16.8584C25.9145 16.8584 25.4834 17.2761 25.4834 17.7913C25.4834 18.3065 25.9145 18.7242 26.4464 18.7242Z" fill="#10CD00"/>
<path d="M26.0978 12.2076C26.6296 12.2076 27.0608 11.7899 27.0608 11.2747C27.0608 10.7595 26.6296 10.3418 26.0978 10.3418C25.5659 10.3418 25.1348 10.7595 25.1348 11.2747C25.1348 11.7899 25.5659 12.2076 26.0978 12.2076Z" fill="#10CD00"/>
<path d="M20.2931 3.22128C20.8249 3.22128 21.2561 2.8036 21.2561 2.28838C21.2561 1.77315 20.8249 1.35547 20.2931 1.35547C19.7612 1.35547 19.3301 1.77315 19.3301 2.28838C19.3301 2.8036 19.7612 3.22128 20.2931 3.22128Z" fill="#10CD00"/>
<path d="M9.59093 6.36142C10.1228 6.36142 10.5539 5.94374 10.5539 5.42851C10.5539 4.91328 10.1228 4.49561 9.59093 4.49561C9.05908 4.49561 8.62793 4.91328 8.62793 5.42851C8.62793 5.94374 9.05908 6.36142 9.59093 6.36142Z" fill="#10CD00"/>
<path d="M10.4132 12.9571C10.945 12.9571 11.3762 12.5394 11.3762 12.0242C11.3762 11.509 10.945 11.0913 10.4132 11.0913C9.88135 11.0913 9.4502 11.509 9.4502 12.0242C9.4502 12.5394 9.88135 12.9571 10.4132 12.9571Z" fill="#10CD00"/>
<path d="M9.59093 20.5904C10.1228 20.5904 10.5539 20.1727 10.5539 19.6575C10.5539 19.1423 10.1228 18.7246 9.59093 18.7246C9.05908 18.7246 8.62793 19.1423 8.62793 19.6575C8.62793 20.1727 9.05908 20.5904 9.59093 20.5904Z" fill="#10CD00"/>
<path d="M4.18175 30.6026C4.7136 30.6026 5.14475 30.185 5.14475 29.6697C5.14475 29.1545 4.7136 28.7368 4.18175 28.7368C3.6499 28.7368 3.21875 29.1545 3.21875 29.6697C3.21875 30.185 3.6499 30.6026 4.18175 30.6026Z" fill="#10CD00"/>
<path d="M25.0431 30.6446C25.5749 30.6446 26.0061 30.2269 26.0061 29.7117C26.0061 29.1965 25.5749 28.7788 25.0431 28.7788C24.5112 28.7788 24.0801 29.1965 24.0801 29.7117C24.0801 30.2269 24.5112 30.6446 25.0431 30.6446Z" fill="#10CD00"/>
<path d="M28.3873 3.24063L28.6513 3.70854C28.6723 3.74567 28.7039 3.77617 28.7423 3.79645L29.225 4.05244C29.2608 4.07152 29.2907 4.09957 29.3115 4.13365C29.3323 4.16773 29.3433 4.2066 29.3433 4.24619C29.3433 4.28579 29.3323 4.32466 29.3115 4.35874C29.2907 4.39282 29.2608 4.42086 29.225 4.43994L28.7423 4.69594C28.7039 4.71622 28.6723 4.74672 28.6513 4.78385L28.3873 5.25176C28.3676 5.28662 28.3385 5.3157 28.3032 5.33595C28.2679 5.35621 28.2277 5.3669 28.1866 5.3669C28.1456 5.3669 28.1053 5.35621 28.07 5.33595C28.0347 5.3157 28.0057 5.28662 27.986 5.25176L27.722 4.78385C27.701 4.74672 27.6694 4.71622 27.631 4.69594L27.1483 4.43994C27.1125 4.42081 27.0827 4.39275 27.062 4.35867C27.0412 4.3246 27.0303 4.28576 27.0303 4.24619C27.0303 4.20663 27.0412 4.16779 27.062 4.13372C27.0827 4.09964 27.1125 4.07158 27.1483 4.05244L27.631 3.79645C27.6694 3.77617 27.701 3.74567 27.722 3.70854L27.986 3.24063C28.0057 3.20577 28.0347 3.17669 28.07 3.15644C28.1053 3.13618 28.1456 3.12549 28.1866 3.12549C28.2277 3.12549 28.2679 3.13618 28.3032 3.15644C28.3385 3.17669 28.3676 3.20577 28.3873 3.24063Z" fill="#10CD00"/>
<path d="M3.7846 11.9773L4.0021 12.3627C4.0194 12.3933 4.04543 12.4186 4.0771 12.4353L4.47485 12.646C4.50446 12.6618 4.52916 12.6849 4.54637 12.7131C4.56358 12.7413 4.57266 12.7734 4.57266 12.8061C4.57266 12.8388 4.56358 12.871 4.54637 12.8991C4.52916 12.9273 4.50446 12.9504 4.47485 12.9662L4.0771 13.1769C4.04543 13.1937 4.0194 13.2189 4.0021 13.2496L3.7846 13.6349C3.76834 13.6636 3.74443 13.6875 3.71536 13.7042C3.68629 13.7208 3.65313 13.7296 3.61935 13.7296C3.58556 13.7296 3.5524 13.7208 3.52333 13.7042C3.49426 13.6875 3.47035 13.6636 3.4541 13.6349L3.2366 13.2496C3.21932 13.2189 3.19329 13.1936 3.1616 13.1769L2.7641 12.9662C2.73441 12.9505 2.70964 12.9274 2.69238 12.8992C2.67512 12.871 2.66602 12.8389 2.66602 12.8061C2.66602 12.7733 2.67512 12.7412 2.69238 12.713C2.70964 12.6849 2.73441 12.6617 2.7641 12.646L3.1616 12.4353C3.19329 12.4186 3.21932 12.3934 3.2366 12.3627L3.4541 11.9773C3.47029 11.9486 3.49419 11.9246 3.52326 11.9079C3.55234 11.8911 3.58553 11.8823 3.61935 11.8823C3.65316 11.8823 3.68635 11.8911 3.71543 11.9079C3.74451 11.9246 3.7684 11.9486 3.7846 11.9773V11.9773Z" fill="#10CD00"/>
<path d="M13.7108 24.0255L14.0321 24.5946C14.0577 24.6397 14.096 24.6769 14.1426 24.7017L14.7301 25.0129C14.7739 25.0361 14.8104 25.0703 14.8359 25.1119C14.8614 25.1535 14.8748 25.201 14.8748 25.2494C14.8748 25.2977 14.8614 25.3452 14.8359 25.3868C14.8104 25.4284 14.7739 25.4626 14.7301 25.4859L14.1426 25.7971C14.096 25.8219 14.0577 25.859 14.0321 25.9041L13.7108 26.4733C13.6869 26.5157 13.6516 26.5511 13.6086 26.5758C13.5657 26.6004 13.5166 26.6135 13.4667 26.6135C13.4168 26.6135 13.3678 26.6004 13.3248 26.5758C13.2818 26.5511 13.2465 26.5157 13.2226 26.4733L12.9013 25.9041C12.8757 25.859 12.8374 25.8219 12.7908 25.7971L12.2033 25.4859C12.1595 25.4626 12.123 25.4284 12.0975 25.3868C12.072 25.3452 12.0586 25.2977 12.0586 25.2494C12.0586 25.201 12.072 25.1535 12.0975 25.1119C12.123 25.0703 12.1595 25.0361 12.2033 25.0129L12.7908 24.7017C12.8374 24.6769 12.8757 24.6397 12.9013 24.5946L13.2226 24.0255C13.2465 23.983 13.2818 23.9476 13.3248 23.9229C13.3678 23.8983 13.4168 23.8853 13.4667 23.8853C13.5166 23.8853 13.5657 23.8983 13.6086 23.9229C13.6516 23.9476 13.6869 23.983 13.7108 24.0255V24.0255Z" fill="#10CD00"/>
</svg>
